<?xml version="1.0" encoding="UTF-8"?>
<svg id="_0" data-name="0" xmlns="http://www.w3.org/2000/svg" viewBox="0 0 1024 1024">
  <defs>
    <style>
      .cls-1 {
        fill: #f39a2b;
      }

      .cls-1, .cls-2, .cls-3, .cls-4, .cls-5, .cls-6, .cls-7 {
        stroke-width: 0px;
      }

      .cls-2 {
        fill: #e5594f;
      }

      .cls-3 {
        fill: #4a5699;
      }

      .cls-4 {
        fill: #f0d043;
      }

      .cls-5 {
        fill: #6f88cc;
      }

      .cls-6 {
        fill: #c45fa0;
      }

      .cls-7 {
        fill: #fefefe;
      }
    </style>
  </defs>
  <path class="cls-6" d="M740.37,145.11c1.7-15.02-5.87-41.08,7.59-51.94,9.28-7.49,23.12-6.22,30.2,3.6,8.07,11.2,3.35,34.7,4.49,48.34,25.72,1.15,90.03-3.83,111.27,2.2,42.34,12.02,34.81,57.45,34.81,90.56l-.02,106.82H1.07l-.31-145.65c-.28-24.21,15.49-46.22,39.26-52.21,13.76-3.47,32.89-1.73,47.27-1.72h68.52c1.94-14.61-4.27-37.63,6.52-48.62,7.82-7.96,21.36-7.75,29.02.35,7.88,8.33,5.29,36.37,5.25,48.29h155.72c.22-12.97-3.22-39.1,6.31-48.71,8-8.08,22.45-8.39,30.18.27,8.5,9.52,5.78,35.73,5.73,48.44l134.78-.03c5.35,0,10.94-.39,16.27.03.97-13.86-3.59-37.08,4.84-48.42,9.06-12.2,30.3-9.33,35.43,4.94,3.94,10.94.28,30.36,1.3,42.25l.12,1.23h153.1Z"/>
  <path class="cls-1" d="M545.58,173.46c-.62,7.47-1.11,30.26.39,36.94,3.7,16.38,23.37,21.05,35.13,10.1,11.1-10.33,6.96-33.43,6.16-47.04,29.71,7.52,28.77,57-1.61,72.44-47.83,24.3-88.41-50.45-40.08-72.44Z"/>
  <path class="cls-1" d="M196.6,173.46c41.78,22.67,16.55,87.85-29.19,76.25-36.95-9.37-47.02-55.58-11.61-76.25-.07,13.33-3.06,37.89,7.07,47.72,7.44,7.22,21.1,7.07,27.93-.9,8.61-10.04,5.86-33.72,5.79-46.81Z"/>
  <path class="cls-1" d="M394.54,173.46c29.37,18.3,29.39,58.96-3.67,73.61-53.32,23.64-81.35-56.74-38.55-73.61-.08,13-3.05,37.45,6.41,46.93,7.75,7.76,23.02,6.92,30.25-1.12,8.55-9.52,5.52-33.16,5.57-45.81Z"/>
  <path class="cls-1" d="M782.65,173.46c23.54,3.38,36.73,56.78-5.15,73.58-51.38,20.61-81.34-56.97-37.13-73.58.06,14.14-3.19,36.8,7.74,47.37,8.47,8.19,21.38,7.06,29.06-1.76,8.32-9.55,5.53-33.27,5.48-45.61Z"/>
  <path class="cls-5" d="M155.8,145.11c1.94-14.62-4.27-37.64,6.52-48.63,7.82-7.96,21.36-7.75,29.02.35,7.88,8.33,5.29,36.37,5.25,48.29v28.34c.07,13.09,2.82,36.77-5.79,46.81-6.84,7.97-20.5,8.12-27.93.9-10.13-9.83-7.14-34.39-7.07-47.72v-28.34Z"/>
  <path class="cls-5" d="M352.32,145.11c.22-12.97-3.22-39.1,6.31-48.71,8-8.08,22.45-8.39,30.18.27,8.5,9.52,5.78,35.73,5.73,48.44-.23,9.46-.48,18.88,0,28.34-.04,12.65,2.98,36.28-5.57,45.81-7.22,8.04-22.5,8.89-30.25,1.12-9.45-9.47-6.49-33.93-6.41-46.93v-28.34Z"/>
  <path class="cls-5" d="M545.58,145.11c.97-13.86-3.59-37.08,4.84-48.42,9.06-12.2,30.3-9.33,35.43,4.94,3.94,10.94.28,30.36,1.3,42.25l.12,1.23v28.34c.79,13.6,4.93,36.7-6.16,47.04-11.77,10.95-31.43,6.29-35.13-10.1-1.51-6.68-1.02-29.47-.39-36.94.88-9.07,0-19.16,0-28.34Z"/>
  <path class="cls-5" d="M740.37,145.11c1.7-15.02-5.87-41.08,7.59-51.94,9.28-7.49,23.12-6.22,30.2,3.6,8.07,11.2,3.35,34.7,4.49,48.34.32,9.44-.37,18.92,0,28.34.05,12.35,2.84,36.06-5.48,45.61-7.68,8.82-20.59,9.95-29.06,1.76-10.93-10.57-7.68-33.23-7.74-47.37-.32-9.43-.07-18.91,0-28.34Z"/>
  <path class="cls-4" d="M1.07,344.69h927.65c.03,14,1.16,30.93,0,44.54,122.91,32.81,130.33,223.42,2.3,266.67l.03,225.75c-.26,51.9-34.64,52.95-75.46,52.93l-735.49-.04c-33.76,0-79.01,7.8-103.6-18.29-16.04-17.02-15.46-38.21-15.46-59.89l.02-397.16c0-37.73-1-76.97,0-114.52Z"/>
  <path class="cls-3" d="M824.08,731.19c5.65,1.42,13.37.24,19.22,0-13.2,37.81-26.19,50.82-26.01,93.53h-19.25c.09-16.19.99-23.2-3.47-38.66-9.35-17.24-16.85-36.29-23.03-54.87,6.99,1.14,15.84.06,23.03,0,4.41,13.86,8.11,28.45,13.66,41.85,5.25-13.75,8.44-29.14,15.86-41.85Z"/>
  <path class="cls-3" d="M869.87,731.19c10.12-2.89,22.29.86,30.81,6.38-1.66,5.47-3.81,10.59-6.46,15.65-6.67-2.17-30.06-10.28-27.84,5.01,1.25,8.61,18.41,13.86,24.94,18.9,22.55,17.41,10.1,47.65-21.44,50.06-10.94-.52-19.83-2.55-29.28-8.23,1.71-5.66,3.64-11.24,5.53-16.84,7.07,2.08,38.46,16,34.44-3.85-1.88-9.28-16.99-13.7-23.92-18.65-21.74-15.49-11.38-45.34,13.23-48.43Z"/>
  <path class="cls-3" d="M728.05,731.19c6.74.07,13.47.02,20.21,0,8.97,31.2,22.63,62.23,30.02,93.53h-21.35c-1.36-4.99-2.42-17.34-8.67-18.23-8.4.22-16.84.03-25.25,0-2.01,6.05-3.85,12.13-5.65,18.23-6.99-.5-13.98-.19-20.97,0,4.66-20.41,23.57-80.19,31.67-93.53Z"/>
  <path class="cls-4" d="M737.2,755.55c3.05,3.22,8.33,28.48,11.07,35.24h-20.21c2.69-11.84,5.99-23.51,9.14-35.24Z"/>
  <path class="cls-3" d="M619.68,731.19c27.37-.1,64.28-4.51,71.54,30.15,4.26,20.33.1,37.06-10.96,54.1-29.13,13.37-27.13,9.33-60.57,9.28v-93.53Z"/>
  <path class="cls-4" d="M640.42,747.61c35.16-.73,39.77,28.94,23.82,54.5-7.45,6.1-14.43,7.23-23.82,7.33-.47-20.57,0-41.25,0-61.83Z"/>
  <path class="cls-2" d="M118.83,415.27c33.59-.41,67.22,0,100.81-.02l33.48-.02c15.8,0,31.83-3.09,32.78,18.34.44,10.05.11,20.25.1,30.3l.02,92.77c.03,18.54,3.77,33.77-19.67,34.29l-98.22-.02c-12.04.02-52.67,3.56-61.84-2.96-9.65-6.86-6.84-23.65-6.84-33.76v-97.56c-.02-19.74-6.92-39.93,19.39-41.34Z"/>
  <path class="cls-3" d="M253.31,440.61c9.05.76,17.94,7.56,18.09,17.27.18,11.59-41.72,46.96-50.52,55.69-8.97,8.89-30.46,39.73-45.91,31.08-7.59-4.25-27.58-25.97-34.84-33.16-6.23-6.08-17.14-14.54-17.55-23.91-.54-12.42,13.1-22.55,24.03-15.58,9.8,6.25,27.26,25.94,35.7,35.2,8.84-9.98,61.17-63.46,70.99-66.59Z"/>
  <path class="cls-2" d="M113.61,660.83l101.78.05c17.23,0,34.94-.99,52.09.14,27.73,1.82,18.53,31.16,18.51,52.08v78.34c0,16.99,6.63,40.24-13.02,45.23l-104.9-.02c-17.25,0-35.2,1.11-52.38-.17-21-1.57-16.28-22.84-16.26-37.98l.04-97.48c-.05-14.42-5.48-37.25,14.15-40.19Z"/>
  <path class="cls-7" d="M249.05,687.65c13.58-.65,24.77,14.38,16.21,26.55-6.47,9.2-21.07,21.86-29.38,30.11-23.52,23.35-48.07,46.45-70.18,71.13-9.15-10.26-19.58-19.6-29.27-29.38-6.56-6.75-20.11-16.68-21.64-26.39-1.41-8.98,7.52-18.91,16.32-19.53,9.31-.65,27.34,19.93,34.6,26.57,13.67-11.94,71.75-75.93,83.36-79.06Z"/>
  <path class="cls-2" d="M382.35,415.27l103.61.03c15.92,0,65.13-6.68,71.59,10.85,1.66,4.51,1.52,133.9.68,148.43-.46,8.01-4.85,13.76-12.65,16.33l-144.54.1c-42.29.11-34.32-10.7-34.35-48.39v-91.25c0-13.53-3.36-34.52,15.67-36.1Z"/>
  <path class="cls-3" d="M526.37,440.61c12.32.12,22.39,11.64,15.44,23.77-3.77,6.58-71.87,72.61-78.92,78.73-18.94,16.44-35.96-22.45-52.55-31.63-5.44-7.46-18-17.11-18.72-26.48-.93-12.18,13.81-20.98,24.06-14.66,8.87,5.48,30.21,28.68,38.21,36.85,11.37-13.81,25.43-26.14,38.11-38.83,9.52-9.52,20.11-26.16,34.36-27.76Z"/>
  <path class="cls-2" d="M394.54,660.83l131.08-.03c15.87-.02,32.7-2.18,32.85,18.43v130.11c-.03,25.79-2.14,27.54-28.23,27.33l-102.61-.03c-16.26,0-60.52,7.98-61.05-16.23-.67-30.91.09-62.04.09-92.97v-32.9c-.05-27.63-2.15-34.65,27.86-33.7Z"/>
  <path class="cls-7" d="M427.77,697.72h81.2v24.04c-34.94,36.01-34.97,40.75-36.98,93.11-1.57.8-3.5.56-5.23.56h-27.98c-1.22-51.07,6.58-58.62,36.13-93.67h-54.08c-.91-8.14-.62-15.91,0-24.04h6.93Z"/>
  <path class="cls-1" d="M931.01,655.91c-182.18,49.81-250.27-184.26-120.69-255.92,34.58-19.12,80.92-21.66,118.39-10.76,122.91,32.81,130.33,223.42,2.3,266.67Z"/>
  <path class="cls-2" d="M824.08,432.74h120.41c.15,23.5.68,24.9-9.2,45.91l-32.54,69.89c-10.23,21.51-21.05,43.12-29.91,65.23-4,2.52-28.06,0-34.62,0,20.76-48.4,52.6-103.73,69.81-151.28h-83.95v-29.75Z"/>
</svg>