<?xml version="1.0" encoding="UTF-8"?>
<svg id="_12" data-name="12" xmlns="http://www.w3.org/2000/svg" xmlns:xlink="http://www.w3.org/1999/xlink" viewBox="0 0 1024 1024">
  <defs>
    <style>
      .cls-1 {
        fill: url(#linear-gradient);
      }

      .cls-1, .cls-2, .cls-3, .cls-4, .cls-5, .cls-6 {
        stroke-width: 0px;
      }

      .cls-2 {
        fill: #dfa9c3;
      }

      .cls-3 {
        fill: #f39a2b;
      }

      .cls-4 {
        fill: #e5594f;
      }

      .cls-5 {
        fill: #4a5699;
      }

      .cls-6 {
        fill: #f0d043;
      }
    </style>
    <linearGradient id="linear-gradient" x1="1522.54" y1="953.48" x2="1296.35" y2="630.72" gradientTransform="translate(-2421.58 2165.38) scale(2.08 -2.08)" gradientUnits="userSpaceOnUse">
      <stop offset="0" stop-color="#3c4088"/>
      <stop offset="1" stop-color="#9866b0"/>
    </linearGradient>
  </defs>
  <path class="cls-4" d="M893.37,208.76c5.31-9.77,24.97-65.32,36.25-56.26,5.2,4.18,24.9,46.72,29.37,56.26l35.81,3.96c61.91,6.9,9.89,25.91-14.67,58.71,3.01,9.56,14.46,55.5,10.66,62.51-5,9.24-43.02-17.54-52.19-19.39-3.48-2.79-8.72-4.21-12.86-5.82-20.61,9.02-39.55,21.96-60.48,30.45-12.36-12.82,2.83-48.29,5.09-67.75-7.16-9.53-27.13-26.61-37.28-33.31-24.81-23.32,2.79-21.91,20.6-23.68,13.18-1.31,26.72-2.89,39.69-5.68Z"/>
  <path class="cls-4" d="M782.55,6.02c12.11.25,29.78,46.39,35.89,58.22,11.79,2.49,59.34,7.21,65.6,11.52,12.46,8.58-35.91,44.52-43.46,54.56,1.58,12.17,12.11,55.74,10.01,64.57-3.76,15.84-52.52-16.41-65.01-22.2-19.99,6.79-40.26,22.61-60.62,29.88-16.96-10.12-.18-53.28,2.97-72.26-8.35-8.57-17.07-16.7-25.97-24.68-34.68-31.09-28.66-31.03,12.57-36.05,11.64-1.42,23.13-3.16,34.65-5.35,7.29-12.72,23.6-51.13,33.38-58.22Z"/>
  <path class="cls-4" d="M236.49,6.02c10.8,1.4,31.98,47.1,38.4,58.22,12.39,2.31,24.87,4.09,37.36,5.76,43.14,5.8,35.42,10.16,10.02,35.03-8.65,8.47-16.96,17.26-26.04,25.29,2.82,18.22,9.39,43.87,10.75,61.01,1.56,19.58-22.07,3.48-29.51-.17-12.09-5.93-24.47-11.4-35.96-18.46-7.34-1.8-52.98,28.68-63.88,27.72-13.52-1.2,2.19-57.09,3.43-70.1-9.03-13.79-35.6-31.96-42.46-45.45-7.29-14.33,20.93-13.41,28.81-14.61,11.32-1.71,22.52-3.53,33.7-6.03,8.38-12.08,25.81-53.67,35.37-58.22Z"/>
  <path class="cls-4" d="M508.9,6.02c14.49-2.5,31.89,45.26,37.71,58.22,9.82.89,62.82,6.72,67.91,12.24,8.25,8.96-37.63,47.21-45.47,53.84,1.92,12.77,11.98,57.14,10.07,65.87-2.92,13.34-52.7-18.27-63.87-23.49-7.91-1.82-52.64,28.99-64.92,29.17-12.13.18,2.99-61.17,4.6-71.55-9.34-10.34-44.64-42.11-46.46-48.29-2.88-9.77,22.84-11.07,28.37-11.92l38.28-5.87c5.13-11.15,24.49-52.6,33.78-58.22Z"/>
  <path class="cls-3" d="M307.15,568.18c97.72-20.6,171.65,18.05,252.1,70.48l37.64,24.74c4.86,3.17,11.38,6.35,15.61,10.19,13.2,6.6,25.55,14.63,38.79,21.18,75.03,37.1,201.4,75.88,287.31,59.53l.04,60.4c0,15.48,1.69,32.92-2.04,47.97-15.41,62.08-75.97,55.65-123.53,55.59h-115.87c-18.37-.02-44.15-2.54-61.36,3.76-35.65,11.8-58.97,49.94-93.99,71.05-66.16,39.89-111.17,21.68-178.68,2.26-46.45-13.36-70.95-12.48-116.21,2.75-43.91,14.77-81.85,27.15-128.84,15.21-140.53-35.7-160.83-216.86-32.95-291.13,31.92-14.27,32.29-27.76,52.65-52.66,44-53.81,101.76-86.94,169.34-101.33Z"/>
  <path class="cls-4" d="M325.23,621.56c88.55-8.45,107.09,120.12,16.23,136.09-100.13,7.29-101.61-127-16.23-136.09Z"/>
  <path class="cls-4" d="M271.95,771.6l105.71-.03c55.89,0,66.72-8.33,106.71,31.55l33.82,34.36c12.59,12.83,30.56,28.49,40.72,42.42,22.17,30.41-14.28,66.77-45.89,48.8-15.6-8.87-44.4-43.57-60.49-57.62-6.9,8.14-14.89,16.19-20.76,25.07-6.94,6.89-13.05,14.63-19.36,22.1-42.48.5-85.04,0-127.53,0-12.3-13.51-23.96-27.65-35.76-41.6-17.32,17.8-37.41,52.5-63.93,53.67-19.45.86-36.26-15.02-37.01-34.32-.86-22.32,20.42-38.26,33.68-53.8,26.67-31.24,46.44-68.91,90.1-70.61Z"/>
  <path class="cls-1" d="M833.08,238.12c10.16,6.7,30.12,23.78,37.28,33.31-2.27,19.45-17.46,54.93-5.09,67.75,20.94-8.49,39.87-21.43,60.48-30.45,4.14,1.6,9.38,3.03,12.86,5.82l.03,229.69c.01,9.62.56,19.56-.03,29.14.8,7.32.21,14.9.12,22.25l-.12,158.66c-85.92,16.35-212.28-22.43-287.31-59.53-13.24-6.55-25.6-14.58-38.79-21.18-4.23-3.85-10.75-7.02-15.61-10.19l-37.64-24.74c-80.46-52.44-154.38-91.09-252.1-70.48-67.57,14.39-125.33,47.52-169.34,101.33-20.36,24.89-20.72,38.38-52.65,52.66v-381.41c-.01-15.87-1.28-33.3,1.12-48.96,6.9-44.98,45.07-53.69,82.14-53.7l664.65.03Z"/>
  <path class="cls-5" d="M789.81,477.16l.54.48c-9.88,14.14-28.11,5.96-41.33,3.44-28.14-5.38-4.75,53.87-37.56,46.64-27.61-6.09-13.63-44.09-26.01-48.14-4.45-1.46-28.54,9.88-38.83,8.09-8.58-1.49-17.25-12.88-14.93-21.69,2.54-9.63,25.99-22.65,36.33-28.54l.5,1.09-.73.56c-9.16,6.96-32.64,15.88-34.5,27.73-5.58,35.53,50.66,8.09,54.87,13.21,12.55,15.27-4.41,39.86,27.02,46.99,26.17-8.75,11.46-44,22.17-47.87,10.67-3.85,29.85,9.48,41.61,5.15,4.04-1.49,7.28-5.99,10.85-7.13Z"/>
  <path class="cls-6" d="M497.41,414.18c31.06-1.69,79.13,8.86,102.92,30.27,43.45,39.1-42.2,70.46-75.87,70.68-36.36.23-64.94-16.18-92.69-37.96,3.26-4.02,6.59-7.87,10.15-11.62,36.44,13.68,61.1-14.69,55.49-51.35Z"/>
  <path class="cls-6" d="M656.28,393.53c9.31-43.94,45.28,5.46,56.67,12.71,11.8-7.34,28.1-32.28,43.31-28.97,29.38,6.4-2.21,45.12-7.08,56.46,15.23,13.05,47.05,18.18,40.64,43.43-3.57,1.15-6.8,5.64-10.85,7.13-11.76,4.33-30.94-9-41.61-5.15-10.71,3.87,4,39.12-22.17,47.87-31.43-7.12-14.47-31.72-27.02-46.99-4.21-5.12-60.45,22.32-54.87-13.21,1.86-11.85,25.33-20.77,34.5-27.73l.73-.56c2.15-1.54,4.37-3.02,6.32-4.8-4.97-12.91-15.69-27.32-18.56-40.2Z"/>
  <path class="cls-6" d="M612.51,673.59c21.02-1.63,42,1.41,63.1-.01,98.88-6.67,186.8-37,263-100.19.8,7.32.21,14.9.12,22.25l-.12,158.66c-85.92,16.35-212.28-22.43-287.31-59.53-13.24-6.55-25.6-14.58-38.79-21.18Z"/>
  <path class="cls-2" d="M358.39,325.64c39.98-65.3,156.36-20.12,122.12,67.89,8.95,4.98,13.61,11.09,16.89,20.65,5.61,36.67-19.05,65.03-55.49,51.35-3.56,3.76-6.9,7.6-10.15,11.62-23.34,22.21-60.54,15.93-73.37-15.19-42.26,21.54-96.84,4.51-113.07-41.69-23.97-68.2,39.98-130.54,113.07-94.63Z"/>
</svg>