<?xml version="1.0" encoding="UTF-8"?>
<svg id="_16" data-name="16" xmlns="http://www.w3.org/2000/svg" viewBox="0 0 1024 1024">
  <defs>
    <style>
      .cls-1 {
        fill: #f39a2b;
      }

      .cls-1, .cls-2, .cls-3, .cls-4, .cls-5, .cls-6 {
        stroke-width: 0px;
      }

      .cls-2 {
        fill: #e5594f;
      }

      .cls-3 {
        fill: #4a5699;
      }

      .cls-4 {
        fill: #f0d043;
      }

      .cls-5 {
        fill: #c45fa0;
      }

      .cls-6 {
        fill: #fefefe;
      }
    </style>
  </defs>
  <path class="cls-1" d="M109.9,104.34c1.47-16.41-3.21-32.73,8.58-46.68,12.81-15.15,36.47-15.95,50.81-2.55,14.22,13.29,10.9,29.68,11.63,46.97,22.3.03,44.85.76,67.11,0-.07-15.56-2.29-32.41,9.38-44.69,13.97-14.71,37.53-14.69,51.95-.63,13.01,12.68,10.51,28.9,10.8,45.33l.06,44.28c.03,11.86.68,24.06-1.48,35.78,1.66,9.12.02,30.8.01,41.58l.03,34.56c0,5.15.54,10.92-.04,16H106.61c-35.36,0-70.8-.51-106.16,0,.15-41.05-2.93-72.5,20.26-109.49,20.38-32.5,52.25-52.03,89.18-60.46Z"/>
  <path class="cls-2" d="M109.9,104.34c1.47-16.41-3.21-32.73,8.58-46.68,12.81-15.15,36.47-15.95,50.81-2.55,14.22,13.29,10.9,29.68,11.63,46.97.03,17.69,2.05,62.83-2.19,77.17-7.37,24.92-42.9,30.17-60.15,12.12-12.43-13-9.87-66.73-8.68-87.03Z"/>
  <path class="cls-2" d="M248.03,102.08c-.07-15.56-2.29-32.41,9.38-44.69,13.97-14.71,37.53-14.69,51.95-.63,13.01,12.68,10.51,28.9,10.8,45.33l.06,44.28c.03,11.86.68,24.06-1.48,35.78-14.98,19.07-42.12,29.94-61.33,10.53-12.06-12.18-9.43-29.65-9.41-45.23l.03-45.36Z"/>
  <path class="cls-4" d="M697.46,102.08c-.27-14.73-2.53-32.13,8.42-43.74,14.36-15.23,37.99-15.86,52.53-.66,11.92,12.46,9.38,28.69,8.92,44.41,26.51-.09,54.16,15.18,72.53,33.58,41.13,41.17,36.1,85.38,35.99,138.63-9.5,1.97-21.55-.09-31.35-.06l-525.76.06c.59-5.09.05-10.86.04-16l-.03-34.56c0-10.78,1.64-32.46-.01-41.58,2.17-11.72,1.51-23.92,1.48-35.78l-.06-44.28h157.43c26.06.02,52.23.54,78.28,0-.07-15.78-1.55-30.95,10.04-43.46,13.3-14.37,35.91-16.17,50.25-2.33,13.14,12.68,10.7,29.23,11.22,45.79,22.24.3,48.05,1.54,70.09,0Z"/>
  <path class="cls-2" d="M697.46,102.08c-.27-14.73-2.53-32.13,8.42-43.74,14.36-15.23,37.99-15.86,52.53-.66,11.92,12.46,9.38,28.69,8.92,44.41l.07,40.26c.08,16.65,2.86,35.85-9.97,48.87-12.88,13.06-37.09,13.39-49.85-.02-12.06-12.67-10.21-30.03-10.19-46.14l.08-42.98Z"/>
  <path class="cls-2" d="M555.87,102.08c-.07-15.78-1.55-30.95,10.04-43.46,13.3-14.37,35.91-16.17,50.25-2.33,13.14,12.68,10.7,29.23,11.22,45.79l.09,41.07c.06,16.63,2.42,34.91-10.28,47.88-12.81,13.08-38.04,13.69-51.05.55-12.69-12.81-10.38-31.29-10.34-47.75l.08-41.75Z"/>
  <path class="cls-1" d="M614.35,891.31c-3.99-7.09-9.4-13.5-13.76-20.39-38.48-60.66-47.1-136.79-22.8-204.5,44.21-123.19,176.18-182.11,298.07-138.51,6.6,1.67,13.35,5.43,19.45,8.47,185.16,91.92,167.35,373.88-32.99,432.72-91.51,26.88-186.63-6.55-247.97-77.79Z"/>
  <path class="cls-6" d="M892.02,654.14c20.92.2,42.29,25.11,27.9,44.62-7.52,10.19-17.55,19.38-26.33,28.55l-51.57,53.3c-18.12,18.63-61.2,81.65-90.09,62.81-12.14-7.92-44.78-43.8-54.47-54.81-11.07-10.26-30.25-24.31-32.64-40.11-2.46-16.25,9.29-33.02,25.86-35.11,22.53-2.84,57.89,45.39,76.65,60.45,9.09-11.92,20.38-22.15,30.89-32.8l46.26-46.87c13.77-13.72,27.52-35.53,47.54-40.03Z"/>
  <path class="cls-5" d="M.45,274.29c35.36-.51,70.79,0,106.16,0h212.13s525.76-.06,525.76-.06c9.8-.03,21.85,2.03,31.35.06v253.63c-121.89-43.6-253.86,15.32-298.07,138.51-24.29,67.71-15.68,143.84,22.8,204.5,4.37,6.88,9.77,13.3,13.76,20.39-12.81,1.19-26.29.03-39.19.01h-186.69c-18.75.06-37.95,1.13-56.65-.01-66.21,2.09-141.18,1.5-207.39-.12-57.49-1.41-110.71-40.89-121.08-98.72-4.14-23.05-2.92-54.14-2.92-77.98l.03-330.76c0-36.41-1.02-73.07,0-109.44Z"/>
  <path class="cls-3" d="M455.74,543.49c11.11-.41,25.71-2.83,34.71,5.05,13.68,11.97,9.02,36.97-9.21,41.58-10.34,2.61-40.85.98-53.17.95-10.61-.13-25.77,2.11-34.36-5.37-12.89-11.23-10.5-36.38,7.32-41.22,9.95-2.7,42.77-1.03,54.71-.99Z"/>
  <path class="cls-3" d="M402.43,622.03c15.43.18,71.18-2.12,81.71,2.14,23.17,9.36,18.46,38.06-3.33,46.36-13.77-.21-69.9,1.77-79.53-1.16-24.35-7.39-18.45-38.34,1.16-47.34Z"/>
  <path class="cls-4" d="M434.94,403.66c52.34-6.54,95.13,59.22,57.71,74.2-26.27,10.52-25.21-25.01-42.57-32.2l-.79-.32c-22.46-4.63-26.05,7.48-35.67,24.54-14.21,25.21-54.67.25-28.18-36.02,12.31-16.85,29.01-27.04,49.5-30.21Z"/>
  <path class="cls-4" d="M318.74,684.62c47.01.86,41.96,5.11,41.99,50.49.02,46.79,6.12,55.26-44.31,53.5-24.45-.21-65.45,10.73-65.82-22.16-.16-14.05-3.51-67.48,5.39-76.04,9.13-8.78,49.62-5.83,62.76-5.79Z"/>
  <path class="cls-2" d="M109.9,684.62c15.84-.36,31.78.04,47.63.05,14.07,0,40.41-5.64,46.1,11.67,2.36,7.17,1.78,66.65.99,76.2-.67,8.12-4.97,13.5-12.9,16.07h-52.75c-13.03,0-38.87,4.47-42.99-12.64-2.42-10.05-1.9-62.53-.66-74.32,1-9.5,4.79-14.8,14.58-17.03Z"/>
  <path class="cls-4" d="M318.74,517.14c45.64-.78,42.02,3.75,41.99,46.54-.02,42.79,9.13,59.06-41.99,58.35-13.07-.3-54.58,3.38-63.17-5.51-7.78-8.05-6.34-77.04-3.81-86.57,5.31-20,50.88-12.86,66.98-12.81Z"/>
  <path class="cls-2" d="M109.9,517.14l57.81-.02c10.04-.02,20.26-.63,30.27.02,11.32,14.5,8.49,72.45,6.44,89.95-.86,7.39-5.55,12.78-12.71,14.94l-51.43.03c-11.59.01-41.26,4.14-45.09-11.53-1.03-4.23-.97-70.22-.26-77.66.9-9.43,5.63-13.96,14.96-15.72Z"/>
  <path class="cls-3" d="M318.74,454.32c-2.96-4.15-6.99-7.45-11.03-10.51-40.03-30.32-99.37-33.15-135.08,5.83-3.26,3.55-10.65,17.17-15.54,17.39-16.12.71-17.05-29.19-17.42-39.76-3.32-95.98,108.62-154.83,179.07-88.43,30.51,22.31,47.75,92.5,25.17,122.52-9.07,12.07-18.24-.04-25.17-7.04Z"/>
  <path class="cls-6" d="M212.33,341.62c45.53.88,51.56,59.74,4.61,70.37-46.94.89-53.7-64.9-4.61-70.37Z"/>
  <path class="cls-3" d="M619.8,311.37c109.88-13.75,153.88,134.66,96.89,147.7-27.72-12.06-28.36-27.45-73.5-33.26-26.22-2.88-57.5,4.86-78.86,20.41-23.89,17.39-34.14,24.39-39.66-16.78-8.22-61.33,35.5-109.94,95.13-118.06Z"/>
  <path class="cls-6" d="M592.53,338.84c38.04-.13,56.99,49.97,4.44,73.16-49.41-6.77-50.62-68.25-4.44-73.16Z"/>
</svg>