<?xml version="1.0" encoding="UTF-8"?>
<svg id="_17" data-name="17" xmlns="http://www.w3.org/2000/svg" viewBox="0 0 1024 1024">
  <defs>
    <style>
      .cls-1 {
        fill: #a71a3e;
      }

      .cls-1, .cls-2, .cls-3, .cls-4, .cls-5, .cls-6, .cls-7, .cls-8 {
        stroke-width: 0px;
      }

      .cls-2 {
        fill: #118d68;
      }

      .cls-3 {
        fill: #7d85c6;
      }

      .cls-4 {
        fill: #f39a2b;
      }

      .cls-5 {
        fill: #e5594f;
      }

      .cls-6 {
        fill: #f0d043;
      }

      .cls-7 {
        fill: #c45fa0;
      }

      .cls-8 {
        fill: #fefefe;
      }
    </style>
  </defs>
  <path class="cls-4" d="M805.38,308.37c233.87-.41,280.02,328.39,138.87,470.39-40.45,40.7-77.59,52.94-132.39,52.9l-7.63-.03c-3.14-1.36-48.5-15.36-51.38-15.88,8.67-12.3,19.26-22.76,27.3-35.64,18.62-29.84,23.38-63.48,36.03-95.56-2.6-4.31-5.79-8.34-8.78-12.4-8.8-17.36-34.08-39.35-39.73-54.7,3.69-1.13,52.45-.08,60.52,0,2.14-27.31-1.57-55.03,0-82.42l-49.82.05c-9.58.05-19.41.6-28.95-.05h-37.89c19.63-23.35,36.87-48.98,54.86-73.62l24.04-33.24c5.12-7.13,10.62-14.17,14.95-21.82-26.88-33.39-40.11-49.51-72.52-76.16,20.81-12.02,48.65-20.46,72.52-21.82Z"/>
  <path class="cls-1" d="M767.67,617.45c3.69-1.13,52.45-.08,60.52,0,8.93.77,18.26.15,27.24.08l45.49-.08c-27.82,23.26-50.21,53.02-76.95,77.51-2.69-3.42-5.32-6.83-7.79-10.41-2.6-4.31-5.79-8.34-8.78-12.4-8.8-17.36-34.08-39.35-39.73-54.7Z"/>
  <path class="cls-1" d="M805.38,406.35l.76-.9c7.31,4.28,83.06,112.56,94.78,129.58-12.09.56-24.28,0-36.39.02l-77.95-.03c-12.23-.03-24.99-.81-37.16,0h-37.89c19.63-23.35,36.87-48.98,54.86-73.62l24.04-33.24c5.12-7.13,10.62-14.17,14.95-21.82Z"/>
  <path class="cls-3" d="M180.14,101.95c-.33-17.63.12-33.21,13.18-46.64,16.44-16.91,45.14-17.81,62.13-1.23,32.62,31.83-7.6,48.2,64.93,47.92l186.48.09c41.9-.28,22.78-39.04,54.21-54.31,41.8-20.31,67.29,13.74,67.64,54.16,12.6-1.41,43.99-.83,57.35-.05,61.93,3.64,111.83,53.46,118.41,114.9,1.35,12.58.95,25.42.94,38.05l-.04,53.51c-23.87,1.36-51.71,9.81-72.52,21.82,32.41,26.65,45.65,42.77,72.52,76.16-4.33,7.65-9.83,14.69-14.95,21.82l-24.04,33.24c-17.99,24.64-35.23,50.27-54.86,73.62h37.89c9.54.65,19.37.1,28.95.05l49.82-.05c-1.57,27.4,2.14,55.11,0,82.42-8.07-.08-56.83-1.13-60.52,0,5.65,15.35,30.94,37.34,39.73,54.7,2.98,4.06,6.17,8.09,8.78,12.4-12.65,32.08-17.41,65.72-36.03,95.56-8.04,12.89-18.64,23.35-27.3,35.64,2.88.51,48.24,14.51,51.38,15.88.12,90.95-29.62,148.21-129.02,150.06-43.33.81-86.82.05-130.17.05l-373.09.02c-21.99,0-46.01,1.93-67.67-1.81-60.28-10.42-103.11-62.64-103.7-123.63l.02-579c-.01-22.03-2.1-48.38,1.53-69.79,9.29-54.77,55-102.98,112.01-106.28,19.54-1.13,45.62.73,65.99.7Z"/>
  <path class="cls-8" d="M111.53,334.91c32.39-1.06,65.18-.02,97.61,0h42.78c13.61.02,35.52-3.6,40.12,13.85,2.97,11.24-4.65,20.01-15.38,22.26h-106.29c-13.09,0-54.41,3.55-64.6-2.12-15.96-8.88-10.09-29.7,5.77-33.98Z"/>
  <path class="cls-4" d="M239.47,541.55c15.2.2,26.93,18.94,17.15,31.89-10.23,13.53-28.16,28.73-40.58,40.99-33.4,32.97-50.43,72.86-85.87,24.94-8.02-6.01-16.58-13.63-22.24-21.92-.6-17.12,5.45-25,22.24-29.74,12.48,5.3,21.23,15.73,30.81,24.97,20.17-15.56,57.43-64.92,78.5-71.13Z"/>
  <path class="cls-4" d="M244.85,742.29c16.47-.9,30.61,15.36,19.63,30.57-12.97,17.97-96.64,100.01-105.63,99.42-10.38-.68-26.81-21.9-34.02-29.81-8.14-8.38-23.65-20.34-22.82-33.03.68-10.48,10.25-20.43,21.21-18.95,12.74,1.73,28.22,22.67,35.58,32.76,14.72-17.41,73.62-75.95,86.05-80.97Z"/>
  <path class="cls-2" d="M607.1,315.46c2.76-43.1,21.41-85.06,52.51-115.14,13.28-12.84,40.01-33.82,59.67-33.04,21.77.86,40.66,21.2,39.16,43.1-2.58,37.63-64.8,30.98-68.63,102.7-21.28-4.54-61.96-4.56-82.71,2.38Z"/>
  <path class="cls-7" d="M180.14,101.95c-.33-17.63.12-33.21,13.18-46.64,16.44-16.91,45.14-17.81,62.13-1.23,32.62,31.83-7.6,48.2,64.93,47.92l186.48.09c41.9-.28,22.78-39.04,54.21-54.31,41.8-20.31,67.29,13.74,67.64,54.16-.17,16.62.03,33.24.07,49.86.1,40.98-2.67,66.1-49.91,66.63-81.67.91-163.47-.01-245.15,0l-75.24.04c-65.29.08-78.4-5.02-78.38-74.31l.05-42.21Z"/>
  <path class="cls-4" d="M549.48,815.76c-11.28,2.15-22.36,6.98-33.64,9.67-243.12,57.96-329.63-419.81-87.05-502.08,45.08-15.29,93.41-9.36,135.54,11.56-26.53,22.66-47.71,46.98-65.42,77.48l-5.86-6.05c-19.6,24.88-75.45,100.51-89.34,128.68h71.19v82.42c8.38,0,54.06-1.22,58.63,0-5.81,12.77-33.47,48.1-34.63,57.39-5.81,7.18-11.24,15.22-15.26,23.56,6.17,9.75,10.38,27.49,14.87,38.82,14.96,37.77,27.43,49.69,50.96,78.54Z"/>
  <path class="cls-1" d="M403.71,617.45c13.27.5,26.74,0,40.03.03l89.8-.03c-5.81,12.77-33.47,48.1-34.63,57.39-5.81,7.18-11.24,15.22-15.26,23.56-6.32-2.48-69.83-70.53-79.94-80.95Z"/>
  <path class="cls-6" d="M607.1,315.46c20.75-6.94,61.43-6.92,82.71-2.38,15.25,4.37,28.95,9.83,43.05,17.11,32.41,26.65,45.65,42.77,72.52,76.16-4.33,7.65-9.83,14.69-14.95,21.82l-24.04,33.24c-17.99,24.64-35.23,50.27-54.86,73.62h37.89c9.54.65,19.37.1,28.95.05l49.82-.05c-1.57,27.4,2.14,55.11,0,82.42-8.07-.08-56.83-1.13-60.52,0,5.65,15.35,30.94,37.34,39.73,54.7,2.98,4.06,6.17,8.09,8.78,12.4-12.65,32.08-17.41,65.72-36.03,95.56-8.04,12.89-18.64,23.35-27.3,35.64l-1.02.61c-10.54,6.4-19.68,14.45-30.57,20.41-52.55,28.75-128.06,21.16-171.77-21.03-23.54-28.85-36-40.76-50.96-78.54-4.49-11.33-8.69-29.07-14.87-38.82,4.02-8.33,9.45-16.38,15.26-23.56,1.15-9.29,28.82-44.63,34.63-57.39-4.58-1.22-50.25,0-58.63,0v-82.42h-71.19c13.89-28.17,69.74-103.8,89.34-128.68l5.86,6.05c17.71-30.5,38.89-54.82,65.42-77.48,13.71-8.55,27.24-14.93,42.77-19.46Z"/>
  <path class="cls-1" d="M493.05,406.35l5.86,6.05c30.9,39.4,64.16,82.06,93.59,122.63h-188.79c13.89-28.17,69.74-103.8,89.34-128.68Z"/>
  <path class="cls-6" d="M654.13,606.87c22.87,17.75,46.07,35.16,68.34,53.66,10.06-9.7,38.57-33.48,45.2-43.08,5.65,15.35,30.94,37.34,39.73,54.7,2.98,4.06,6.17,8.09,8.78,12.4-12.65,32.08-17.41,65.72-36.03,95.56-8.04,12.89-18.64,23.35-27.3,35.64l-1.02.61c-10.54,6.4-19.68,14.45-30.57,20.41-52.55,28.75-128.06,21.16-171.77-21.03-23.54-28.85-36-40.76-50.96-78.54-4.49-11.33-8.69-29.07-14.87-38.82,4.02-8.33,9.45-16.38,15.26-23.56,1.15-9.29,28.82-44.63,34.63-57.39,14.19,16.15,35.12,26.97,50.23,43.08,19.19-16.86,49.33-38.73,70.36-53.66Z"/>
  <path class="cls-5" d="M654.13,606.87c22.87,17.75,46.07,35.16,68.34,53.66,10.06-9.7,38.57-33.48,45.2-43.08,5.65,15.35,30.94,37.34,39.73,54.7-28.78,24.78-64.57,49.69-90.97,74.88-13.22-11.91-47.35-40.34-62.3-48.63-18.07,7.68-49.64,35.81-66.83,48.63-29.56-23.68-60.08-47.05-88.39-72.18,1.15-9.29,28.82-44.63,34.63-57.39,14.19,16.15,35.12,26.97,50.23,43.08,19.19-16.86,49.33-38.73,70.36-53.66Z"/>
</svg>