<?xml version="1.0" encoding="UTF-8"?>
<svg id="_18" data-name="18" xmlns="http://www.w3.org/2000/svg" viewBox="0 0 1024 1024">
  <defs>
    <style>
      .cls-1 {
        fill: #f39a2b;
      }

      .cls-1, .cls-2, .cls-3, .cls-4, .cls-5, .cls-6, .cls-7 {
        stroke-width: 0px;
      }

      .cls-2 {
        fill: #e5594f;
      }

      .cls-3 {
        fill: #4a5699;
      }

      .cls-4 {
        fill: #f0d043;
      }

      .cls-5 {
        fill: #ea8f8b;
      }

      .cls-6 {
        fill: #9090cf;
      }

      .cls-7 {
        fill: #c45fa0;
      }
    </style>
  </defs>
  <path class="cls-4" d="M348.39,171.15c28.35-3.26,34.63,38.45,5.75,42.81-29.95-.48-34.35-37.85-5.75-42.81Z"/>
  <path class="cls-4" d="M408.63,63.21c25.5-.68,30.47,39.63,1.44,43.96-28.27.48-34.28-39.49-1.44-43.96Z"/>
  <path class="cls-4" d="M26.39,512.88c24.35.06,34.68,36.63,2.36,44.8-27.83,2.36-35.37-39-2.36-44.8Z"/>
  <rect class="cls-4" x="507.53" y="130.62" width="335.53" height="335.53"/>
  <path class="cls-1" d="M61.98,207.48c8.43,1.43,39.42,22.04,48.39,27.76-4.14,7.88-24.29,48.89-29.7,50.75l-1.37-.9c-17.36-8.93-33.95-20.38-50.54-30.73,8.83-15.26,22.56-32.86,33.23-46.88Z"/>
  <path class="cls-3" d="M962.1,518.7c9.6-.04,44.27,10.82,49.17,17.39,3.68,4.92-10.06,48.19-18.42,54.06-7.67.33-46.34-12.65-49.36-19.04-2.41-5.09,6.58-48.69,18.61-52.42Z"/>
  <path class="cls-2" d="M61.98,633.37c16.74-2.25,27.01,44.14,26.63,50.55-3.63,6.36-36.87,16-46.73,22-16.16-.83-24.95-41.39-25.61-52.84,6.74-9.54,34.46-15.78,45.72-19.71Z"/>
  <path class="cls-4" d="M79.3,359.24c.92,2.13-4.86,34.98-5.46,39.54,11.5,5.12,21.23,13.6,31.1,21.29-13.09,1.88-26.11,3.89-39.1,6.42-3.71,10.52-5.7,24.06-12.49,33.02-6.02-9.8-9.89-31.58-20.01-33.02-20.79-.02-46.57,7.22-25.46-11.32l18.52-16.38c-4.25-11.34-7.95-24.36-10.13-36.27,10.84,4.41,21.67,11.96,31.2,18.77,11.04-6.7,20.73-15.42,31.84-22.04Z"/>
  <path class="cls-4" d="M962.1,678.63c4.33,3.31,16.28,24.95,20.47,31.34,13.93-.41,27.57-3.72,41.43-4.06-8.74,10.48-18.79,20.07-26.93,31.03,6.47,10.4,11.09,22.76,15.51,34.17-9.85-3.93-19.92-7.29-30.01-10.54-10.04-2.79-25.89,17.2-33.47,24.33v-40.66c-10.99-6.06-22.36-12.05-32.74-19.09,12.54-4.2,25.68-4.07,38.04-9.62,2.76-12.48,3.43-24.66,7.7-36.9Z"/>
  <path class="cls-2" d="M196.16,59.63c1.9.98,32.37,34.11,37.28,39.14,10.01-6.88,34.69-18.1,46.43-22.75-7.14,15.8-14.88,31.55-21.27,47.66,9.94,5.96,30.05,24.26,39.75,33-16.26.1-32.35-.19-48.57-1.5-1.83-.13-3.45-.16-5.27.09-5.29,6.56-20.64,38.02-24.7,46.35-4.97-14.69-7.1-35.72-10.3-51.32-17.99-4.38-36.64-6.76-54.77-10.79,7.51-5.21,39.12-21.98,47.28-24.72-3.01-18.01-5.36-36.88-5.87-55.13Z"/>
  <path class="cls-3" d="M854.11,455.39l-.02,422.7c0,54.64,4.77,85.19-68.41,85.2l-143.87-.04c-18,0-36.29-.75-54.25.01l-.03-67.84c0-14.7-.74-29.8,1.14-44.39,9.52-73.74,56.87-134.33,102.45-189.77l58.78-70.77c5.69-6.93,11.34-13.91,17.2-20.69,18.29-21.12,40.41-34.71,26.45-64.67,14.27-10.12,25.6-16.39,39.23-28.46,7.46-6.61,13.52-15.19,21.3-21.27Z"/>
  <path class="cls-7" d="M656.44,836.42c19.48-1.7,40.64,6.33,55.42,18.78,38.91,32.75,14.03,40.63-13.29,68.98l-2.53.62c-5.67-1.44-13.74-20.7-17.18-26.44-17.01-28.38-33.29-36.38-58.38-53.57,11.63-4.74,23.45-7.41,35.96-8.38Z"/>
  <path class="cls-1" d="M760.16,731.16c63.78-6.26,79.38,71.46,32.12,93.61-21.86,10.24-47.71-8.4-68.57-15.93-27.16-9.65-53.92-12.88-82.59-12.48,25.97-35.97,75.21-61.94,119.04-65.2Z"/>
  <path class="cls-1" d="M442.99,281.4c2.49-15.32,4.29-30.72,8.25-45.76,30.78-116.92,145.82-188.64,264.35-169.09,166.1,27.39,244.96,224.02,156.76,362.96-5.65,8.91-12.7,16.99-18.25,25.88-7.79,6.08-13.84,14.66-21.3,21.27-13.64,12.07-24.96,18.34-39.23,28.46-33.25-37.94-65.59,3.29-85.55,30.51-11.76-1.71-29.16.81-42.34.26-136.77-5.69-229.04-120.31-222.69-254.49ZM659.71,137.34c-145.47,18.23-194.98,202.31-82.19,288.85,33.26,25.52,73.1,36.59,114.8,33.33,49.66-10.15,87.88-28.81,117.07-73.33,47.62-72.62,25.72-175.97-46.9-223.36-34.39-22.44-63.05-26.24-102.77-25.49Z"/>
  <path class="cls-5" d="M669.98,197.34c-11.37-7.24-11.16-44.24,4.28-44.31,16.97-.08,11.68,25.32,11.29,37.68-2.2,2.65-4.35,4.58-7.09,6.63h-8.48Z"/>
  <path class="cls-5" d="M746.64,368.31c2.42-.56,5.56-1.6,8.02-1.08,4.86,1.03,39.63,30.01,17.63,41.06-13.64,3.07-47.28-32.25-25.65-39.99Z"/>
  <path class="cls-5" d="M574.93,193.27c2.89-.2,5.8-.06,8.69,0,12.22,9.46,40.15,30.77,20.14,44.32-8.47,1.63-50.88-28.49-28.83-44.32Z"/>
  <path class="cls-5" d="M766.99,193.27c35.02-1.18,1.35,37.21-13.27,44.32-7.6,1.36-16.55-2.44-15.12-11.75,1.16-7.54,21.71-27.87,28.39-32.57Z"/>
  <path class="cls-5" d="M599.23,362.51c33.84-1.31-2.06,39.84-15.61,45.78-8.36-.1-17.07-7.83-13.98-16.85,2.14-6.22,23.52-25.91,29.59-28.94Z"/>
  <path class="cls-5" d="M672.71,386.61c24.52-1.23,17.1,47.46,5.76,51.46-22.28-.64-18.73-27.84-15.03-43.62,2.83-3.94,4.81-5.89,9.27-7.84Z"/>
  <path class="cls-5" d="M539.65,285.09c6.85-.61,33.47-.86,38.56,1.55,10.18,4.83,6.59,20.39-3.28,23.29-11.14.18-53.12,6.33-43.61-17.42,1.61-4.02,4.49-5.79,8.32-7.42Z"/>
  <path class="cls-5" d="M800.57,285.09c16.88-1.11,34.39,6.22,17.76,23-8.02,3.16-18.76,1.85-27.35,1.84-14.73.38-33.23-6.91-17.93-21.29,5.98-5.63,19.69-3.55,27.52-3.55Z"/>
  <path class="cls-3" d="M678.47,197.34c16.57,4.66,7.42,58.67,8.65,76.75,13.31,7.45,15.85,20.12,11.47,34l21.82,23.23c5.5,5.77,11.92,11.66,16.3,18.34,5.82,8.89-2.84,18.43-12.28,17.3-5.22-.62-36.89-38.73-42.93-45.43-.41-.46-.21-.5-.48-.41-36.57,1.98-39.73-35.78-17.57-47.02l-.04-43.44c-.02-8.87-3.69-29.03,6.58-33.31h8.48Z"/>
  <path class="cls-3" d="M410.06,963.27c-17.43-.42-34.98,0-52.42,0l-103.42-.02c-46.36-.01-110.18,10.43-110.88-57.87-.44-43.12.03-86.3.03-129.43l-.04-421.82c-.03-31.28,5.57-64.27,43.53-71.52,10.58-2.02,22.23-1.24,32.99-1.24l223.15.02c-6.36,134.19,85.92,248.8,222.69,254.49,13.19.55,30.58-1.97,42.34-.26,19.96-27.22,52.29-68.45,85.55-30.51,13.96,29.96-8.17,43.55-26.45,64.67-5.87,6.78-11.51,13.76-17.2,20.69l-58.78,70.77c-45.58,55.44-92.94,116.03-102.45,189.77-1.88,14.59-1.15,29.69-1.14,44.39l.03,67.84c-56.97,1.73-120.48,1.18-177.51,0Z"/>
  <path class="cls-6" d="M312.52,778.88c22.75-.35,41.77,3.76,62.43,13.28-30.34,21.44-44.42,27.82-68.86,58.12-13.71,16.99-19.01,33.38-40.64,42.47-71.39,21.21-104.28-111.57,47.08-113.87Z"/>
  <path class="cls-2" d="M331.74,368.31c21.73-2.32,41.35,10.29,51.5,29.19,28.11,52.34,14.23,140.21-2.82,196.93-4.28-6.09-6.9-12.71-9.67-19.56-9.69-24.09-22.63-47.95-37.04-69.53-22.67-33.95-71.14-68.29-41.64-113.25,9.06-13.81,24.02-20.52,39.68-23.79Z"/>
  <path class="cls-4" d="M492.22,523.8c100.07-8.6,127.1,153.02,11.43,165.8-109.01,3.7-120.06-157.46-11.43-165.8Z"/>
  <path class="cls-4" d="M410.06,963.27c.08-92.62,1.73-159.45-57.52-240.56-13.6-18.61-29.53-35.87-44.4-53.5l-86.25-102.7c-10.72-12.62-26.39-26.88-25.58-44.92,1.24-27.52,31.14-43.02,54.93-29.58,11.25,6.36,24.35,24.94,33.48,34.99l72.03,80.28c19.58,22.17,60.09,70.3,84.33,86.4,33.49,22.24,79.45,22.36,113.44,1.18,24.95-15.54,92.99-95.04,116.68-120.47,12-12.88,23.55-27.3,36.83-38.77,19.96-27.22,52.29-68.45,85.55-30.51,13.96,29.96-8.17,43.55-26.45,64.67-5.87,6.78-11.51,13.76-17.2,20.69l-58.78,70.77c-45.58,55.44-92.94,116.03-102.45,189.77-1.88,14.59-1.15,29.69-1.14,44.39l.03,67.84c-56.97,1.73-120.48,1.18-177.51,0Z"/>
</svg>