<?xml version="1.0" encoding="UTF-8"?>
<svg id="_20" data-name="20" xmlns="http://www.w3.org/2000/svg" viewBox="0 0 1024 1024">
  <defs>
    <style>
      .cls-1 {
        fill: #f39a2b;
      }

      .cls-1, .cls-2, .cls-3, .cls-4 {
        stroke-width: 0px;
      }

      .cls-2 {
        fill: #4a5699;
      }

      .cls-3 {
        fill: #f0d043;
      }

      .cls-4 {
        fill: #c45fa0;
      }
    </style>
  </defs>
  <g>
    <path class="cls-1" d="M909.62,54.54c-6.08-68.47,83.74-66.85,86.56-12.08,1.29,25.19-15.93,36.62-36.62,44.8-24.32-.46-40.91-8.42-49.93-32.72Z"/>
    <path class="cls-1" d="M67.38,87.26c-35.52-2.06-51.81-49.34-26.19-74.06,30.85-29.78,74.54-6.26,73.16,41.34-10.15,22.87-22.84,31.39-46.97,32.72Z"/>
    <path class="cls-2" d="M114.35,54.54c26.83,37.3,79.53,95.76,99.73,133.3-8.07,5.93-40.02,32.2-46.42,34.52-31.38-45.12-67.52-90.24-100.27-135.1,24.12-1.33,36.82-9.85,46.97-32.72Z"/>
    <path class="cls-2" d="M909.62,54.54c9.03,24.3,25.61,32.26,49.93,32.72-30.36,44.59-65.91,91.21-98.38,135.1-15.17-13.54-33.17-26.44-49.82-38.22,7.76-14.21,20.3-26.87,30-39.85l34.88-46.98c10.79-14.67,21.2-29.19,33.39-42.77Z"/>
    <path class="cls-4" d="M807.42,723.87c6.3,8.33,13.88,16.9,19.22,25.8,25.75,33.57,51.64,66.93,76.8,100.96,10.34,13.99,28.04,28.18,25.4,47.29-2.7,19.58-37.14,37.08-52.25,47.77-49.53,35.03-49.53,35.53-87.24-11.39l-38.26-47.01c-7.85-9.37-15.48-18.99-22.66-28.87,42.95-55.99,53.63-71.23,79-134.55Z"/>
    <path class="cls-4" d="M203.2,742.46c5.84-5.72,10.97-12.3,16.17-18.59,12.06,34.9,25.18,67.23,46.06,97.86,8.56,12.56,19.71,23.42,27.11,36.68-5.27,6.72-10.35,13.57-15.41,20.45-12.14,15.62-24.42,31.11-36.29,46.95-13.35,17.83-35.77,59.75-63.84,46.22-10.09-4.86-66.67-49.28-74.65-57.86-21.75-23.41.67-42.47,15.19-61l56.95-72.18c9.35-11.9,21-24.14,28.12-37.46l.57-1.07Z"/>
    <path class="cls-1" d="M292.55,50.5c22.07,36.17,45,89.84,63.4,128.55-20.33,14.9-41.04,29.62-60.88,45.17-8.74,4.35-23.4,16.9-31.85,23.11-25.59,18.82-60.31,42.71-83.84,63.59-9.63,9.74-55.14,43.35-65.02,48.26-5.59-12.02-15.57-22.67-23.55-33.23l-40.38-53.95c-8.13-10.81-17.05-21.44-24.29-32.83,26.81,6.7,70.91,10.55,94.46,19.74,13.46-12.96,35.34-23.99,47.08-36.55,6.4-2.32,38.35-28.59,46.42-34.52,12.46-7.3,57.31-39.53,60.56-51.9,7.38-28.05,10.28-57.4,17.91-85.44Z"/>
    <path class="cls-1" d="M668.52,179.05c4.68-19.52,36.17-77.65,46-97.36,5.64-11.31,10.6-23.67,17.35-34.34,10.08,30.48,15.16,62.59,24.83,91.96,3.46,10.5,12.5,14.46,21.03,20.61l33.62,24.22c16.65,11.78,34.65,24.68,49.82,38.22,15.96,8.79,30.06,21.73,44.01,33.38,28.82-4.89,65.56-9.37,92.7-16.57-23.94,36.87-60.87,83.72-88.26,120.02-21.82-13.06-40.51-34.43-64.03-48.26-23.89-23.24-89.16-68.35-117.16-86.7-19.96-14.91-41.31-28.56-59.91-45.17Z"/>
    <path class="cls-3" d="M295.06,224.22c12.85,15.72,23.91,33.45,35.99,49.83l30.04,40.45c4.74,6.46,9.88,12.9,14.11,19.68,13.42,3.68,24.29-6.57,34.52-13.49l71.74-48.25c9.62-6.43,19.69-14.46,30.13-19.39,29.05,13.83,74.32,50.15,103.72,68.76,11.75,7.44,19.21,16.53,34.7,12.36l1.17-2.19c16.47-31.46,55.8-76.47,77.24-107.77,28.01,18.36,93.27,63.47,117.16,86.7-5.37,7.34-11.77,23.96-22.18,23.26l.02,266.2c-.02,51.86-4.82,73.04-16,123.5-25.37,63.31-36.06,78.56-79,134.55-14.28,12.35-26.42,26.88-40.98,39.02-17.06,14.23-35.43,26.62-53.38,39.65l-82.05,59.25c-11.21,7.93-28.39,23.02-40.42,27.67-53.25-39.12-108.34-76.02-160.96-115.94-18.86-14.3-41.12-38.91-58.08-49.64-7.4-13.26-18.55-24.12-27.11-36.68-20.89-30.63-34-62.97-46.06-97.86.18-7.01-8.39-39.5-10.15-49.54-7.6-43.27-6.03-87.43-6.04-131.13l.04-175.02c0-7.73,2.09-19.5-1.75-26.53-7.77-9.89-14.32-20.78-22.11-30.74,23.53-20.89,58.25-44.77,83.84-63.59,8.45-6.21,23.11-18.76,31.85-23.11Z"/>
    <path class="cls-4" d="M295.06,224.22c12.85,15.72,23.91,33.45,35.99,49.83l30.04,40.45c4.74,6.46,9.88,12.9,14.11,19.68-25.27,2-162.93-3.15-172.89,1.85-.63,1.9-.73,3.65-.84,5.63-7.77-9.89-14.32-20.78-22.11-30.74,23.53-20.89,58.25-44.77,83.84-63.59,8.45-6.21,23.11-18.76,31.85-23.11Z"/>
    <path class="cls-4" d="M728.42,224.22c28.01,18.36,93.27,63.47,117.16,86.7-5.37,7.34-11.77,23.96-22.18,23.26-6.05-.45-12.35-.05-18.44-.04l-154.96.04,1.17-2.19c16.47-31.46,55.8-76.47,77.24-107.77Z"/>
    <path class="cls-2" d="M511.59,323.39c5.02,4.09,10.92,7.54,16.28,11.21l63.58,43.5c6.66,4.58,13.19,9.6,20.39,13.3h151.31l.03,208.89c.36,57.11-7.37,99.03-35.1,150.81-36.06,67.33-67.54,91.74-127.75,135.88l-83.82,61.74c-1.61.89-3.26,1.67-4.92,2.46-10.66-9.33-22.79-17.27-34.23-25.61l-56.62-41.64c-23.37-16.86-47.49-33.2-68.01-53.58-64.08-63.67-88.21-149.43-88.18-237.11v-201.84s108.56,0,108.56,0c43.86.03,29.35,6.36,66.82-19.13,23.92-16.28,47.55-32.9,71.67-48.89Z"/>
    <path class="cls-2" d="M587.91,577.3c2.5-.11,5.07-.41,7.54,0,1,19.74,0,39.93,0,59.72-5.4-8.53-11.78-18.07-19.34-24.75h-3.73l-.58-1.95c1.29-6.49,5.38-11.62,8.72-17.17h7.39c-.19-5.31-.21-10.55,0-15.86Z"/>
    <path class="cls-2" d="M698.58,593.16c25,2.39,52.79,8.03,33.28,43.86-10.4,7.72-20.91,7.57-33.28,7.64v-51.51Z"/>
    <path class="cls-2" d="M414.98,593.16c9.95.08,20.21-.83,30.11,0,.52,11.56,11.58,15.69,15.33,25.13v21.84c-2.9.84-5.88,1.54-8.6,2.85-11.77,3.2-24.76,2.44-36.83,1.69v-16.3h30.11v-16.09h-30.11v-19.12Z"/>
  </g>
  <path class="cls-4" d="M340.52,426.66h114.29l59.43,103.29,57.83-103.29h113.14l-104.51,162.61,114.35,173.15h-116.58l-66.3-107.87-66.3,107.87h-115.89l115.82-174.98-105.28-160.78Z"/>
  <g>
    <path class="cls-3" d="M309.99,623.13h15.13l5.45,28.85,7.97-28.85h15.07l7.99,28.81,5.45-28.81h15.05l-11.36,51.54h-15.62l-9.04-32.45-9,32.45h-15.62l-11.47-51.54Z"/>
    <path class="cls-3" d="M387.27,623.13h42.68v11h-26.72v8.19h24.79v10.51h-24.79v10.16h27.49v11.67h-43.45v-51.54Z"/>
    <path class="cls-3" d="M439.26,623.13h42.68v11h-26.72v8.19h24.79v10.51h-24.79v10.16h27.49v11.67h-43.45v-51.54Z"/>
    <path class="cls-3" d="M491.36,623.13h15.93v19.48l16.68-19.48h21.18l-18.81,19.45,19.65,32.09h-19.61l-10.87-21.2-8.23,8.62v12.58h-15.93v-51.54Z"/>
    <path class="cls-3" d="M551.23,623.13h42.68v11h-26.72v8.19h24.79v10.51h-24.79v10.16h27.49v11.67h-43.45v-51.54Z"/>
    <path class="cls-3" d="M603.37,623.13h14.87l19.41,28.51v-28.51h15.01v51.54h-15.01l-19.3-28.3v28.3h-14.98v-51.54Z"/>
    <path class="cls-3" d="M663.45,623.13h23.66c4.66,0,8.43.63,11.3,1.9,2.87,1.27,5.24,3.08,7.12,5.45,1.87,2.37,3.23,5.12,4.08,8.26s1.27,6.47,1.27,9.98c0,5.51-.63,9.78-1.88,12.81-1.25,3.04-2.99,5.58-5.22,7.63-2.23,2.05-4.62,3.42-7.17,4.1-3.49.94-6.66,1.41-9.49,1.41h-23.66v-51.54ZM679.38,634.8v28.16h3.9c3.33,0,5.7-.37,7.1-1.11s2.51-2.03,3.3-3.87c.8-1.84,1.2-4.82,1.2-8.95,0-5.46-.89-9.2-2.67-11.21-1.78-2.02-4.73-3.02-8.86-3.02h-3.97Z"/>
  </g>
</svg>