<?xml version="1.0" encoding="UTF-8"?>
<svg id="_5" data-name="5" xmlns="http://www.w3.org/2000/svg" viewBox="0 0 1024 1024">
  <defs>
    <style>
      .cls-1 {
        fill: #c293c7;
      }

      .cls-1, .cls-2, .cls-3, .cls-4, .cls-5, .cls-6, .cls-7, .cls-8, .cls-9, .cls-10 {
        stroke-width: 0px;
      }

      .cls-2 {
        fill: #d11a35;
      }

      .cls-3 {
        fill: #402072;
      }

      .cls-4 {
        fill: #f88e94;
      }

      .cls-5 {
        fill: #f39a2b;
      }

      .cls-6 {
        fill: #e5594f;
      }

      .cls-7 {
        fill: #4a5699;
      }

      .cls-8 {
        fill: #f0d043;
      }

      .cls-9 {
        fill: #f4d283;
      }

      .cls-10 {
        fill: #c45fa0;
      }
    </style>
  </defs>
  <path class="cls-8" d="M113.8,602.81c21.97.38,23.66,27,4.16,32.79-21.56,2.33-26.59-27.76-4.16-32.79Z"/>
  <path class="cls-8" d="M31.61,686.29c19.44-1.21,25.45,29.26,3.03,32.8-22.79.35-25.58-28.4-3.03-32.8Z"/>
  <path class="cls-8" d="M901.95,400.97c23.46-2.33,29.49,26.63,8.96,33.66-21.78,3.86-30.04-24.55-8.96-33.66Z"/>
  <path class="cls-7" d="M966.07,624.03c35.48-3.4,42.57,39.38,13.55,48.13-31.04,9.63-44.92-37-13.55-48.13Z"/>
  <path class="cls-7" d="M40.66,501.17c31.88-2.99,40.68,41.16,6.55,50.41-33.33,2.23-39.81-46.03-6.55-50.41Z"/>
  <path class="cls-6" d="M847.6,872.66c12.4,1.17,40.85,13.56,40.07,29.56l-.61,1.08c-6.93.82-14.27.45-21.26.46l-63.82.05c-4.74.02-9.71.4-14.43-.05,6.31-19.16,23.13-25.61,41.09-31.1,6.23.03,12.75.44,18.94,0Z"/>
  <path class="cls-8" d="M974.33,276.86c8.4,1.64,12.69,21.66,17.36,28.4,4.39,6.33,20.56,9.71,27.7,14.7,17.03,11.9-18.09,22.5-24.9,27.3-5.5,3.87-10.75,21.97-17.41,30.26-10.51,6.37-18.71-26.18-23.92-31.81-5.92-6.41-27.68-9.92-25.47-20.43,1.65-7.85,17.54-10.36,23.24-15.31,9.94-8.64,9.98-29.6,23.4-33.1Z"/>
  <path class="cls-10" d="M107.02,745.79c14.83.68,14.13,21.05,23.03,29.44,6.88,6.49,25.59,8.22,28.38,17.96,3.52,12.25-21.1,16.71-27.46,23.05-8.33,8.3-6.96,25.01-19.95,28.85-13.06,3.6-16.47-21.02-22.97-28.37-6.57-7.42-23.6-9.48-27.65-17.76-6.46-13.2,20.14-17.9,26.57-23.87,9.03-8.38,7.69-23.55,20.04-29.29Z"/>
  <path class="cls-4" d="M107.02,782.42c15.46-.18,19.17,21.34,4,26.16-20.6.29-22.31-22.5-4-26.16Z"/>
  <path class="cls-10" d="M935.45,478.21c12.1-.76,16.71,20.48,21.57,29.04l.48.83c7.78,4.98,43.79,16.18,25.02,29.51-7.53,5.35-18.93,6.93-25.3,13.54-7.63,7.92-6.71,24.02-17.49,29.27-13.48,1.91-20.85-21.21-22.9-31.2-54.93-19.2-26.43-24.72,0-41.12,4.73-8.46,10.16-25.59,18.62-29.87Z"/>
  <path class="cls-1" d="M935.45,515.93h6.14c12.15,7,13.51,24.17-1.86,26.57-18.7,1.16-21.14-21.7-4.28-26.57Z"/>
  <path class="cls-6" d="M666.91,180.88c-1.84-30.54,10.95-59.29,44.87-61.14,30.65-1.67,58.88,31.36,48.19,61.14-10.47,28.83-14.15,24-34.59,39.6-8.28,1.88-15.34,2.37-23.6,0,.17,5.89.49,11.81,0,17.69-.4-5.83-.05-11.85,0-17.69-23.22-12.15-23.64-17.15-34.87-39.6ZM692.1,173.31c14.45,0,29.42-1.07,43.78,0,2.83-3.52.9-9.42-.46-13.19-10.4-28.77-53.79-8.38-43.32,13.19Z"/>
  <path class="cls-8" d="M692.1,173.31c14.45,0,29.42-1.07,43.78,0-5.72,9.99-13.88,20.44-22.22,28.41-7.85-8.68-15.84-18.19-21.56-28.41Z"/>
  <path class="cls-6" d="M465.3,180.88c-8.88-34.1,20.87-67.97,56.76-60.24,26.92,5.79,41.9,34.39,36.17,60.24-8.92,24.83-14.55,28.37-35.79,39.6-7.69.95-15.34.32-23.05,0-17.87-8.6-30.89-18.23-34.09-39.6ZM489.6,173.31h43.48c8.67-36.69-54.84-35.96-43.48,0Z"/>
  <path class="cls-8" d="M489.6,173.31h43.48c-5.94,10.1-14.44,18.99-21.46,28.41-7.74-9.08-16.15-17.97-22.03-28.41Z"/>
  <path class="cls-8" d="M64.7,307.46c11.34-.12,20.86,28.66,28.77,37.3,7.15,7.82,39.92,23.21,39.61,31.61-5.86,9.38-28.44,17.22-37.47,26.34-11.38,11.48-15.67,28.7-27.59,39.51-9.13,1.18-22-30.91-29.21-38.6-7.27-7.75-38.05-21-38.82-30.11,3.38-6.82,30.87-19.82,39.13-27.89,10.16-9.91,16.46-30.74,25.56-38.18Z"/>
  <path class="cls-8" d="M261.75,180.88c-11.55-76.18,102.08-83.74,92.83,0h110.71c3.2,21.37,16.21,31,34.09,39.6,7.72.32,15.36.95,23.05,0,21.24-11.22,26.87-14.77,35.79-39.6h77.46c8.39.01,23.98,1.08,31.22,0,11.23,22.44,11.64,27.45,34.87,39.6-.05,5.85-.4,11.87,0,17.69.49-5.88.17-11.8,0-17.69,8.27,2.37,15.32,1.88,23.6,0,20.44-15.59,24.12-10.76,34.59-39.6l33.92-.03c53.8-.13,53.73,10.92,53.73,64.79l-.03,61.82H171.12c-.52-22.57.06-45.25.05-67.84-.02-42.66-4.15-58.74,48.46-58.78,8.13,0,35.57,1.69,42.11.04ZM261.75,180.88c5.01,19.48,17.21,31.98,35.22,39.6-.04,13.75-.27,27.54,0,41.29h24.38v-41.29c17.77-8.28,28.01-20.33,33.23-39.6,9.24-83.74-104.39-76.18-92.83,0Z"/>
  <path class="cls-7" d="M701.78,220.47c8.27,2.37,15.32,1.88,23.6,0,.01,13.7.54,27.61,0,41.29h-23.6v-23.59c.49-5.88.17-11.8,0-17.69Z"/>
  <path class="cls-7" d="M499.39,220.47c7.72.32,15.36.95,23.05,0v41.29h-23.05v-41.29Z"/>
  <path class="cls-6" d="M261.75,180.88c-11.55-76.18,102.08-83.74,92.83,0-5.22,19.26-15.46,31.32-33.23,39.6v41.29h-24.38c-.27-13.75-.04-27.54,0-41.29-18.01-7.61-30.21-20.11-35.22-39.6ZM286.5,173.31c14.66-.01,29.45-.46,44.09,0,7.85-18.44-19.02-33.39-35.1-24.27-6.92,3.92-13.42,16.63-8.99,24.27Z"/>
  <path class="cls-8" d="M286.5,173.31c14.66-.01,29.45-.46,44.09,0-6.17,10.01-14.57,18.62-21.16,28.41-8.09-8.85-16.84-18.07-22.94-28.41Z"/>
  <path class="cls-7" d="M296.97,220.47c8.89,1.8,15.47,1.64,24.38,0v41.29h-24.38c.57-4.48.09-9.48.07-14.02l-.07-27.27Z"/>
  <path class="cls-7" d="M171.12,307.46h676.47v345.1c0,14.07.51,28.33,0,42.38h34.52c16.01-.04,29.89-1.08,28.85,19.18l-.06,1.07c35.66.53,48.16,45.53,22.6,68.78-9.24,8.41-21.71,11.09-33.44,14.15-11.81,22.17-28.67,41.04-52.47,50.63v23.9c-6.2.44-12.71.03-18.94,0-17.96,5.49-34.79,11.94-41.09,31.1-15.14-.96-32.01-.03-47.39-.02l-489.85.02c-25.57.02-73.94,7.88-78.43-28.8-1.03-8.45-.78-17.28-.8-25.79l.03-541.71ZM764.36,723.54c-59.09-.54-48.89,59.13,1.22,80.22,30.6,12.88,28.89,33.82,63.08,45v23.9c6.23.03,12.75.44,18.94,0v-23.9c23.8-9.59,40.66-28.46,52.47-50.63,11.73-3.06,24.2-5.74,33.44-14.15,25.56-23.26,13.06-68.25-22.6-68.78l.06-1.07c1.05-20.27-12.84-19.22-28.85-19.19h-34.52s-44.64-.03-44.64-.03c-28.25,0-39.01-5.19-38.6,28.64ZM233.78,706.14v138.95h133.02v-138.95h-133.02ZM330.59,336.86h-96.81c-1.13,13.57.01,28.06,0,41.73v92.04s39.27,0,39.27,0h93.74v-133.77h-36.21Z"/>
  <path class="cls-6" d="M444.59,524.96h131.97v130.32h-131.97v-130.32Z"/>
  <path class="cls-8" d="M510.03,549.21l.65.46c2.79,9.62,6.81,19.08,10.36,28.43,10.76.11,21.52-.72,32.26,0-7.61,7.66-16.98,13.25-24.67,20.86,2.57,9.88,5.2,19.65,8.45,29.33l-27.05-17.08c-8.2,6.1-16.69,13.01-26.1,17.08,2.3-9.94,4.8-19.68,8.16-29.33-8.29-6.42-17.25-12.53-23.73-20.86h29.75c3.71-9.93,6.2-19.85,11.92-28.89Z"/>
  <path class="cls-6" d="M233.78,524.96h133.02v130.32h-133.02v-130.32Z"/>
  <path class="cls-8" d="M299.83,551.58c2.53,4.08,7.77,23.07,9.6,28.83,10.25-.18,20.6,1,30.83,1.71-6.85,7.59-15.31,13.87-22.93,20.7,3.16,9.84,6.23,19.23,6.97,29.62-4.11-2.69-21.98-16.47-24.47-17.52-8.42,6.14-17.67,12.46-26.77,17.52,2.14-10.07,3.91-19.89,7.44-29.62-8.44-6.57-17.1-12.91-24.47-20.7,10.72-.69,21.51-1.11,32.24-1.71,4-9.56,6.55-19.7,11.55-28.83Z"/>
  <path class="cls-8" d="M650.35,524.96h132.98v130.32c-14.54-.75-29.51-.02-44.09-.01h-88.89s0-130.31,0-130.31Z"/>
  <path class="cls-6" d="M713.67,549.21c8.09-4.81,23.16,2.16,29.44,7.21,29.08,23.41,13.3,69.21-22.29,72.96-54.93,4.66-60.44-79.47-7.15-80.17Z"/>
  <path class="cls-8" d="M444.59,336.86h131.97c-1.12,6.56.01,25.96.01,34.18,0,33.14.77,66.47-.01,99.59h-131.97v-133.77Z"/>
  <path class="cls-3" d="M537.07,363.93c6.65,5.47,12.92,11.61,19.28,17.43l-35.07,35.05c-7.81,7.82-15.94,15.42-23.18,23.78-5.08-4.13-9.71-8.64-14.18-13.42-6.61-5.34-12.63-11.29-18.63-17.28,6.67-5.64,12.7-11.96,18.63-18.36,5.05,4.97,10.03,9.97,15.46,14.54,11.23-15.11,26.71-26.61,37.68-41.74Z"/>
  <path class="cls-6" d="M650.35,336.86h132.98v133.77h-132.98v-133.77Z"/>
  <path class="cls-2" d="M752.45,363.93l.26.08c4.83,6.04,10.71,11.41,15.75,17.35-19.57,20.67-41.65,38.8-61.45,60.87-6.65-8.33-15.28-15.7-22.88-23.17-5.93-5.86-11.72-11.83-17.23-18.09l17.23-17.01c7.28,8.82,15.98,16.38,22.88,25.54,6.09-9.49,35.68-39.42,45.43-45.57Z"/>
  <path class="cls-6" d="M330.59,336.86h36.21v133.77h-133.02v-92.04c.01-13.67-1.13-28.16,0-41.73h96.81ZM324.3,363.93c-10.27.96-17.79,5.94-24.47,13.59-11.61-19.13-41.76-17.08-46.69,6.52-3.96,18.93,17.51,38.21,29.06,50.59,6.14,5.69,12.46,11.24,17.63,17.85,15.25-13.53,47.37-40.51,48.6-61.81.78-13.49-10.78-26.01-24.13-26.75Z"/>
  <path class="cls-6" d="M233.78,706.14h133.02v138.95h-133.02v-138.95ZM324.3,735.62c-12.15.86-17.46,5.62-24.47,14.54-22.96-33.97-88.55-2.24-19.33,58.42,6.32,5.87,13.19,11.19,19.33,17.22,19.09-16.8,68.79-54.06,42.08-82.66-4.86-5.2-10.72-7.07-17.61-7.52Z"/>
  <path class="cls-8" d="M444.59,706.14h131.97c1.04,45.34.69,93.57,0,138.95h-131.97v-138.95Z"/>
  <path class="cls-9" d="M510.03,738.2c4.07,2.59,10.22,20.29,12.42,25.53,9.99,2.44,20.67,2.58,30.85,4.57-8.06,5.15-16.72,11.18-22.1,19.22l5.88,28.31c-7.21-4.27-14.39-8.4-21.77-12.37-6.79-4.17-22.15,8.73-28.61,11.89l-1,.48c1.71-9.51,4.14-18.91,6.39-28.31-5.74-7.24-13.76-12.57-20.19-19.22,8.96-2.06,18.4-3.11,27.5-4.57,4.14-8.09,7.24-17.08,10.64-25.53Z"/>
  <path class="cls-5" d="M764.36,723.54c-.41-33.84,10.35-28.64,38.6-28.64l44.64.05h34.52c16.01-.04,29.89-1.08,28.85,19.18l-.06,1.07c35.66.53,48.16,45.53,22.6,68.78-9.24,8.41-21.71,11.09-33.44,14.15-11.81,22.17-28.67,41.04-52.47,50.63v23.9c-6.2.44-12.71.03-18.94,0v-23.9c-34.18-11.18-32.48-32.13-63.08-45-50.11-21.09-60.32-80.75-1.22-80.22ZM910.91,727.59c.1,19.04-2.24,36-4.74,54.83,5.82-1.43,10.7-2.96,15.75-6.27,16.65-15.33,16.09-46.39-11.02-48.56Z"/>
  <path class="cls-7" d="M752.45,738.2c3.96-.1,7.95,0,11.91,0,.54,18.65,4.06,36.47,9.49,54.27-3.34-1.42-6.38-3.08-9.49-4.94-19.83-11.49-42.52-42.98-11.91-49.33Z"/>
  <path class="cls-8" d="M838.46,732.23c3.55,3.48,10.88,21.56,13.53,27.25,10.59-.23,21.78.36,31.73,4.26-32.36,20.86-24.37,17.57-18.08,48.88-9.19-4.4-18.35-9.41-27.18-14.49-9.24,2.86-19.42,10.53-28.93,14.49,2.2-9.62,4.75-18.97,7.71-28.37-6.44-7.65-14.78-14.24-22.55-20.51,9.88-3.64,20.06-4.18,30.51-4.26,4.83-8.92,8.01-18.45,13.26-27.25Z"/>
</svg>