<?xml version="1.0" encoding="UTF-8"?>
<svg id="_8" data-name="8" xmlns="http://www.w3.org/2000/svg" viewBox="0 0 1024 1024">
  <defs>
    <style>
      .cls-1 {
        fill: #261d7b;
      }

      .cls-1, .cls-2, .cls-3, .cls-4, .cls-5, .cls-6, .cls-7, .cls-8, .cls-9 {
        stroke-width: 0px;
      }

      .cls-2 {
        fill: #f39a2b;
      }

      .cls-3 {
        fill: #fecc88;
      }

      .cls-4 {
        fill: #e5594f;
      }

      .cls-5 {
        fill: #4a5699;
      }

      .cls-6 {
        fill: #f0d043;
      }

      .cls-7 {
        fill: #823387;
      }

      .cls-8 {
        fill: #c45fa0;
      }

      .cls-9 {
        fill: #fefefe;
      }
    </style>
  </defs>
  <g>
    <path class="cls-4" d="M899.4,309.83c3.76,2.75,40.85,38.41,41.12,39.95-7.9,7.91-15.73,17.85-24.91,24.14-12.9-15.01-26.57-27.42-42.49-39.23,7.57-8.65,16.74-18.44,26.29-24.86Z"/>
    <path class="cls-6" d="M983.72,119.39l.39.07c2.89,3.11,8.28,23.35,10.13,28.84l-71.68,21.34c-2.48-10.48-6.1-20.28-10.1-30.24,12.62-5.99,57.14-16.91,71.27-20.01Z"/>
    <path class="cls-6" d="M880.25,40.51c5.72,2.34,27.8,7.31,30.38,10.94.56,6.24-19.62,57.87-22.86,67.95-10.58-4.03-21.78-6.71-32.14-11.18,2.89-13.46,18.63-56.76,24.62-67.7Z"/>
    <path class="cls-6" d="M784.94,51.5l.6-.1c2.64,1.06,32.91,59.7,36.35,65.69-9.5,5.85-19.75,10.77-29.62,15.98l-1.38.32c-2.08-1.25-30.3-58.5-37.02-67.69,10.9-3.91,20.86-8.82,31.07-14.2Z"/>
    <path class="cls-2" d="M60.12,527.8c6.48,4.16,4.56,31.14,23.29,41.74,7.17,4.06,30.47,8.73,32.27,10.94-2.88,3.8-26.31,6.14-36.96,16.3-11.45,10.93-14.7,34.28-18.59,37.01-4.46-9.23-5.27-19.53-10.81-28.56-14.42-23.5-38.76-17.18-45.48-24.43l.59-1.08c5.94-2.77,13.13-3.39,19.46-5.13,31.89-8.8,24.52-25.9,36.25-46.79Z"/>
    <path class="cls-2" d="M899.4,309.83c-6.06-8.31-27.24-25.43-25.77-35.43,1.54-10.49,38.72-45.42,46.05-49.89,18.39-11.22,44.83,26.46,56.91,38.73,11.73,11.92,49.55,40.86,42.78,58.57-3.48,9.12-35.92,43.28-45.27,47.4-13.87,6.11-24.97-10.99-33.59-19.43-.27-1.54-37.35-37.2-41.12-39.95Z"/>
    <path class="cls-8" d="M693.34,166.05l37.15-.02c70.97.07,96.57,33.58,96.61,102.58l-.03,41.21c-61.97-23.45-130.38-21.72-188.98,10.09-6.89-6.72-14.17-13.06-21.34-19.48,8.06-7.17,17.69-12.7,25.86-19.9,30.11-26.54,48.25-74.88,50.72-114.48Z"/>
    <path class="cls-7" d="M401.31,166.05h292.03c-2.47,39.6-20.61,87.94-50.72,114.48-8.18,7.21-17.81,12.73-25.86,19.9-2.36-2.42-4.32-5.12-6.33-7.83-9.41,15.51-34.5,32.09-45.27,47.88,6.06,7.65,12.24,14.84,19.74,21.11-42.06,37.52-55.72,83.58-63.95,136.12-14.67-.67-52.76,8.45-70.88,10.58,4.87-27.14,10.42-54.25,14.88-81.45-41.05,17.92-87.74,52.43-130.29,73.93-.73-8.29,4.02-30.69,4.94-41.08,2.19-24.58,4.71-115.53-2.92-139.78.8-29.25-1.39-59.11-5.27-88.09.24-19.6-8.07-45.36-10.26-65.78l51.94.03c9.36.04,18.89.54,28.22-.03Z"/>
    <path class="cls-2" d="M565.16,340.49c-13.76,10.36-24.01,26.94-41.99,30.4-41.21,7.92-70.38-42.34-47.28-75.46,5.74-8.23,45.47-46.97,53.6-52.32,36.36-23.97,74.95,9.69,80.95,49.5-9.41,15.51-34.5,32.09-45.27,47.88Z"/>
    <path class="cls-8" d="M139.41,680.12c.84-11.91.04-24.39.02-36.36l-.06-367.13c-.02-48.06,3.47-95.12,62.57-108.4,18.68-4.2,51.92-2.18,72.17-2.18h127.2c-9.33.58-18.87.08-28.22.04l-51.94-.03c2.19,20.42,10.5,46.18,10.26,65.78,3.88,28.98,6.07,58.84,5.27,88.09,7.63,24.25,5.11,115.19,2.92,139.78-.92,10.39-5.67,32.79-4.94,41.08-15.74,11.37-34.53,19.17-50.97,29.78,14.39-3.03,28.73-5.79,43.39-7.1-12.35,49.46-37.22,112.8-64.94,156.66h-122.73Z"/>
    <path class="cls-3" d="M269.35,231.84h62.06c3.88,28.98,6.07,58.84,5.27,88.09-2.83,69.57-30.66,106.89-102.86,106.95l-34.59-.03c-.37-23.31-.02-46.68,0-69.99,13.38.04,43.09,1.67,54.96-1.27,21.33-5.28,15.21-35.98,15.21-52.01l-.05-71.73Z"/>
    <path class="cls-5" d="M610.43,292.61c2.01,2.71,3.97,5.4,6.33,7.83,7.17,6.42,14.45,12.76,21.34,19.48,58.6-31.81,127-33.54,188.98-10.09,15.71,6.84,32.35,14.46,46.03,24.86,15.93,11.81,29.59,24.21,42.49,39.23,78.97,94.13,63.21,234.31-30.22,312.31-14.71,12.28-40.04,28.81-58.3,34.67-82.74,34.87-165.77,13.03-232.88-40.79-3.43-5.88-9.44-11.04-14.05-16.07-36.2-39.43-58.69-91.68-59.03-145.45-.03-4.54.5-9.06-.16-13.58.27-2.39.05-4.89,0-7.3,8.23-52.53,21.89-98.6,63.95-136.12-7.51-6.26-13.69-13.46-19.74-21.11,10.77-15.79,35.86-32.37,45.27-47.88Z"/>
    <path class="cls-4" d="M610.43,292.61c2.01,2.71,3.97,5.4,6.33,7.83,7.17,6.42,14.45,12.76,21.34,19.48-18.89,11.14-40.33,23.45-53.2,41.68-7.51-6.26-13.69-13.46-19.74-21.11,10.77-15.79,35.86-32.37,45.27-47.88Z"/>
    <path class="cls-9" d="M625.75,383.04c1.25-4.53,24.36-19.24,29.53-22.31,60.51-35.86,139.15-29.31,195.26,11.7,3.91,2.86,9.04,6.4,11.55,10.61-13.45,8.43-36.86,36.64-21.62,35.44,7.55-.6,28.13-20.12,28.24-29.63l.8-.18c23.07,18.83,40.7,54.53,48.02,82.89,1.3,5.03,6.65,29.85,5.02,30.64-8.67-.09-49.55-6.08-37.77,12.15,4.74,3.01,32.36,4,37.29-.12l.48-1.07.61-.9c-1.21,10.18-.72,20.45-2.13,30.72-16.63,121.24-158.07,191.04-265.65,127.35-96.96-57.4-122.98-187.66-44.79-273.74,1.81-1.99,6.66-7.62,9.28-7.74-1.13,5.59,20.1,29.35,27.83,28.72,17.62-1.43-12.76-35.16-21.95-34.53Z"/>
    <path class="cls-5" d="M575.74,505.02c6.42-.09,34.24-4.05,31.64,8.37-.7,3.34-2.79,4.69-5.52,6.36-51.12,4.48-28.49-14.22-26.12-14.73Z"/>
    <path class="cls-5" d="M742.54,337.69c19.28,2.2,8.71,38,4.19,40.44-14.6-1.29-13.31-33.87-4.19-40.44Z"/>
    <path class="cls-5" d="M743.91,649.4h.7c17.64-.23,9.67,36.27,4.8,40.17l-1.24.02c-12.87.12-13.69-33.47-4.25-40.2Z"/>
    <path class="cls-5" d="M844.51,604.91c1.36-.03,39.09,20.44,24.19,34.59-3.77-.34-41.26-21.05-24.19-34.59Z"/>
    <path class="cls-5" d="M642.02,607.56c24.85,1.6-9.87,30.39-16.27,34.39-4.12,1.06-7.6-1.4-7.14-5.97.78-7.8,17.17-23.57,23.41-28.42Z"/>
    <path class="cls-4" d="M737.26,386.9l1.04-.17c66.07-9.96,123.89,45.79,132.09,109.92,9.74,76.17-41.05,136.41-116.51,145.29-73.17,2.71-132.6-47.53-136.16-121.77-3.27-68.14,50.54-130.28,119.54-133.27Z"/>
    <path class="cls-1" d="M742.54,414.41c16.7-1.07,11.4,24.92,11.39,35.46l-.06,50.91c10.13,5.97,16.21,14.81,12.89,27.02,6.37,2.72,76.64,46.91,47.94,54.24-3.34.85-6.01-.99-8.69-2.7-17.38-12.49-33.54-26.35-52.14-37.13-29.66,10.53-45.01-26.93-18.67-41.44-.01-18.53-7.62-80,7.33-86.37Z"/>
    <path class="cls-6" d="M743.91,505.02c9.01.74,13.86,6.22,16.37,14.73-1.86,8.77-4.33,13.33-13.55,16.24-22.55-.41-22.16-24.08-2.82-30.97Z"/>
    <path class="cls-6" d="M334.66,500.78c42.55-21.51,89.24-56.01,130.29-73.93-4.46,27.2-10.01,54.31-14.88,81.45,18.13-2.13,56.21-11.24,70.88-10.58.05,2.4.27,4.91,0,7.3.67,4.52.13,9.04.16,13.58.34,53.77,22.82,106.02,59.03,145.45,4.62,5.03,10.62,10.19,14.05,16.07,67.11,53.82,150.15,75.66,232.88,40.79-1.01,14.13-.03,28.92-.02,43.13l.03,90.7c.01,19.87,1.48,41.38-3.35,60.78-16.72,67.21-74.48,68.02-128.2,67.97H139.66c-87.73-.03-104.36-38.52-104.36-119.7v-106.26c-.06-22.43-1.08-40.43,14.94-58.24,24.07-26.76,57.29-17.69,89.18-19.17h122.73c27.72-43.87,52.58-107.2,64.94-156.66-14.66,1.31-29,4.08-43.39,7.1,16.44-10.61,35.24-18.41,50.97-29.78Z"/>
    <path class="cls-7" d="M334.66,500.78c42.55-21.51,89.24-56.01,130.29-73.93-4.46,27.2-10.01,54.31-14.88,81.45,18.13-2.13,56.21-11.24,70.88-10.58.05,2.4.27,4.91,0,7.3.67,4.52.13,9.04.16,13.58.34,53.77,22.82,106.02,59.03,145.45,4.62,5.03,10.62,10.19,14.05,16.07-11.82.57-23.89.05-35.73.02l-296.32-.02c27.72-43.87,52.58-107.2,64.94-156.66-14.66,1.31-29,4.08-43.39,7.1,16.44-10.61,35.24-18.41,50.97-29.78Z"/>
    <path class="cls-6" d="M334.66,500.78c42.55-21.51,89.24-56.01,130.29-73.93-4.46,27.2-10.01,54.31-14.88,81.45,18.13-2.13,56.21-11.24,70.88-10.58.05,2.4.27,4.91,0,7.3-33.7,29.4-91.79,69.73-119.64,99.9v-91.76c-24.7,4.01-49.38,7.36-74.23,10.3-14.66,1.31-29,4.08-43.39,7.1,16.44-10.61,35.24-18.41,50.97-29.78Z"/>
  </g>
  <g>
    <path class="cls-4" d="M129.54,798.6h27.75v48.69c0,10.22-.91,18-2.72,23.34s-5.46,9.86-10.94,13.56c-5.48,3.71-12.5,5.56-21.06,5.56-9.05,0-16.06-1.22-21.03-3.67s-8.81-6.02-11.52-10.73c-2.71-4.71-4.31-10.53-4.8-17.45l26.47-3.61c.04,3.95.39,6.89,1.04,8.8.65,1.92,1.75,3.46,3.3,4.65,1.06.77,2.57,1.16,4.52,1.16,3.1,0,5.37-1.15,6.82-3.45,1.45-2.3,2.17-6.18,2.17-11.63v-55.22Z"/>
    <path class="cls-4" d="M239.27,888.22h-23.23v-10.51c-3.46,4.32-6.96,7.4-10.48,9.23-3.53,1.83-7.86,2.75-12.99,2.75-6.85,0-12.22-2.05-16.11-6.14-3.89-4.1-5.84-10.4-5.84-18.92v-41.33h25v35.7c0,4.08.75,6.97,2.26,8.68s3.63,2.57,6.36,2.57c2.97,0,5.41-1.14,7.31-3.42,1.89-2.28,2.84-6.38,2.84-12.29v-31.24h24.88v64.92Z"/>
    <path class="cls-4" d="M249.97,870.19l24.7-2.32c1.02,2.93,2.45,5.03,4.28,6.3,1.83,1.26,4.28,1.89,7.34,1.89,3.34,0,5.93-.71,7.76-2.14,1.43-1.06,2.14-2.38,2.14-3.97,0-1.79-.94-3.17-2.81-4.15-1.34-.69-4.91-1.54-10.7-2.56-8.64-1.51-14.64-2.9-18-4.18s-6.2-3.45-8.5-6.5c-2.3-3.05-3.45-6.54-3.45-10.44,0-4.28,1.24-7.96,3.73-11.05,2.49-3.09,5.91-5.41,10.27-6.93,4.36-1.53,10.21-2.29,17.55-2.29,7.74,0,13.46.59,17.15,1.77,3.69,1.18,6.76,3.02,9.23,5.5,2.46,2.49,4.51,5.85,6.14,10.09l-23.6,2.32c-.61-2.08-1.63-3.61-3.06-4.58-1.96-1.3-4.32-1.96-7.09-1.96s-4.86.5-6.14,1.5c-1.28,1-1.93,2.21-1.93,3.63,0,1.59.82,2.79,2.45,3.6s5.18,1.55,10.64,2.2c8.27.94,14.43,2.24,18.46,3.91,4.04,1.67,7.12,4.05,9.26,7.15,2.14,3.09,3.21,6.49,3.21,10.2s-1.13,7.39-3.39,10.93c-2.26,3.54-5.83,6.36-10.7,8.46-4.87,2.1-11.5,3.14-19.9,3.14-11.86,0-20.31-1.69-25.34-5.07-5.03-3.38-8.26-8.19-9.69-14.43Z"/>
    <path class="cls-4" d="M360.87,798.6v24.7h13.69v18.22h-13.69v23c0,2.77.26,4.6.79,5.49.81,1.38,2.24,2.07,4.28,2.07,1.83,0,4.4-.53,7.7-1.59l1.83,17.18c-6.15,1.34-11.9,2.02-17.24,2.02-6.2,0-10.76-.79-13.69-2.38-2.93-1.59-5.1-4-6.51-7.23-1.41-3.24-2.11-8.48-2.11-15.72v-22.83h-9.17v-18.22h9.17v-11.92l24.94-12.78Z"/>
    <path class="cls-4" d="M430.19,798.6h41.14c8.11,0,14.66,1.1,19.65,3.3,4.99,2.2,9.12,5.36,12.38,9.48,3.26,4.12,5.62,8.91,7.09,14.37,1.47,5.46,2.2,11.25,2.2,17.36,0,9.58-1.09,17-3.27,22.28-2.18,5.28-5.21,9.7-9.08,13.27-3.87,3.57-8.03,5.94-12.47,7.12-6.07,1.63-11.58,2.45-16.51,2.45h-41.14v-89.62ZM457.89,818.9v48.97h6.79c5.79,0,9.9-.64,12.35-1.93s4.36-3.52,5.75-6.72c1.39-3.2,2.08-8.38,2.08-15.56,0-9.5-1.55-16-4.65-19.5-3.1-3.5-8.23-5.26-15.41-5.26h-6.91Z"/>
    <path class="cls-4" d="M522.51,855.95c0-9.9,3.34-18.07,10.03-24.48,6.68-6.42,15.71-9.63,27.08-9.63,13,0,22.82,3.77,29.47,11.31,5.34,6.07,8.01,13.55,8.01,22.44,0,9.99-3.31,18.17-9.93,24.54-6.62,6.38-15.78,9.57-27.48,9.57-10.43,0-18.87-2.65-25.31-7.95-7.91-6.56-11.86-15.16-11.86-25.8ZM547.45,855.88c0,5.79,1.17,10.07,3.51,12.84,2.34,2.77,5.29,4.16,8.83,4.16s6.53-1.37,8.83-4.1c2.3-2.73,3.45-7.11,3.45-13.14,0-5.62-1.16-9.81-3.48-12.56s-5.2-4.13-8.62-4.13c-3.63,0-6.62,1.4-8.99,4.19-2.36,2.79-3.55,7.04-3.55,12.75Z"/>
    <path class="cls-4" d="M653.58,798.6h27.75v89.62h-27.75v-89.62Z"/>
    <path class="cls-4" d="M729.56,798.6v24.7h13.69v18.22h-13.69v23c0,2.77.26,4.6.79,5.49.81,1.38,2.24,2.07,4.28,2.07,1.83,0,4.4-.53,7.7-1.59l1.83,17.18c-6.15,1.34-11.9,2.02-17.24,2.02-6.2,0-10.76-.79-13.69-2.38-2.93-1.59-5.1-4-6.51-7.23-1.41-3.24-2.11-8.48-2.11-15.72v-22.83h-9.17v-18.22h9.17v-11.92l24.94-12.78Z"/>
    <path class="cls-4" d="M755.18,798.6h26.59v20.42l-5.14,41.02h-16.44l-5.01-41.02v-20.42ZM756.1,866.28h24.82v21.95h-24.82v-21.95Z"/>
  </g>
</svg>