<?xml version="1.0" encoding="UTF-8"?>
<svg id="_11" data-name="11" xmlns="http://www.w3.org/2000/svg" viewBox="0 0 1024 1024">
  <defs>
    <style>
      .cls-1 {
        fill: #f39a2b;
      }

      .cls-1, .cls-2, .cls-3, .cls-4, .cls-5, .cls-6, .cls-7 {
        stroke-width: 0px;
      }

      .cls-2 {
        fill: #e5594f;
      }

      .cls-3 {
        fill: #4a5699;
      }

      .cls-4 {
        fill: #f0d043;
      }

      .cls-5 {
        fill: #df2d1d;
      }

      .cls-6 {
        fill: #dca8bc;
      }

      .cls-7 {
        fill: #c45fa0;
      }
    </style>
  </defs>
  <path class="cls-5" d="M821.35,106.39l33.7-.07c78.67-.11,74.12,44.16,74.11,107.32l-.03,109.41c-19.4-1.93-64.26-1.2-83.8,0l-1.28-.64c.51-3.71,16.93-24.43,19.43-34.49,5.67-22.8,3.45-52.71,3.43-76.41-.02-33.79,3.5-68.76-26.8-90.89-6.17-4.51-14.75-7.35-18.76-14.23Z"/>
  <path class="cls-1" d="M596.9,586.38c89.74-98.42,226.95-103.79,332.24-28.51,112.78,95.48,125.28,250.96,29.91,363.73-94.75,112.04-268.06,106.89-363.77-1.88-5.71-6.49-10.92-13.57-16.95-19.75-12.88-25.87-38.95-58.2-37.29-87.83-12.54-29.07-11.48-77.25-4.22-107.01,5.51-17.44,8.95-33.92,15.56-51.49,15.19-25.39,23.34-45.16,44.53-67.26Z"/>
  <path class="cls-4" d="M929.13,689.43c3.95,3.04,5.6,10.52,6.92,15.09,53.39,184.54-184.52,295.03-291.33,148.42-83.32-114.36,8.93-289.96,156.49-264.73,30.27,5.17,75.17,24.74,93.38,51.7,29.32-6.9,52.07,23.35,34.54,49.52Z"/>
  <path class="cls-3" d="M894.59,639.92c29.32-6.9,52.07,23.35,34.54,49.52-33.6,39.21-75.31,77.56-111.52,115.28l-30.36,31.13c-38.15,38.71-42.52,34.93-79.82-1.91l-38.3-38.55c-10.15-10.14-24.63-21.97-31.99-34.01-14.86-24.28,16.46-59.24,45.5-40.69,15.34,9.8,52.65,49.86,65.85,64.28,17.96-19.83,37.19-38.56,55.81-57.77l48.03-48.7c12.19-12.24,27.09-30.58,42.27-38.58Z"/>
  <path class="cls-2" d="M728.43,106.39l-.04-28.46c.02-80.37,64.98-62.71,74.33-29.2,3.4,12.2,1.36,43.61,1.4,57.67h17.23c4.01,6.88,12.59,9.72,18.76,14.23,30.3,22.13,26.78,57.1,26.8,90.89.01,23.7,2.24,53.61-3.43,76.41-2.5,10.06-18.92,30.78-19.43,34.49l1.28.64h0c-30.68-1.03-61.78,0-92.48,0H1.14s-.02-109.27-.02-109.27c-.01-72.75-1.54-107.64,83.74-107.43l42.07.05c.54-16.2-2.36-42.57,1.53-57.38,7.45-28.36,43.4-35.83,63.12-15.7,12.8,13.07,11.5,28.47,11.37,45.29l-.14,27.79h124.98c-1.81-19.79-2.37-59.14,10.52-73.11,19.64-21.28,54.24-11.72,62.75,15.58,4.32,13.85,2.3,42.28,2.27,57.53h125.07c1.03-18.2-3.22-46.69,3.81-63.33,10.05-23.79,45.52-28.86,62.31-9.23,15.05,17.6,8.84,51.2,8.88,72.56h125.04ZM804.12,158.62c.2,44.6-37.57,67.92-63.93,38.35-11.81-13.26-8.7-21.41-11.76-35.46-18.85,22.79-2.73,58.86,23.65,67.05,43.33,13.46,73.96-31.51,52.05-69.94ZM327.78,158.62c-14.41,21.45-8.61,50.26,12.99,64.6,39.89,26.49,90.58-21.75,62.55-61.71,1.73,36.94-29.64,63.41-59.32,40.56-14.38-11.07-14.25-27.25-16.22-43.46ZM603.39,161.51c-.65,15.63.58,27.11-12.48,38.7-15.22,13.49-39.8,12.17-52.94-3.53-9.71-11.6-8.19-21.38-9.57-35.16-18.18,24.84-1.29,62.94,28.66,68.52,39.72,7.4,70.15-35.55,46.33-68.52ZM126.92,161.51c-21.67,34.37,10.98,78.15,50.81,67.76,28.12-7.34,42.88-43.82,25.07-67.76.42,69.86-72.64,55.31-75.48,12.54-.26-3.96.1-7.88-.32-11.85l-.08-.69Z"/>
  <path class="cls-4" d="M528.39,106.39c1.03-18.2-3.22-46.69,3.81-63.33,10.05-23.79,45.52-28.86,62.31-9.23,15.05,17.6,8.84,51.2,8.88,72.56l-.08,37.15c-.02,5.86-.53,12.17.08,17.97-.65,15.63.58,27.11-12.48,38.7-15.22,13.49-39.8,12.17-52.94-3.53-9.71-11.6-8.19-21.38-9.57-35.16.06-18.37.19-36.75,0-55.12Z"/>
  <path class="cls-4" d="M327.78,106.39c-1.81-19.79-2.37-59.14,10.52-73.11,19.64-21.28,54.24-11.72,62.75,15.58,4.32,13.85,2.3,42.28,2.27,57.53,0,18.16,1.51,37.1,0,55.12,1.73,36.94-29.64,63.41-59.32,40.56-14.38-11.07-14.25-27.25-16.22-43.46,1.4-14.54.71-37.44,0-52.23Z"/>
  <path class="cls-4" d="M728.43,106.39l-.04-28.46c.02-80.37,64.98-62.71,74.33-29.2,3.4,12.2,1.36,43.61,1.4,57.67-.04,17.36-.53,34.88,0,52.23.2,44.6-37.57,67.92-63.93,38.35-11.81-13.26-8.7-21.41-11.76-35.46.83-4.61.08-10.66.08-15.42l-.08-39.7Z"/>
  <path class="cls-4" d="M126.92,106.39c.54-16.2-2.36-42.57,1.53-57.38,7.45-28.36,43.4-35.83,63.12-15.7,12.8,13.07,11.5,28.47,11.37,45.29l-.14,27.79c-.05,18.37-.19,36.76,0,55.12.42,69.86-72.64,55.31-75.48,12.54-.26-3.96.1-7.88-.32-11.85l-.08-.69c-1.12-18.14-.03-36.91,0-55.12Z"/>
  <path class="cls-6" d="M845.33,323.05c19.54-1.2,64.4-1.93,83.8,0v234.82c-105.29-75.29-242.5-69.91-332.24,28.51-21.19,22.1-29.33,41.87-44.53,67.26-6.61,17.57-10.06,34.05-15.56,51.49-7.26,29.76-8.32,77.94,4.22,107.01-1.66,29.63,24.41,61.96,37.29,87.83H110.22c-.37.02-.75.03-1.13.03l-33.66.02c-79.84-.08-74.34-34.65-74.29-101.75v-475.22s751.7,0,751.7,0c30.71,0,61.81-1.02,92.48,0h0Z"/>
  <path class="cls-3" d="M487.29,637.35c-1.97-15-.07-32.29-.05-47.53.11-54.45,2.08-43.63,53.78-43.42,56.73.19,53.87-9.12,55.87,39.98-21.19,22.1-29.33,41.87-44.53,67.26-15.57,0-36.05,1.72-51.08.32-10.95-1.02-13.13-6.18-14-16.61Z"/>
  <path class="cls-3" d="M311.21,546.41c12.8-.61,77.82-1.23,86.1,1.59,18.14,6.17,9.87,91.51,7.42,97.34-2.05,4.91-6.01,6.37-10.54,8.31-8.17,1.02-78.64.53-84.94-1.41-16.39-5.08-9.96-91.04-7.48-97.32,1.75-4.44,5.22-6.69,9.44-8.5Z"/>
  <path class="cls-3" d="M314.51,384.46c10-.43,79.1-1.09,83.83,1.2,14.79,7.16,9.35,75.64,8.26,90.46-.65,8.83-3.58,13.42-12.42,16.19l-51.02.06c-11.61,0-28.61,2.69-38.8-4.44-8.13-5.69-5.21-79.14-3.63-90.41,1.11-7.86,6.13-11.62,13.77-13.07Z"/>
  <path class="cls-3" d="M503.06,384.46l50.74.03c55.41-.35,43.19,8.8,43.15,60.18-.01,17.39,7.32,46.29-15.36,47.64-28.09,0-56.54,1.02-84.59,0-16.16-9.83-9.72-29.94-9.72-47.82,0-20.68-9.12-57.57,15.78-60.04Z"/>
  <path class="cls-3" d="M122.37,546.41c15.29-.01,78.82-1.9,88.45,1.96,14.23,5.71,9.21,76.77,7.98,90-.72,7.74-5.41,12.56-12.61,15.28-15.39.77-31.16.04-46.6-.01-13.58-.05-45.7,6.01-50.43-11.41-3.08-11.34-1.36-41.8-1.35-54.65,0-15.39-5.37-36.83,14.56-41.16Z"/>
  <path class="cls-3" d="M123.87,705.13l49.45-.07c12.62,0,42.88-4.61,45.1,13.48,1.7,13.8,2.05,65.96-.02,79.59-1.41,9.28-6.42,12.92-15.62,14.01-12.93.02-80.29,1.91-87.46-2.32-12.76-7.53-7.53-41.63-7.55-54.14-.03-20.28-7.99-47.07,16.08-50.55Z"/>
  <path class="cls-3" d="M122.37,384.46c12.82-.56,78.76-1.22,87.75,1.93,15.59,5.46,9.76,73.87,8.72,88.46-.67,9.36-3.08,14.45-12.65,17.46-17.13.25-34.29-.02-51.42.06-58.65.26-46.77-2.75-46.83-56.62-.02-15.56-7.37-47.83,14.43-51.3Z"/>
  <path class="cls-7" d="M845.33,323.05c19.54-1.2,64.4-1.93,83.8,0v234.82c-105.29-75.29-242.5-69.91-332.24,28.51-2-49.09.86-39.78-55.87-39.98,11.93-1.03,18.33-13.79,27.1-21.02,24.87-20.48,82.35-69.17,109.74-84.33,6.1-52.26-18.43-57,45.47-56.6,12.03-1.34,31.12-.05,43.86,0l41.54-32.83c7.58-5.9,32.7-22.6,36.6-28.58h0Z"/>
  <path class="cls-3" d="M677.87,441.06c6.1-52.26-18.43-57,45.47-56.6,78.61,2.96,64.76-11.84,65.16,72.75.05,10.23,3.62,25.28-5.05,33.21-15.57,5.57-40.65,1.86-57.28,1.9-11.9.03-41.76,6.27-46.67-8.47-3.67-11.03-1.61-30.71-1.62-42.8Z"/>
  <path class="cls-7" d="M394.18,705.13c28.89-17.2,69.74-44.76,93.11-67.78.87,10.43,3.05,15.59,14,16.61,15.02,1.4,35.5-.32,51.08-.32-6.61,17.57-10.06,34.05-15.56,51.49-7.26,29.76-8.32,77.94,4.22,107.01-1.66,29.63,24.41,61.96,37.29,87.83H110.22c5.65-7.68,24.64-16.19,33.12-21.58,43.76-27.81,85.68-58.43,127.05-89.65,9.8-7.4,19.25-16.53,29.65-22.94-.02-50.02-12.52-60.82,39.4-60.74l54.75.06Z"/>
  <path class="cls-3" d="M496.99,812.14c-15.38-9.47-9.74-38.14-9.73-53.69.02-54.71-8.73-54.79,49.55-53.32-7.26,29.76-8.32,77.94,4.22,107.01h-44.03Z"/>
  <path class="cls-3" d="M300.04,765.81c-.02-50.02-12.52-60.82,39.4-60.74l54.75.06c4.98,1.99,8.83,4.39,11.06,9.49,2.01,4.59,9.26,88.65-7.06,95.84-6.49,2.86-75.36,2.19-86.97,1.68-16.33-12.51-10.86-28.09-11.17-46.33Z"/>
</svg>