<?xml version="1.0" encoding="UTF-8"?>
<svg id="_13" data-name="13" xmlns="http://www.w3.org/2000/svg" xmlns:xlink="http://www.w3.org/1999/xlink" viewBox="0 0 1024 1024">
  <defs>
    <style>
      .cls-1 {
        fill: #fe6b00;
      }

      .cls-1, .cls-2, .cls-3, .cls-4, .cls-5, .cls-6, .cls-7, .cls-8, .cls-9, .cls-10, .cls-11 {
        stroke-width: 0px;
      }

      .cls-2 {
        fill: #181b2f;
      }

      .cls-3 {
        fill: url(#linear-gradient);
      }

      .cls-4 {
        fill: #ffd2c5;
      }

      .cls-5 {
        fill: #242757;
      }

      .cls-6 {
        fill: #f39a2b;
      }

      .cls-7 {
        fill: #e5594f;
      }

      .cls-8 {
        fill: #4a5699;
      }

      .cls-9 {
        fill: #f2a6a8;
      }

      .cls-10 {
        fill: #f0d043;
      }

      .cls-11 {
        fill: #c45fa0;
      }
    </style>
    <linearGradient id="linear-gradient" x1="923.02" y1="908.01" x2="668.23" y2="635.63" gradientTransform="translate(-1259.48 2165.38) scale(2.08 -2.08)" gradientUnits="userSpaceOnUse">
      <stop offset="0" stop-color="#845f9f"/>
      <stop offset="1" stop-color="#9f75b7"/>
    </linearGradient>
  </defs>
  <path class="cls-4" d="M255.62,172.63c-3.51-45.99-28.03-53.45-33.59-71.9-3.02-10.03,9.97-17.81,20.19-8.04,18.97,18.15,33.74,54.06,35.08,79.94h-21.68Z"/>
  <path class="cls-11" d="M655.85,172.63c4.94-51.51-35.22-59.6-34.12-73.71.53-6.72,7.93-12.38,14.52-11.16,10.09,1.87,26.63,23.25,31.98,31.56,10.02,15.55,13.22,35.13,11.97,53.32-8.13.13-16.23.2-24.35,0Z"/>
  <path class="cls-7" d="M894.63,400.53c.28,4.54-10.77,35.65-12.96,42.5,8.26,7.91,19.37,20.38,25.88,29.78-19.63,14.19-38.37,29.92-56.45,46.01-.49.31-1.07.49-1.61.7-.74-2.97,20.22-47.8,22.85-53.35-7.08-7.74-13.89-15.66-21.24-23.15,5.05-6.98,36.53-37.92,43.54-42.5Z"/>
  <path class="cls-6" d="M974.76,507.88c6.75,2.01,41.8,26.72,49.24,32.43-14.16-.48-28.17.51-42.27,1.6-7.92,6.74-14.55,16.08-21.32,24.01-9.26-4.82-17.41-10.97-27.13-15.08-13.66,2.81-27.97,8.57-41.87,9.29,2.74-4.8,34.24-40.84,39.04-44.9,7.97,5.6,16.54,10.47,24.8,15.63,6.63-7.55,13.04-15.31,19.51-23Z"/>
  <path class="cls-11" d="M210.2,172.63c-14.71-16.94-43.58-17.16-42.87-31.25.41-8.16,7.71-12.23,15.34-11.49,38.34,3.73,43.14,30.58,61.62,42.74,2.28,11.46,6.52,22.74,9.48,34.1.23,6.22.05,12.32,0,18.54-5.27,15.58-18.84,11.74-25.33,0,.74-4.89.3-9.88,0-14.79-1.5-14.46-7.39-27.97-18.23-37.85Z"/>
  <path class="cls-10" d="M210.2,172.63c10.84,9.88,16.73,23.39,18.23,37.85.3,4.9.74,9.9,0,14.79,6.5,11.74,20.07,15.58,25.33,0,.05-6.22.23-12.32,0-18.54-2.96-11.35-7.2-22.63-9.48-34.1,3.74-.2,7.59,0,11.34,0h118.67c7.63,32.37,20.63,71.03,30.43,103.24,2.45,8.07,16.92,47.85,15.21,53.51-12.03-.72-24.54-.04-36.62-.02l-299.33.02v-156.75h84.26c13.93,0,28.07-.65,41.96,0ZM253.76,206.73c.23,6.22.05,12.32,0,18.54-5.27,15.58-18.84,11.74-25.33,0,.74-4.89.3-9.88,0-14.79-29.51,3.95-13.67,73.85,28.86,49.17,18.79-10.91,17.56-47.91-3.53-52.92Z"/>
  <path class="cls-6" d="M253.76,206.73c21.09,5.01,22.32,42.01,3.53,52.92-42.53,24.69-58.38-45.21-28.86-49.17.3,4.9.74,9.9,0,14.79,6.5,11.74,20.07,15.58,25.33,0,.05-6.22.23-12.32,0-18.54ZM228.43,225.27c-14.47,43.53,47.89,24.46,25.33,0-5.27,15.58-18.84,11.74-25.33,0Z"/>
  <path class="cls-6" d="M584.06,133.59c31.34,8.11,37.83,16.49,55.94,39.04h15.85c8.12.2,16.22.13,24.35,0h117.5v156.75h-377.77c1.71-5.66-12.76-45.44-15.21-53.51-9.8-32.21-22.8-70.87-30.43-103.24h233.18c-11.13-12.52-36.52-15.45-35.73-26.87.5-7.24,6.25-10.32,12.33-12.17ZM625.45,201.9c-35.54,19.67-5.5,76.1,28.98,55.48,20.11-12.03,17.44-47.64-4.91-55.48.49,6.02.51,12.87,2.26,18.66-5.54,13.86-19.07,12.91-26.32,1.8.66-6.62.5-13.81,0-20.45Z"/>
  <path class="cls-1" d="M625.45,201.9c.5,6.64.66,13.83,0,20.45,7.25,11.11,20.78,12.07,26.32-1.8-1.75-5.79-1.76-12.63-2.26-18.66,22.36,7.84,25.02,43.45,4.91,55.48-34.47,20.62-64.51-35.8-28.98-55.48ZM651.77,220.56c-5.54,13.86-19.07,12.91-26.32,1.8-12.6,24.34,21.47,41.03,31.76,10.49-1.53-4.26-3.44-8.24-5.44-12.28Z"/>
  <path class="cls-11" d="M584.06,133.59c31.34,8.11,37.83,16.49,55.94,39.04,4.27,9.66,7.8,18.77,9.51,29.27.49,6.02.51,12.87,2.26,18.66-5.54,13.86-19.07,12.91-26.32,1.8.66-6.62.5-13.81,0-20.45-5.42-10.8-9.13-20.69-17.98-29.27-11.13-12.52-36.52-15.45-35.73-26.87.5-7.24,6.25-10.32,12.33-12.17Z"/>
  <path class="cls-5" d="M797.69,574.98c.65,9.37-.06,18.99,0,28.4,56.35-13.39,113.4-3.27,157.55,34.68,11.5-3.88,26.17,4.46,19.51,17.21,5.81,7.56,11.99,14.87,17.01,23,43.34,70.12,23.55,165.01-41.84,214.48-5.8,4.39-12.46,9.05-19.49,11.18-8.91,6.85-37.67,44.85-48.71,28.37-3.8-5.67-2.87-9.44-.07-15.06-34.04,5.96-98.27-1.81-124.1-27.75-9.27,10.23-27.61,31.15-33.96,5.26,2.53-9.88,12.78-17.06,18.28-25.54-16.98-11.23-37.18-49.56-43.62-69.12-9.7.97-20.46.01-30.28,0l-108.54.02c-5.48.03-11.79.94-17.16-.02h0c51.77.94,104.14,0,155.98,0-28.53-84.68,18.13-166.78,99.42-196.72v-28.4Z"/>
  <path class="cls-6" d="M759.73,720.87c2.39,2.49,4.74,5.18,7.31,7.48-4.87.18-9.67.35-14.54,0l7.23-7.48Z"/>
  <path class="cls-10" d="M752.5,728.34c4.87.35,9.67.18,14.54,0,22.94,19.58-36.08,18.37-14.54,0Z"/>
  <path class="cls-6" d="M797.69,720.87c8.55,9.57,24.74,21.96-1.32,20.53-22.12-.82-6.51-11.34,1.32-20.53Z"/>
  <path class="cls-9" d="M757.56,889.49c3.2-5.43,7.38-10.69,10.95-15.91,27.2-39.76,25.88-38.42,76.62-39.45,5.14-.3,10.72,1.23,15.51,3.05,4.56,9.22,5.97,19.68,11.1,28.67,4.88,8.57,12.57,15.12,17.29,23.63,4.74,2.2,8.97,4.84,13.37,7.62-7.08,6.2-15.42,12.31-20.74,20.13-34.04,5.96-98.27-1.81-124.1-27.75Z"/>
  <path class="cls-2" d="M845.13,834.13c5.14-.3,10.72,1.23,15.51,3.05,4.56,9.22,5.97,19.68,11.1,28.67,4.88,8.57,12.57,15.12,17.29,23.63-5.2,18.85-43.16,28.3-50.84,25.07-5.26-2.21-9.63-9.29-6.77-14.82,4.35-8.41,20.75-11.32,29.22-13.87-12.35-17.34-15.35-30.82-15.51-51.73Z"/>
  <path class="cls-9" d="M974.76,655.27c5.81,7.56,11.99,14.87,17.01,23,43.34,70.12,23.55,165.01-41.84,214.48-5.8,4.39-12.46,9.05-19.49,11.18,7.39-18.79-8.33-19.8-17.57-32.01,13.61-29.21,24.04-30.9,20.4-64.96,39.92-15.29,51.71-62.25,28.14-97.15-6.3-9.32-24.11-27.22-18.62-39.68,5.44-12.36,21.26-10.42,31.97-14.85Z"/>
  <path class="cls-9" d="M797.69,574.98c.65,9.37-.06,18.99,0,28.4,56.35-13.39,113.4-3.27,157.55,34.68-21.34,5-38.97,22.47-33.24,45.79,6.43,26.18,33.42,37.82,31.38,68.42-1.19,17.87-12.56,32.31-29.73,37.92-31.84-29.77-71.91-34.11-113-27.35,13.41-19.68,16.03-28.66,13.46-51.75-.63-5.69-1.58-25.47-5.87-29.46-10.46-.58-26.03,20.8-40.06,20.56-15.28-.26-31.77-21.27-41.67-20.66-3.68,4.44-8.38,43.84-7.71,50.56,2.2,22.11,18.84,26.14,32.93,39.3,1.9,37.42,1.47,64.95-19.86,97.82-16.98-11.23-37.18-49.56-43.62-69.12-9.7.97-20.46.01-30.28,0l-108.54.02c-5.48.03-11.79.94-17.16-.02h0c51.77.94,104.14,0,155.98,0-28.53-84.68,18.13-166.78,99.42-196.72v-28.4Z"/>
  <path class="cls-3" d="M83.98,329.38l299.33-.02c12.08-.01,24.59-.7,36.62.02h377.77v273.99c-81.29,29.94-127.95,112.04-99.42,196.72-51.84,0-104.2.94-155.98,0h0c-21.04-.46-42.19-.01-63.24,0H83.98s0-470.7,0-470.7Z"/>
  <path class="cls-7" d="M219.72,404.14c8.23,7.08,17.03,13.52,24.56,21.38-11.36,4.56-23.1,8.95-34.08,14.37v70.4c29.48-10.84,57.54-25.78,86.72-37.48-.43,7.4-.06,14.86-.02,22.28l.03,36.84c.02,45.58.47,91.22,0,136.8-10.53-8.45-19.98-18.14-30.56-26.53-9.82,6.5-18.45,13.72-28.99,19.19-6.43-13.34-11.14-27.43-17.64-40.69-8.29,1.98-42.93,13.86-43.94,3.21-.99-10.48,1.82-27.97,2.34-39.1-7.35-2.89-40.01-10.99-41.86-15.44.79-6.25,18.36-26.14,22.8-33.97l.42-.74c-8.83-10.18-18.51-19.33-26.33-30.39,12.02-5.77,25.3-10.01,36.68-16.9-1.35-14.88-5.51-29.51-6.09-44.35,12.32.65,24.53,2.81,36.88,3.38,7.64-13.69,9.69-29.62,19.11-42.26Z"/>
  <path class="cls-10" d="M244.28,425.52c36.01-15.81,47.49-25.1,86.22-25.03l35.75.04v285.61c.01,11.53.42,23.22,0,34.73h-69.33v-52.13c.48-45.58.03-91.22,0-136.8l-.03-36.84c-.04-7.41-.4-14.87.02-22.28-29.19,11.7-57.25,26.65-86.72,37.48v-70.4c10.98-5.42,22.72-9.82,34.08-14.37Z"/>
  <path class="cls-8" d="M722.9,329.38h74.79v273.99c-81.29,29.94-127.95,112.04-99.42,196.72-51.84,0-104.2.94-155.98,0,6.72-5.77,25.1-15.11,33.49-20.36,80.36-50.29,135.39-131.11,144.73-226.65,2.89-29.53,2.38-59.21,2.39-88.84v-134.87Z"/>
  <path class="cls-10" d="M529.29,392.38c65.5-1.4,128.5,31.42,115.91,104.78-4.43,25.82-17.5,36.78-37.73,51.14,9.38,4.96,18.9,9.83,26.59,17.29,32.75,31.75,27.93,97.67-2.9,128.81-57.05,57.61-202.96,37.68-202.26-69.35h68.55c-.53,47.58,53.95,60.1,80.42,34.53,16.18-15.63,17.12-50.89,1.17-66.99-17.36-17.52-52-13.56-74.52-13.52.01-17.73-.68-35.68,0-53.39,18.06-.08,48.37,2.9,63.77-6.45,40.99-24.86-2.36-98.8-53.04-65.81-12.06,7.85-15.19,20.76-17.8,33.95-7.07-.62-14.39-.09-21.49-.05l-40.58.05c4.41-58.01,35.87-88.38,93.92-95Z"/>
  <path class="cls-7" d="M49.69,214.46l1.4.3c6.64,9.78,13.82,19.64,19.23,30.16,9.67-2.46,19.4-3.8,28.49-8.15,6.92,10.69,22.01,36.34,26.66,47.51-9.52-5.35-19.38-10.05-29.41-14.37-1.99.05-3.97.05-5.96,0-10.5,2.98-20.99,4.72-31.75,6.5-6.84-8.13-14.17-20.65-20.45-29.81-12.04-3.24-26.33-5.82-37.73-10.42l-.18-.68c5.96-4.89,40.19-17.02,49.69-21.05Z"/>
  <path class="cls-7" d="M47.56,607.24l1.69-.05c3.53,2.4,15.27,22.89,17.85,27.54,9.23-5.01,19.32-8.31,28.73-13.01,8.58,12.12,18.73,23.64,28.86,34.47-13.74.77-30.52-5.36-43.37,0-7.45,4.54-15.42,8.4-23.14,12.46-6.03-10.29-12.73-22.51-20.64-31.37-11.96-4.42-24.58-7.71-36.78-11.43,15.14-6.97,31.41-11.98,46.78-18.59Z"/>
</svg>