<?xml version="1.0" encoding="UTF-8"?>
<svg id="_15" data-name="15" xmlns="http://www.w3.org/2000/svg" viewBox="0 0 1024 1024">
  <defs>
    <style>
      .cls-1 {
        fill: #f39a2b;
      }

      .cls-1, .cls-2, .cls-3, .cls-4 {
        stroke-width: 0px;
      }

      .cls-2 {
        fill: #e5594f;
      }

      .cls-3 {
        fill: #4a5699;
      }

      .cls-4 {
        fill: #f0d043;
      }
    </style>
  </defs>
  <path class="cls-4" d="M356.46,50.39c1.19.84,10.86,24.12,13.41,28.25,11.09,18,66.03,50.73,28.56,74.61-10.2,5.33-20.45,4.87-29.15-3.59-9.23-8.98-3.36-23.91-6.43-35.23-4.37-16.13-24.85-45.17-6.38-64.04Z"/>
  <path class="cls-4" d="M675.71,51.9c6.8,2.4,8.31,13.72,9.13,19.71,3.68,26.61-13.1,35.76-16.21,56.74-1.45,9.77,5.07,18.52,1.39,28.28-4.97,13.2-20.36,17.17-32.65,12.33-43.24-19.17,14.6-66.07,24.56-81.19,7.59-11.53,9.88-22.9,13.78-35.87Z"/>
  <path class="cls-2" d="M975.36,686.47c15.69-9.26,31.43-16.42,48.64-22.33-33.72,29.02-58.51,59.08-62.09,106.19-.94,12.36,1.13,24.72-.86,37.07-4.89,30.31-44.77,60.88-68.43,81.63-.72-6.58,2.34-13.8,2.77-20.46.82-12.72-.86-32.7-.85-46.45.39-19.34.02-38.76,0-58.11,22.47-31.12,44.24-61.66,80.81-77.52Z"/>
  <path class="cls-4" d="M894.54,763.99c22.47-31.12,44.24-61.66,80.81-77.52-2.18,5.49-13.39,12.76-17.92,17.56-36.7,38.84-38.35,91.95-62.9,118.07.39-19.34.02-38.76,0-58.11Z"/>
  <path class="cls-2" d="M0,664.13c21.65,4.3,43.06,14.54,61.31,26.91,42.46,18.31,48.83,54.57,72.51,86.4v44.66c-.04,20.35-1.39,43.52,2.51,63.53-10.91-4.83-20.84-14.04-29.9-21.59-48.85-40.74-34.69-61.32-43.59-110.22-6.62-36.37-32.84-69.11-62.84-89.69Z"/>
  <path class="cls-4" d="M61.31,691.04c42.46,18.31,48.83,54.57,72.51,86.4v44.66c-31.75-33.24-27.92-82.01-59.27-116.25-4.5-4.92-9.72-9.05-13.24-14.81Z"/>
  <path class="cls-2" d="M532.73,56.51c7.33,17.53,13.52,35.38,19.49,53.4,18.85,28.04,21.82,68.81,8.08,99.85-13.21,14.17-2.5,51.68-25.82,72.41-12.41,11.03-38.08,16.76-51.93,5.68-24.32-24.43-16.89-50.59-8.98-78.08,46.34-68.08,49.1-63.03,59.16-153.25Z"/>
  <path class="cls-4" d="M552.21,109.91c18.85,28.04,21.82,68.81,8.08,99.85-13.21,14.17-2.5,51.68-25.82,72.41-12.41,11.03-38.08,16.76-51.93,5.68,42.5-23.54,26.41-40.45,39.06-74.98,13.72-37.45,32.15-40.77,30.62-87.72-.17-5.15-1.08-10.12-.01-15.23Z"/>
  <path class="cls-4" d="M8.67,345.07c18.17,9.19,66.87,34.44,80.59,46.47,20.28,17.78,25.16,46.96,44.55,65.42-.06,23.65,1,47.69,0,71.28-.35,30-.48,60.19,0,90.18-10.29-6.33-19.26-17.35-27.78-25.96-27.86-28.15-54.96-54.05-51.15-97.06,1.59-17.9,10.97-36.04,7.36-54.07-6.21-30.99-26.39-53.11-40.55-79.97l-.48-.93c-4.46-4.89-8.78-9.91-12.53-15.37Z"/>
  <path class="cls-2" d="M8.67,345.07c18.17,9.19,66.87,34.44,80.59,46.47,20.28,17.78,25.16,46.96,44.55,65.42-.06,23.65,1,47.69,0,71.28-57.84-40.6-40.69-78.19-72.35-124.1-5.58-8.09-32.12-40.43-40.26-43.7-4.46-4.89-8.78-9.91-12.53-15.37Z"/>
  <path class="cls-4" d="M894.54,455.23c33.24-55.12,61.35-88.8,126.67-110.17-4.92,4.97-9.95,9.84-14.24,15.37-11.69,27.26-32.75,43.42-40.46,78.14-4.79,21.55,1.9,31.45,5.1,51.63,8.05,50.82-21.71,70.41-53.54,102.13-6.95,6.92-17.02,20.94-23.52,26.08-.56-9.81-.04-19.94-.04-29.77l.04-60.41c1.49-22.01.29-50.71,0-73Z"/>
  <path class="cls-2" d="M894.54,455.23c33.24-55.12,61.35-88.8,126.67-110.17-4.92,4.97-9.95,9.84-14.24,15.37-19.71,8.15-50.24,52.14-58.35,71.68-19.84,47.81-4.77,55.21-54.07,96.12,1.49-22.01.29-50.71,0-73Z"/>
  <path class="cls-4" d="M882.04,84.35c14.53-10.24,29.32-23.07,43.57-32.45-25.19,46.33-52.47,92.75-67.25,143.76-3.55,12.23-4.48,24.64-7.49,36.83l-.14.64c-7.54,35.37-3.55,73.42-38.84,96.3-23.08,14.97-52.38,17.67-76.82,4.72-20.04-21.84-33.88-53.43-12.19-79.67,15.39-18.62,19.69-21.33,32.42-44.72,23.06-32.74,27.98-67.45,67.29-92.59,18.63-11.91,37.7-17.8,59.45-32.83Z"/>
  <path class="cls-1" d="M882.04,84.35c5.99,4.26-9.39,16.53-13.41,20.95-33.25,36.64-54.6,76.13-69.37,123.72-7.34,23.63-12.63,58.9-25.8,79.05-11.27,17.26-28.49,14.54-38.39,26.08-20.04-21.84-33.88-53.43-12.19-79.67,15.39-18.62,19.69-21.33,32.42-44.72,23.06-32.74,27.98-67.45,67.29-92.59,18.63-11.91,37.7-17.8,59.45-32.83Z"/>
  <path class="cls-4" d="M99.92,50.39c8.83,8.42,18.98,15.44,28.6,22.92,26.29,15.24,73.41,41.39,93.09,58.44,18.07,15.66,33.33,55.44,48.5,78.01,20.99,36.46,75.27,83.57,24.77,124.39-22.8,16.69-53.68,13.49-76.24-2.13-33.44-23.15-37.14-62.83-43.69-99.53,1.18-38.58-42.65-126.25-61.89-158.81-4.55-7.69-9.67-15.01-13.14-23.29Z"/>
  <path class="cls-1" d="M120.77,69.56c2.53,1.6,4.74,3.22,7.74,3.75,26.29,15.24,73.41,41.39,93.09,58.44,18.07,15.66,33.33,55.44,48.5,78.01,20.99,36.46,75.27,83.57,24.77,124.39-8.84-5.42-17.41-5.02-27.61-13-32.83-25.67-32.97-67.03-42.42-104.11-19.15-75.17-52.68-94.7-104.08-147.48Z"/>
  <path class="cls-3" d="M560.3,209.76c9.79-.6,19.51-.2,29.3-.09l165.7.09c-12.73,23.39-17.03,26.1-32.42,44.72-21.69,26.25-7.86,57.83,12.19,79.67,24.44,12.95,53.73,10.25,76.82-4.72,35.29-22.88,31.31-60.94,38.84-96.3l.14-.64c28.87,27.98,43.03,51.02,43.65,92.23.66,43.46-1.33,87.1.02,130.52.29,22.3,1.49,50.99,0,73l-.04,60.41c0,9.84-.52,19.96.04,29.77-.49,5.82-.1,11.87-.05,17.72l.05,127.84c.02,19.35.39,38.77,0,58.11-.01,13.76,1.67,33.73.85,46.45-.43,6.66-3.5,13.88-2.77,20.46-3.42,6.56-5.68,13.78-8.93,20.45-36.3,74.36-121.49,57.94-190.37,57.94l-427.43.02c-69.07.05-105.29-9.48-129.56-81.79-3.9-20.01-2.56-43.18-2.51-63.53v-203.68c-.48-29.99-.35-60.19,0-90.18,1-23.59-.06-47.63,0-71.28.83-11.89.03-24.37.03-36.34l-.02-75.17c-.04-39.27.63-90.45,41.13-112.97,6.55,36.7,10.26,76.39,43.69,99.53,22.56,15.62,53.44,18.82,76.24,2.13,50.5-40.83-3.79-87.93-24.77-124.39h203.47c-7.91,27.49-15.35,53.65,8.98,78.08,13.85,11.08,39.52,5.35,51.93-5.68,23.32-20.73,12.62-58.24,25.82-72.41ZM511.28,822.1c-14.93,7.24-12.6,17.57-12.14,32.15-11.49-.17-23.52-2.51-30.17,8.83-1.02,22.51,11.48,20.68,30.17,19.76-.1,11.48-2.46,23.94,8.99,30.5,2.97.03,5.98.16,8.95,0,14.09-4.5,10.23-18.66,11.07-30.5,7.45.4,19.69,1.93,25.72-3.3,5.98-5.18,5.87-16,.28-21.42-5.53-5.36-18.68-3.94-26-3.87.11-14.01,2.16-32.08-16.87-32.15ZM776.97,822.1c-7.6.97-11.84,3.41-15.84,9.76-.4,7.46.04,14.92,0,22.39-7.51-.07-19.66-1.74-25.43,3.93-5.46,5.36-5.02,15.73.38,20.97,5.61,5.44,17.75,3.1,25.05,3.69.39,14.4-1.08,27.37,15.84,30.5,16.25-2.7,14.44-17.55,13.06-30.5,13.36-.24,25.25,2.11,30.15-12.89-4.49-17.74-14.18-15.95-30.15-15.69,1.01-12.5,3.87-30.33-13.06-32.15ZM246.07,823.77c-15.55,4.61-14.69,16.49-13.6,30.48-7.67.41-18.14-.49-24.73,3.73-15.5,22.34,7.62,26.62,24.73,24.86-.18,11.26-2.37,33.4,15.66,30.5,16.41-2.51,13.25-17.57,13.02-30.5,13.61.19,26.57,2.79,30.8-12.89-1.64-7.23-3.24-10.85-9.02-15.69-7.27.12-14.52.52-21.77,0,.08-11.83,1.6-30.43-15.09-30.48Z"/>
  <path class="cls-4" d="M312.68,456.96c41.87-5.39,78.43,28,83.1,68.57,3.26,28.3-13.15,24.78-40.69,22.04-21.76-2.16-1.98-37-36.55-38.68-34.85-1.7-26.65,51.88-26.59,72.78,26.27-19.66,61.2-14.68,83.96,8.45,21.57,21.92,22.9,48.18,22.5,77.17-3.46,73.06-78.42,108.19-131.83,63.93-36.59-30.31-28.67-83.88-28.7-125.99l-.02-44.55c0-55.08,11.35-97.99,74.82-103.72Z"/>
  <path class="cls-3" d="M312.68,622.31c40.45-8.7,45.21,62.94,11.83,72.68-40.78,6.75-44.46-68.16-11.83-72.68Z"/>
  <path class="cls-4" d="M701.24,456.96c47.02-6.37,91.42,33.15,88.13,80.95-1.26,18.28-49.68,8.91-51.51,6.99-2.29-2.4-2.53-18.38-9.45-26.19-12.55-14.15-38.73-8.65-42.98,10.4-2.39,10.7-.94,40.03-.95,52.56,22.34-23.97,64.75-11.96,85,8.42,21.42,21.56,20.6,49.01,20.56,77.2-4.99,109.29-146.7,107.05-159.29,14.55-1.69-12.44-1.37-25.01-1.36-37.53v-85.66c-.02-53.68,11.11-93.62,71.86-101.7Z"/>
  <path class="cls-3" d="M704.42,622.31c41.3-3.71,40.96,62.78,10.91,72.68-38.74,8.09-44.42-62.54-10.91-72.68Z"/>
  <path class="cls-2" d="M511.28,456.96c22.94-6.47,58.61,17.22,70.49,36.09,5.36,8.52,22.07,46.01,8.42,53.02-7.3,3.74-38.39,1.9-46.55-.83-2.04-9.43-2.52-20.66-9.37-28.14-8.85-9.68-28.03-11.25-37.44-1.59-10.83,11.12-9.16,30.67-9.12,44.9l.04,24.61c25.44-21.14,61.93-21.69,85.79,2.52,20.97,21.28,21.05,51.92,21,79.76-2.88,79.25-89.07,109.56-138.23,61.43-32.19-31.51-23.54-101.8-23.56-145,0-20.61-2.09-49.35,2.89-69.09,8.66-34.31,40.6-57.32,75.64-57.67Z"/>
  <path class="cls-3" d="M508.12,619.79c45.79-4.26,40.72,70.2,13.01,75.21-43.87,7.65-44.79-67.57-13.01-75.21Z"/>
</svg>