<?xml version="1.0" encoding="UTF-8"?>
<svg id="_21" data-name="21" xmlns="http://www.w3.org/2000/svg" viewBox="0 0 1024 1024">
  <defs>
    <style>
      .cls-1 {
        fill: #f39a2b;
      }

      .cls-1, .cls-2, .cls-3, .cls-4, .cls-5, .cls-6 {
        stroke-width: 0px;
      }

      .cls-2 {
        fill: #e5594f;
      }

      .cls-3 {
        fill: #4a5699;
      }

      .cls-4 {
        fill: #f0d043;
      }

      .cls-5 {
        fill: #5591d9;
      }

      .cls-6 {
        fill: #c45fa0;
      }
    </style>
  </defs>
  <path class="cls-3" d="M619.76,15.2c5.51,17.27,15.18,38.26,18.73,55.49-18.72-3.16-106.54-18.67-121.81-25.67,27.96-9.63,74.54-23.83,103.08-29.82Z"/>
  <path class="cls-4" d="M491.68,907.76c10.16,2.37,64.18,24.57,74.26,30.88-9.39,4.84-21.66,7.26-31.86,10.14l-172.56,48.77c-15.69,4.48-31.27,10.09-47.18,13.7-7.04-24.32-18.97-67.59-22.85-92.61,66.75.55,134.33-11.68,200.19-10.89Z"/>
  <path class="cls-3" d="M188.86,782.92c11.22,3.94,22.16,8.86,33.17,13.36l226.31,91.72c12.73,5.16,32.74,11.68,43.35,19.76-65.86-.79-133.44,11.44-200.19,10.89-30.8,3.37-64.29,3.9-95.43,5.32.21-13.18-1.34-26.65-2.14-39.81l-2.87-53.28c-.91-15.97-2.17-31.96-2.2-47.96Z"/>
  <path class="cls-4" d="M927.61,594.67c4.05,8.53,6.76,17.86,9.72,26.81l61.28,184.69c-10.85,5.97-35.78,12.26-48.47,16.37-39.77,12.88-99.73,35.37-140.31,42.32,3-11.81,11.32-26.39,16.33-37.92l78.41-181.15c7.41-17.06,14.42-34.65,23.04-51.13Z"/>
  <path class="cls-3" d="M0,257.31c62.03-18.83,122.25-44.07,184.61-61.75-.06,18.55,9.41,220.14,9.6,220.54.97,2.06,4.58,1.53,6.47,1.49-2.18.13-4.14-.02-6.09,1.04-1.97,21.17,2.08,63.1,3.6,84.88.76,10.92,2.68,23.67.83,34.51-6.07,10.93-10.84,22.72-15.9,34.14l-28.03,63.71c-3.92,8.68-7.26,18.96-12.21,26.96-7.63-17.77-13.78-36.29-20.12-54.55L11.68,291.84c-4.03-11.41-8.48-22.86-11.68-34.54Z"/>
  <path class="cls-4" d="M351.73,11.68c12.43,3.95,25.31,6.03,38.06,8.64l70.15,13.7c18.22,3.52,38.4,9.93,56.74,11,15.27,7,103.09,22.51,121.81,25.67,5.3,3.26,96.65,21.15,109.7,23.98l72.88,15.98c18.95,4.28,37.87,9,57.02,12.3-12.66,57.34-23.39,115.1-35.87,172.48-14.11,56.58-25.97,120.36-37.21,177.63-15.99-4.69-32.9-7.7-49.23-11.17l-418.31-91.83c-21.7-4.61-43.73-8.5-65.15-14.29-4.86,19.23-8.38,38.79-13.06,58.07-19.54.49-39.03,2.94-58.57,3.76-1.89.04-5.5.57-6.47-1.49-.19-.41-9.67-201.99-9.6-220.54-2.21-24.98-4.67-51.46-3.3-76.47,22.44-4.05,46.12-4.85,68.84-7.04l45.23-3.95c11.4-1.04,22.98-2.67,34.43-2.6,3.15-10.07,4.78-20.69,7.18-30.97l14.74-62.84Z"/>
  <path class="cls-6" d="M357.22,215.22c31.46,7.98,63.79,13.42,95.59,19.95l156.97,32.07c-2.84,16.21-6.25,32.41-9.81,48.48-8.77-2.85-18.65-4.22-27.7-6.17l-224.67-46.86c2.28-15.89,6.48-31.71,9.61-47.48Z"/>
  <path class="cls-6" d="M378.67,119.09c9.19,1.17,18.51,3.48,27.63,5.26l173.92,34.98c29.17,5.96,58.26,12.63,87.54,18.02-3.66,16.11-5.65,32.63-9.45,48.65-10.5-3-21.52-4.8-32.23-6.97l-189.82-38.54c-22.7-4.61-46.17-8.2-68.35-14.76l10.77-46.66Z"/>
  <path class="cls-5" d="M181.31,119.09c22.44-4.05,46.12-4.85,68.84-7.04l45.23-3.95c11.4-1.04,22.98-2.67,34.43-2.6-6.81,20.74-10.54,43.2-15.29,64.53l-27.26,120.85c-4.84,21.47-8.64,43.84-14.94,64.89-4.86,19.23-8.38,38.79-13.06,58.07-19.54.49-39.03,2.94-58.57,3.76-1.89.04-5.5.57-6.47-1.49-.19-.41-9.67-201.99-9.6-220.54-2.21-24.98-4.67-51.46-3.3-76.47Z"/>
  <path class="cls-1" d="M842.22,295.43c18.9,8.64,38.04,15.68,57.41,23.13l66.02,26.12c19.4,7.52,39.3,14.54,58.36,22.87-8.91,21.64-18.63,42.97-27.91,64.46l-61.97,145.56c-2.22,5.34-3.87,12.14-6.51,17.09-8.62,16.47-15.63,34.06-23.04,51.13l-78.41,181.15c-5.01,11.53-13.33,26.11-16.33,37.92-16.96,35.03-31.29,71.65-47.01,107.28-20.48,46.44-8.13,46.97-47.94,29.84l-110.28-46.91c-12.77-5.33-25.56-12.09-38.66-16.44-10.07-6.31-64.1-28.51-74.26-30.88-10.61-8.08-30.62-14.61-43.35-19.76l-226.31-91.72c-11.01-4.5-21.95-9.42-33.17-13.36-26.72-12.2-56.89-22.21-84.46-33.1,11.32-28.68,29-58.38,38.5-86.97,4.95-8,8.29-18.29,12.21-26.96l28.03-63.71c5.06-11.43,9.83-23.22,15.9-34.14,1.85-10.84-.07-23.59-.83-34.51-1.52-21.79-5.57-63.71-3.6-84.88,1.95-1.06,3.9-.91,6.09-1.04,19.54-.81,39.03-3.26,58.57-3.76,4.69-19.28,8.2-38.84,13.06-58.07,21.42,5.79,43.45,9.68,65.15,14.29l418.31,91.83c16.33,3.47,33.24,6.48,49.23,11.17,11.24-57.28,23.11-121.05,37.21-177.63Z"/>
  <path class="cls-2" d="M200.68,417.59c19.54-.81,39.03-3.26,58.57-3.76-6.34,27.96-14,55.64-19.95,83.67,50.21,12.52,100.9,23.63,151.32,35.34l243.31,56.86c15.17,3.68,30.12,6.55,44.58,12.65-22.23.8-44.41,2.86-66.59,4.55l-352.59,26.32c-18.48,1.35-37.25,4.05-55.77,3.34.79-26.27-.74-72.77-4.54-98.55,1.85-10.84-.07-23.59-.83-34.51-1.52-21.79-5.57-63.71-3.6-84.88,1.95-1.06,3.9-.91,6.09-1.04Z"/>
  <path class="cls-6" d="M259.25,413.83c4.69-19.28,8.2-38.84,13.06-58.07,21.42,5.79,43.45,9.68,65.15,14.29l418.31,91.83c16.33,3.47,33.24,6.48,49.23,11.17-6.95,36.72-20.5,118.7-34.18,151.48-18.11-7.95-72.72-19.51-92.3-22.18-14.46-6.09-29.41-8.97-44.58-12.65l-243.31-56.86c-50.42-11.71-101.11-22.83-151.32-35.34,5.94-28.03,13.6-55.71,19.95-83.67Z"/>
</svg>