<?xml version="1.0" encoding="UTF-8"?>
<svg id="_22" data-name="22" xmlns="http://www.w3.org/2000/svg" viewBox="0 0 1024 1024">
  <defs>
    <style>
      .cls-1 {
        fill: #f38581;
      }

      .cls-1, .cls-2, .cls-3, .cls-4, .cls-5, .cls-6 {
        stroke-width: 0px;
      }

      .cls-2 {
        fill: #59abeb;
      }

      .cls-3 {
        fill: #f39a2b;
      }

      .cls-4 {
        fill: #e5594f;
      }

      .cls-5 {
        fill: #c10f01;
      }

      .cls-6 {
        fill: #86207e;
      }
    </style>
  </defs>
  <path class="cls-2" d="M722.55,640.9c7.65,10.32,12.77,22.58,19.89,33.34,29.67,44.83,48.54,46.19,88.91,66.88l1.2.62c7.25-.84,13.78-.77,21.01,0-6.61-67.42,87.45-104.59,119.37-40.7,16.44-.19,33.28.14,49.62,2.08-7.87,9.15-16.56,17.67-24.98,26.31-20.36,20.89-14.63,17.65-21.32,45.11-19.02,78.01-95.08,133.2-173.5,139.25-37.31,2.88-69.83-6.62-103.44-21.63,33.24-7.82,59.68-17.84,87.57-38.25-12.53-5.53-21.19-13.23-32.77-19.57-17.81-25.81-30.57-29.81-41.18-66.94,11.53,6.74,23.78,10.58,37.04,12.03-3.9-6.49-9.34-12.12-13.47-18.51-18.34-28.39-31.87-90.54-13.94-120.02Z"/>
  <path class="cls-3" d="M643.68,198.28c2.36-15.32,5.02-30.57,9.89-45.33,28.38-86,118.79-139.37,207.84-125.36,96.06,15.11,159.8,97.75,160.15,192.98.34,93.51-67.83,178.46-162.34,191.31-8.84,1.2-17.75,2.14-26.66,1.06-7.84-2.06-21.63-1.11-30.81-2.69-96.83-16.63-176.02-112.93-158.06-211.97Z"/>
  <path class="cls-5" d="M861.64,133.02c10.65.66,21.69.04,32.36,0-2.07,12.96-5.9,26-8.94,38.79,10.1.3,20.27.03,30.37,0v31.16h-36c-1.96,12-4.29,23.95-6.45,35.91h42.46c-.75,9.99-.04,20.51,0,30.55-16.67-.02-34.01,1.17-50.59,0-2.67,11.95-4.71,24.12-7.14,36.13h-32.56c2.21-12.09,4.89-24.1,7.41-36.13h-29.07c-2.78,12.01-5.31,24.08-7.89,36.13h-32.46c2.09-12.12,5.25-24.16,8.05-36.13-12.37-.41-24.83-.06-37.2,0v-30.55h43.26c2.1-11.99,4.89-23.94,7.18-35.91h-41.56v-31.16h48.8l7.59-38.79h33.3c-2.63,12.91-5.58,25.74-7.41,38.79h28.42c2.8-12.91,5.1-25.92,8.08-38.79Z"/>
  <path class="cls-3" d="M817.63,202.97h29.47c-2.82,11.89-5.15,23.95-7.7,35.91h-29.36c2.37-12.01,4.92-23.96,7.59-35.91Z"/>
  <path class="cls-1" d="M138.84,834.33l-47.6.07c-9.57.07-19.45.81-28.98,0-52.72-4.47-60.88-47.07-60.81-89.07l.03-440.22c-.03-44.82,3.9-99.78,62.84-106.17,12.53-1.36,25.65-.69,38.25-.69l459.37.03c25.42-.01,55.76-2.77,80.18-.02h1.55c-17.96,99.04,61.23,195.35,158.06,211.97,9.17,1.57,22.97.63,30.81,2.69.03,13.72.92,28.07,0,41.71.6,18.89.01,37.94,0,56.85v190.74c.03,13.14.88,26.4,0,39.5l-1.2-.62c-40.37-20.69-59.24-22.05-88.91-66.88-7.12-10.76-12.24-23.02-19.89-33.34-17.93,29.48-4.41,91.63,13.94,120.02,4.13,6.39,9.57,12.02,13.47,18.51-13.25-1.46-25.5-5.29-37.04-12.03,10.61,37.12,23.37,41.12,41.18,66.94h-404.65c-8.69,12.81-16.71,26.19-25.07,39.22l-39.4,60.95c-13.66,21.41-26.94,43.01-41.06,64.12-18.56-24.73-33.35-52.65-49.91-78.74-18.14-28.58-38-56.36-55.15-85.56Z"/>
  <path class="cls-6" d="M552.14,302.94h50.85v42.66h-50.85c.07-14.13-.9-28.57,0-42.66Z"/>
  <path class="cls-6" d="M558.41,684.73h125.17v41.91h-125.17v-41.91Z"/>
  <path class="cls-6" d="M170.61,409.14h89.36v41.9h-129.66v-41.9c13.33.54,26.94.02,40.29,0Z"/>
  <path class="cls-6" d="M130.32,494.28h234.91v42.01c-4.29,1.32-39.78-.02-47.5-.02l-187.41.02v-42.01Z"/>
  <path class="cls-6" d="M404.6,494.28h278.98v42.01h-278.98v-42.01Z"/>
  <path class="cls-6" d="M677.62,409.14c4.04.03,5.78-.7,5.96,3.8v38.1h-383.89v-41.9h377.93Z"/>
  <path class="cls-6" d="M130.32,684.73h387.38c.25,13.95,0,27.96,0,41.91H130.32v-41.91Z"/>
  <path class="cls-6" d="M130.32,302.94h382.35v42.66H130.32v-42.66Z"/>
  <path class="cls-4" d="M642.13,198.28h1.55c-17.96,99.04,61.23,195.35,158.06,211.97,9.17,1.57,22.97.63,30.81,2.69.03,13.72.92,28.07,0,41.71-.39,2.42.87,7.24-2.45,7.63-41.29,4.86-99.67-17.05-134.09-42.33-3.44-2.53-7.87-8.18-12.43-7-.18-4.5-1.92-3.77-5.96-3.8-3.93-6.34-11.29-12.04-16.42-17.52-49.97-53.38-65.63-123.09-45.56-193.35,8.8.09,17.7.41,26.49,0Z"/>
  <path class="cls-6" d="M679.95,579.53c7.84-.65,3.67,34.28,3.63,42.07H134.63c-8.54.44-4.32-33.8-4.31-42.07h549.63Z"/>
</svg>