<?xml version="1.0" encoding="UTF-8"?>
<svg id="_23" data-name="23" xmlns="http://www.w3.org/2000/svg" viewBox="0 0 1024 1024">
  <defs>
    <style>
      .cls-1 {
        fill: #f39a2b;
      }

      .cls-1, .cls-2, .cls-3, .cls-4, .cls-5 {
        stroke-width: 0px;
      }

      .cls-2 {
        fill: #e5594f;
      }

      .cls-3 {
        fill: #4a5699;
      }

      .cls-4 {
        fill: #f0d043;
      }

      .cls-5 {
        fill: #c45fa0;
      }
    </style>
  </defs>
  <path class="cls-1" d="M435.36,118.89c29.67-2.9,38.8,38.64,6.3,47.15-32.19,2.13-37.98-40-6.3-47.15Z"/>
  <path class="cls-1" d="M711.93,154.19c32.48-2.13,36.52,46.67,4.9,47.76-30.27,4.76-40.18-40.45-4.9-47.76Z"/>
  <path class="cls-1" d="M967.99,445.85c29.89-2.88,41.96,37.98,8.32,49.05-33.21,3.5-41.69-41.13-8.32-49.05Z"/>
  <path class="cls-1" d="M570.02,201.95c9.66.11,19.32,0,28.98,0v25.5c8.5.49,17,.2,25.5,0,.22,10.15,0,20.34,0,30.49-8.49.41-17.01.13-25.5,0v25.89c-9.52.58-19.4-.07-28.98,0,.08-8.64.15-17.26,0-25.89h-23.42v-30.49c7.78-.47,15.63-.16,23.42,0v-25.5Z"/>
  <path class="cls-1" d="M891.73,540.5c10.23-.16,20.51-.19,30.75,0v26.58c8.08.24,16.12.17,24.2,0,.55,10.45.03,21.17,0,31.65-8.05.18-16.14,0-24.2,0-.03,4.73,1.29,22.03,0,24.7-10.24-.05-20.52.39-30.75,0-1.02-7.84-.04-16.74,0-24.7-8.53-.15-17.07-.37-25.6,0-.24-10.54-.05-21.1,0-31.65h25.6v-26.58Z"/>
  <path class="cls-1" d="M.32,816.93c-.7-29.83-.03-59.84-.03-89.69v-38.62c.01-37.66-2.09-39.01,39.37-38.98l78.57-.05c15.44,0,36.33-3.86,46.73,10.05,1.34,6.59.09,13.5.03,20.19l-.02,107.55c0,7.19,1.08,20.89,0,27.15,4.34,33.46-10.41,69.34-41.5,84.83-5.26,2.62-11.22,4.53-15.52,8.65-7.41.27-14.78,1.26-22.2,1.36-53.35.72-85.24-41.51-85.43-92.43Z"/>
  <path class="cls-2" d="M85.51,730.51c24.33,29.8,56.39,52.99,79.45,84.02,4.34,33.46-10.41,69.34-41.5,84.83-5.26,2.62-11.22,4.53-15.52,8.65-7.41.27-14.78,1.26-22.2,1.36-53.35.72-85.24-41.51-85.43-92.43,6.62-4.51,14.37-14.22,20.23-20.13,21.78-21.93,42.93-44.65,64.96-66.29Z"/>
  <path class="cls-2" d="M845.81,177.26c44.19-32.36,123.33-57.17,178.19-62.62-39.95,66.23-63.65,132.56-74.4,209.99-23.55,14.35-57.24,21.36-83.47,37.3l37.89-.03c8.57-.05,17.03-.52,25.59.03-5.64,12.5-12.75,25.43-19.92,37.17-7.06-1.07-34.5,7.7-42.57,9.95l-43.15,11.94c-15.83,4.48-32.3,9.83-48.75,11.32,30.16-63.4,79.97-133.68,125.34-186.4,6.45-7.5,25.83-21.95,13.17-32.07-12.7-10.15-23.3,9.47-30.33,17.62-30.59,35.45-58.07,72.61-82.67,112.45-12.34,19.98-22.57,41.95-36.19,61.02-8.53-19.77-16.79-84.43-18.87-106.01-.91-9.43,0-22.22-2.94-30.98,14.63-19.5,56.16-60.47,76.49-72.43,4.64,15.51,14.41,45.42,22.32,59.6.13-24.2,1.48-53.72,4.28-77.86Z"/>
  <path class="cls-3" d="M764.54,404.94c13.62-19.07,23.85-41.04,36.19-61.02,24.61-39.84,52.08-77,82.67-112.45,7.03-8.15,17.63-27.77,30.33-17.62,12.66,10.11-6.72,24.57-13.17,32.07-45.37,52.72-95.17,122.99-125.34,186.4,16.45-1.49,32.93-6.84,48.75-11.32l43.15-11.94c8.06-2.26,35.51-11.02,42.57-9.95-5.89,9.8-22.37,34.48-30.65,40.83-11.63,8.92-64.98,17.74-86.18,28.11,25.22-.14,50.81,1.9,75.72,5.9-19.58,26.88-72.36,71.15-100.2,84.44-18.15,11.73-48.68,24.82-69.88,28.2-6.58,12.76-13.92,26.76-18.05,40.49-4.86,5.73-8.8,15.37-11.22,22.54-6.69,15.36-13.68,30.61-20,46.12-4.25,6.74-7.2,14.94-10.31,22.29l-12.24,28.18c-4.02,9.27-9.26,29.5-23.42,22.22-11.77-6.05,6.91-38.73,12.06-50.4,4.15-6.5,7.07-14.94,9.18-22.29,8.35-12.82,15.24-31.85,21.09-46.12,3.57-5.53,7-16.07,9.75-22.54,8.61-14.37,14.75-31.43,21.4-46.84,1.55-2.6,2.56-5.58,3.7-8.38-2.67-4.12-4.22-8.87-5.8-13.48-5.09-15.26-8.02-30.61-10.09-46.54l-1.75-21.8c-.08-15.56.02-31.06,1.75-46.55.75-7.19,1.47-14.36,2.65-21.5,6.71-34.28,15.78-59.09,28.75-91.27,2.58-3.89,4.95-7.89,7.31-11.92,1.61,4.07,3.18,8.07,5.29,11.92,5.06.64,9.52.65,14.59,0-1.07-11.44-2.46-22.89-2.05-34.39,5.32-10.04,13.85-20.14,21.64-28.37,2.94,8.76,2.03,21.55,2.94,30.98,2.09,21.58,10.35,86.24,18.87,106.01Z"/>
  <path class="cls-4" d="M708.55,330.72c5.06.64,9.52.65,14.59,0,2.35,18.92,4.54,38.02,7.53,56.85-6.61-9.43-18-44.83-22.12-56.85Z"/>
  <path class="cls-5" d="M164.96,659.64l-.05-226.11c-.04-39.85,3.4-54.56,47.2-54.49l23.91.07v426.04h78.84c51.65-.02,88.87-2.13,137.42,19.8,16.58,7.48,37.29,19.26,46.97,35.59.5.89.67,1.12,1.4,1.74,37.61-57.65,122.21-57.14,183.79-57.15l83.93.02c.23-4.68.15-9.3,0-13.99,46.67-.13,55.28,7.24,55.12,54.41-.17,51-.34,62.68-55.5,62.52l-660.05-.06c4.31-4.12,10.26-6.03,15.52-8.65,31.09-15.49,45.83-51.37,41.5-84.83,1.09-6.26.02-19.96,0-27.15l.02-107.55c.05-6.7,1.31-13.6-.03-20.19Z"/>
  <path class="cls-4" d="M499.25,399.09c2.21-3.95,2.78-9.45,4-13.83,14.15-50.8,57.35-54.62,100.24-54.57l73.04-.03c6.44-.05,13-.42,19.42.06-12.97,32.18-22.04,56.99-28.75,91.27-1.18,7.13-1.9,14.31-2.65,21.5-1.73,15.49-1.84,30.99-1.75,46.55l1.75,21.8c2.07,15.92,5,31.28,10.09,46.54,1.59,4.6,3.14,9.36,5.8,13.48-1.14,2.8-2.15,5.78-3.7,8.38-6.65,15.4-12.79,32.47-21.4,46.84-2.75,6.47-6.18,17.01-9.75,22.54-5.85,14.27-12.75,33.31-21.09,46.12-2.11,7.35-5.04,15.79-9.18,22.29-5.15,11.67-23.83,44.34-12.06,50.4,14.16,7.29,19.4-12.94,23.42-22.22l12.24-28.18c3.11-7.34,6.06-15.54,10.31-22.29,6.32-15.51,13.3-30.77,20-46.12,2.42-7.17,6.36-16.81,11.22-22.54,4.13-13.73,11.48-27.73,18.05-40.49,21.2-3.38,51.73-16.46,69.88-28.2v232.77c.15,4.69.23,9.31,0,13.99l-83.93-.02c-61.58,0-146.18-.5-183.79,57.15-.73-.62-.9-.85-1.4-1.74.43-3.9-.05-8.34-.04-12.31l.04-449.13Z"/>
  <path class="cls-1" d="M680.44,627.06h36.39v22.54h-47.61c2.42-7.17,6.36-16.81,11.22-22.54Z"/>
  <path class="cls-1" d="M649.23,695.73c4.54,1.3,13.03.05,18.06.04l49.54-.04c-.37,7.46-.36,14.82,0,22.29h-77.91c3.11-7.34,6.06-15.54,10.31-22.29Z"/>
  <path class="cls-1" d="M546.61,695.73h77.9c-2.11,7.35-5.04,15.79-9.18,22.29-8.02.59-16.16.07-24.2.04l-44.51-.04v-22.29Z"/>
  <path class="cls-1" d="M546.61,627.06h108.74c-2.75,6.47-6.18,17.01-9.75,22.54-5.1-1.16-19.03-.03-25.09-.02l-73.9.02v-22.54Z"/>
  <path class="cls-1" d="M546.61,490.03h76.73c13.14,0,26.32.35,39.46,0l1.75,21.8h-117.94c.79-6.95.06-14.77,0-21.8Z"/>
  <path class="cls-1" d="M546.61,421.99h120.59c-1.18,7.13-1.9,14.31-2.65,21.5h-117.94c.14-7.15,0-14.34,0-21.5Z"/>
  <path class="cls-1" d="M546.61,558.37h128.03c1.59,4.6,3.14,9.36,5.8,13.48-1.14,2.8-2.15,5.78-3.7,8.38-14.29.73-28.99.02-43.32.02l-86.81-.02v-21.85Z"/>
  <path class="cls-1" d="M236.02,330.72l168.44-.03c46.71-.05,87.98,13.39,94.79,68.41l-.04,449.13c-.01,3.97.47,8.41.04,12.31-9.67-16.33-30.39-28.11-46.97-35.59-48.56-21.92-85.78-19.81-137.42-19.8h-78.84v-426.04c-.17-16.12-.03-32.26,0-48.38Z"/>
  <path class="cls-5" d="M281.65,421.99c57.89.18,115.91.72,173.79,0v21.5c-6.39.36-12.98.02-19.39.01h-154.4v-21.51Z"/>
  <path class="cls-5" d="M281.65,558.37c19.02.83,38.47.02,57.55.02l116.25-.02v21.85h-173.79v-21.85Z"/>
  <path class="cls-5" d="M281.65,490.03h173.79c.44,7.28.21,14.52,0,21.8h-173.79v-21.8Z"/>
  <path class="cls-5" d="M281.65,627.06h173.79v22.54h-173.79v-22.54Z"/>
  <path class="cls-5" d="M281.65,695.73h173.79v22.29h-173.79v-22.29Z"/>
</svg>