<?xml version="1.0" encoding="UTF-8"?>
<svg id="_3" data-name="3" xmlns="http://www.w3.org/2000/svg" xmlns:xlink="http://www.w3.org/1999/xlink" viewBox="0 0 1024 1024">
  <defs>
    <style>
      .cls-1 {
        fill: #d5c9db;
      }

      .cls-1, .cls-2, .cls-3, .cls-4, .cls-5, .cls-6 {
        stroke-width: 0px;
      }

      .cls-2 {
        fill: url(#linear-gradient);
      }

      .cls-3 {
        fill: #f39a2b;
      }

      .cls-4 {
        fill: #e5594f;
      }

      .cls-5 {
        fill: #4a5699;
      }

      .cls-6 {
        fill: #f0d043;
      }
    </style>
    <linearGradient id="linear-gradient" x1="998.75" y1="2295.59" x2="1077.2" y2="2268.86" gradientTransform="translate(-1164 5301) scale(2 -2)" gradientUnits="userSpaceOnUse">
      <stop offset="0" stop-color="#7d314a"/>
      <stop offset="1" stop-color="#9e4c57"/>
    </linearGradient>
  </defs>
  <path class="cls-6" d="M956.45,612.36c8.15.55,16.51,8.87,13.53,17.39-2.69,7.7-28.09,34.18-37.71,38.38-38.05-1.07,11.47-50.27,24.18-55.77Z"/>
  <path class="cls-6" d="M875.69,592.62c5.39-.45,11.22-.52,14.19,5,4.91,9.13,14.52,53.35-2.44,60.99-9.69,1.58-14.98-4.48-16.74-13.79-2.73-14.5-9.41-43.74,4.98-52.2Z"/>
  <path class="cls-6" d="M1007.97,669.8c11.56-1.16,19.97,11.67,12.06,21.26-4.18,5.07-47.44,12.77-56.09,13.69-12.46,1.53-16.88-11.11-12.78-20.89,9.33-6.28,44.06-11.6,56.82-14.06Z"/>
  <path class="cls-2" d="M839.82,752.92c-18.98.36-20.92-27.06-4.83-32.3,10.96-3.57,152.61-.88,155.78.75,14.91,7.69,11.27,27.62-4.06,31.55-5.85-.57-11.98-.17-17.86-.11l-129.03.11Z"/>
  <path class="cls-3" d="M919.24,132.74c14.97,8.14,25.28,23.09,33.46,37.55,2.99-4.85,6.03-9.62,9.3-14.3,18.74,22.02,13.78,50.57-2.8,71.87-28.97-7.83-52.69-17.19-83.52,0-17.05-19.41-22.55-51.42-3.95-71.87,3.86,3.85,6.9,7.71,9.7,12.39,8.64-15.79,19.68-30.65,37.79-35.64Z"/>
  <path class="cls-4" d="M839.82,752.92l129.03-.11c5.89-.05,12.02-.46,17.86.11l.02,89.21c0,26.14,5.12,57.68-15.29,78.05-22.91,22.86-92.46,23.43-115.49-.16-22.9-23.46-16.17-59.58-16.14-89.46.02-22.59-2.44-56.54.01-77.65Z"/>
  <path class="cls-6" d="M912.27,817.03c14.48-2.99,16.63,15.14,3.73,21.79-15.79.96-17.9-16.02-3.73-21.79Z"/>
  <path class="cls-6" d="M875.69,780.73c15.74-4.55,17.07,14.16,5.75,20.64-15.26.99-20.66-16.02-5.75-20.64Z"/>
  <path class="cls-6" d="M938.67,862.51c16.48-1.54,18.67,14.77,6.26,22.2-15.6,1.96-19.13-15.83-6.26-22.2Z"/>
  <path class="cls-6" d="M875.69,843.95c16.73-1.21,19.21,15.91,5.75,22.64-14.88,2.47-17.57-16.15-5.75-22.64Z"/>
  <path class="cls-6" d="M951.15,786.16c15.63,2.23,14.58,18.34,1.55,23.1-16.58-1.13-16.72-19.74-1.55-23.1Z"/>
  <path class="cls-6" d="M875.69,227.86c30.83-17.19,54.55-7.83,83.52,0,87.13,37.58,83.94,160.71-2.19,194.87-52.94,21-116.1-4.81-136.91-58.41-20.08-51.75,2.33-116.01,55.58-136.46Z"/>
  <path class="cls-3" d="M912.27,274.11c63.8-5.8,76.8,86.8,12.03,98.69-65.86,6.16-79.8-86.36-12.03-98.69Z"/>
  <path class="cls-4" d="M561.06,138.34c-.08-12.52-2.79-35.44,6.24-44.85,8.81-9.18,25.37-9.42,34.32-.28,9.13,9.34,6.27,32.62,6.19,45.13l81.85.02c30.03-.06,57.95-4.04,81.18,19.22,20.58,20.6,22.63,42.53,22.65,70.2l-.04,32.97H277.31c-10.91.52-22.09.02-33.03.02l-243.61-.02c-.07-37.31-3.72-68.88,25.16-97.91,26.44-26.58,58.2-24.54,92.81-24.53l60.06.04c.28-13.78-2.94-33.93,7.65-44.57,12.05-12.11,34.17-6.69,38.32,10.37,2.11,8.63.62,24.77.63,34.2h80.41l223.51-.04c10.57-.05,21.28-.57,31.83.04Z"/>
  <path class="cls-1" d="M561.06,163.64c-.08,14.35-3.11,36.74,7.51,47.74,11.38,11.8,34.77,6.1,38.75-10.04,2.32-9.43.41-27.13.5-37.7,34.33,23.25,10.93,77.65-29.77,70.93-34.26-5.65-44.73-50.93-16.98-70.93Z"/>
  <path class="cls-1" d="M225.31,159.54c33.97,20.83,12.18,77.11-27.43,72.27-36.04-4.4-47.35-51.08-19.17-72.27-.06,19.08-6.11,55.31,23.34,55.57,30.24.26,23.35-35.85,23.27-55.57Z"/>
  <path class="cls-5" d="M178.71,138.34c.28-13.78-2.94-33.93,7.65-44.57,12.05-12.11,34.17-6.69,38.32,10.37,2.11,8.63.62,24.77.63,34.2-.17,7.09-.22,14.12,0,21.2.08,19.72,6.97,55.83-23.27,55.57-29.45-.26-23.4-36.49-23.34-55.57-.16-7.06-.03-14.14,0-21.2Z"/>
  <path class="cls-5" d="M561.06,138.34c-.08-12.52-2.79-35.44,6.24-44.85,8.81-9.18,25.37-9.42,34.32-.28,9.13,9.34,6.27,32.62,6.19,45.13-.17,8.36-.64,16.96,0,25.29-.08,10.57,1.83,28.27-.5,37.7-3.97,16.14-27.37,21.84-38.75,10.04-10.62-11.01-7.59-33.4-7.51-47.74.18-8.42.04-16.87,0-25.29Z"/>
  <path class="cls-5" d="M.67,260.75l243.61.02c10.94,0,22.12.5,33.03-.02h516.15c-.82,6.68-.17,14.02-.1,20.77l.1,166.02.02,376.88c0,17.35,1.28,36.1-1.67,53.22-11.03,63.96-74.02,58.99-121.51,58.94l-570.28.02c-48.08-.02-88.82-13.86-98.37-69.4-2.34-13.59-1-28.76-.98-42.55v-276.51c-.01-33.52.4-67.08,0-100.6v-186.79Z"/>
  <path class="cls-1" d="M474.92,737.57c13.47-.16,74.62-1.55,83.12,1.59,16,5.91,14.83,26.23-3.44,33.77l-54.44.06c-9.16,0-19.18.82-28.25-.41-20.24-2.75-23.82-31.52,3.01-35.01Z"/>
  <path class="cls-1" d="M654.78,737.57l34.43-.1c10.46-.03,23.56-2.12,31.79,6,6.54,6.45,5.69,18.63-.85,24.8-8.07,7.62-26.37,4.72-36.95,4.66-19.53.06-69.61,9.48-70.39-18.17-.61-21.58,27.83-17.26,41.96-17.19Z"/>
  <path class="cls-1" d="M474.92,662.02l50.42-.05c8.81-.02,18.79-.91,27.45.58,21.45,3.71,22.96,32.68-3.9,34.99l-46.9.06c-11.18,0-31.16,2.69-40.59-5-13.49-11.01-5.99-29.52,13.52-30.58Z"/>
  <path class="cls-1" d="M629.49,662.02c18.86-.65,62.95-2.14,80.84.49,20.42,3,18.87,33.03-1.13,35.03l-54.21.02c-9.1,0-19.15.8-28.12-.49-21.4-3.1-18.54-33.64,2.63-35.05Z"/>
  <path class="cls-1" d="M469.96,812.77c14.02-.14,80.15-1.46,88.21,1.55,14.96,5.58,12.95,27.87-3.57,34.17-16.13.28-32.29,0-48.42,0-13.6,0-45.84,5.01-50.65-12.76-2.96-10.94,4.03-20.2,14.43-22.96Z"/>
  <path class="cls-1" d="M627.38,812.77c13,0,79.08-1.57,87.39,1.6,17.19,6.56,12.72,28.88-3.29,34.12-14.03,1.44-84.89,1.48-91.31-2.53-14.58-9.1-8.63-30.28,7.2-33.2Z"/>
  <path class="cls-6" d="M515.87,532.19c20.78-1.68,19.02,19.5,18.91,34.19,8.15-.09,19.6-1.31,26.39,4.1,7.26,5.78,7.16,16.95.81,23.36-6.66,6.72-18.55,4.94-27.2,4.74.26,12.61,2.78,27.36-12.62,31.19-19.87.29-18.69-15.82-18.44-31.19-7.88.05-19.99,1.81-26.42-3.53-6.94-5.76-8.4-17.2-1.8-23.77,6.62-6.59,19.62-5,28.22-4.91-.19-13.69-3.58-28.71,12.15-34.19Z"/>
  <path class="cls-6" d="M661.69,532.19c21.37-2.36,19.31,19.06,19.19,34.19,8.53.18,22.95-1.26,29.46,4.9,6.26,5.93,6.19,16.59.09,22.61-6.7,6.6-20.82,4.81-29.55,4.7.05,12.12,2.66,25.4-10.57,31.19-22.72,4.35-20.2-15.21-21.49-31.19-8.47.03-20.08,1.68-27.07-3.97-7.16-5.79-7.4-16.48-1.09-22.99,6.94-7.15,19.07-5.36,28.16-5.25-.14-13.9-4.21-30.18,12.88-34.19Z"/>
  <path class="cls-6" d="M273.83,780.73c-.24-79.11,3.1-71.65,71.57-71.84,50.74-.15,64.4-6.04,63.74,49.94-2.88-3.26-5.8-6.3-9.02-9.22-9.18,12.63-26.62,33.51-32.54,46.82-7.75-7.48-20.24-22.25-24.72-31.91-15.03,15.9-25.78,35.35-39.24,52.51-7.94-12.79-18.09-26.69-29.79-36.3Z"/>
  <path class="cls-3" d="M400.11,749.62c3.23,2.92,6.14,5.96,9.02,9.22-.4,18.35,2.58,63.91-1.27,79.47-6.94,28.07-40.94,21.02-62.23,21.03-74,.01-71.84,3.11-71.81-78.6,11.7,9.61,21.85,23.51,29.79,36.3,13.45-17.17,24.21-36.61,39.24-52.51,4.48,9.66,16.97,24.43,24.72,31.91,5.92-13.3,23.36-34.19,32.54-46.82Z"/>
  <path class="cls-6" d="M300.33,518.33c16.26-.18,32.53-.05,48.79-.03,19.64.01,55.37-3.76,59.25,23.26,2.11,14.7,2.29,93.28-.11,106.79-2.19,12.36-12.37,19.95-24.46,21.45-14.42.94-29.45.01-43.92.02-45.62,0-66,7.33-66.08-43.88l-.02-34.42c0-26.4-8.46-66.01,26.55-73.19Z"/>
  <path class="cls-4" d="M337.4,538.57c61.54-6.61,62.69,73.04,21.12,100.31-10.1,6.63-39.97,14.74-48.25,1.15-11.31-27.6,29.28-.09,43.94-35.29-59.35,21.98-75.1-57.66-16.81-66.17Z"/>
  <path class="cls-6" d="M342.85,559.74c21.34,1.25,20.02,23.99,2.04,29.2-21.54-1.28-22.62-26.19-2.04-29.2Z"/>
  <path class="cls-3" d="M110.15,708.91l52.39-.05c9.74,0,20.54-.89,30.12.85,34.99,6.36,26.09,53.06,26.09,79.46,0,29.54,9.41,67.24-31.55,70.15l-51.14.04c-24.12,0-54.95,3.37-57.36-29.72-1.22-16.71-.33-34.05-.33-50.82,0-28.27-7.67-67,31.78-69.91Z"/>
  <path class="cls-6" d="M107.73,518.33c17.64-.26,35.32-.05,52.97-.04,47.64.04,57.96-.02,58.02,47.61l.02,31.01c0,26.16,8.61,67.5-27.2,72.89l-54.45.03c-68.47,0-58.74-16.96-58.71-74.56.01-28.14-8.54-70.43,29.35-76.94Z"/>
  <path class="cls-4" d="M146.3,547.17c18.76,1.19,13.97,25.15,13.87,38.17,12.56-.05,55.44-1.61,31.37,23.94-10.26.83-21.08.07-31.37,0,.09,12.11,5.11,31.99-9.51,36.87-20.3,1.1-14.96-23.42-14.87-36.87-8.91.1-25.44,2.38-32.46-3.6-4.73-4.03-4.6-12.38-.33-16.7,6.1-6.16,24.32-3.77,32.78-3.64.1-12.5-5.43-33.67,10.52-38.17Z"/>
  <path class="cls-3" d="M.67,260.75l243.61.02c10.94,0,22.12.5,33.03-.02h0c.87,11.3,6.55,21.41,8.18,32.38,27.11,23.25,24.55,46.07,24.79,77.72,2.95,3.27,4.84,8.31,6.8,12.25,11.14,22.35,20.79,39.74,42.84,52.97,5.99,3.59,12.6,6.3,17.44,11.47H.67v-186.79Z"/>
  <path class="cls-4" d="M146.3,287.69c84.67-2.23,66.02,165.94-38.57,127.83-.57-6.08-.36-12.12,0-18.21v-7.98l3.29.85c30.51,7.64,47.8,2.99,55.59-28.75-18.46,9.4-39.47,10.97-55.64-4.43-28.61-27.26-5.47-69.16,35.33-69.31Z"/>
  <path class="cls-3" d="M146.3,313.33c18.74-1.84,30.88,23.19,4.36,31.67-23.9.58-30.17-27.76-4.36-31.67Z"/>
  <path class="cls-4" d="M310.27,370.85c-11.76,62.35-76.71,62.44-94.62,20.42-21.98-51.57,3.72-125.96,69.84-98.14,27.11,23.25,24.55,46.07,24.79,77.72Z"/>
  <path class="cls-3" d="M256.78,313.33c31.19.39,26.65,74.43,5.22,80.69-25.22,1.13-30.48-68.05-5.22-80.69Z"/>
  <path class="cls-6" d="M793.45,260.75c-.82,6.68-.17,14.02-.1,20.77l.1,166.02h-369.9c-15.38,0-30.83-.41-46.2,0-4.83-5.17-11.45-7.88-17.44-11.47-22.05-13.22-31.7-30.62-42.84-52.97-1.97-3.95-3.85-8.99-6.8-12.25-.24-31.65,2.32-54.47-24.79-77.72-1.63-10.97-7.31-21.08-8.18-32.38h516.15Z"/>
  <path class="cls-4" d="M648.81,300.97c-.07,4.13-30.54,51.96-33.89,63.27-2.72,9.17-1.15,28.73-1.09,39.1h-28.51c-.08-28.92,4.39-34.72-12.88-58.34-6.77-15.16-18.26-28.32-23.55-44.03h31.36c5.66,12.17,11.91,24.33,18.26,36.16l19.37-36.16h30.93Z"/>
  <path class="cls-4" d="M683.21,300.97c14.78-5.43,33.99,2,44.64,12.36-5.73,5.88-9.62,12.11-13.39,19.37-5.56-3.56-33.98-18.42-34.94-3.65-.56,8.67,19.69,10.48,25.82,12.76,40.9,15.23,27,66.36-18.24,63.06-16.51-.89-29.35-5.56-41.58-16.75,4.85-8.37,11.38-15.58,16.17-24.04,9.95,13.04,39.1,24.44,39.63,8.6.3-8.81-32.05-10.56-42.58-21.01-21.39-21.22-2.62-50.85,24.47-50.7Z"/>
  <path class="cls-4" d="M495.34,300.97c10.12.86,20.86.06,31.04,0,13.18,34.25,27.45,68.13,40.73,102.37h-32.32c-1.27-7.38-3.61-14.57-5.94-21.68-10.92-.87-22.51.13-33.51,0-3.95,7.07-5.68,13.89-7.62,21.68h-29.59c2.14-7.4,5.08-14.55,7.67-21.8l16.28-44.37c4.54-12.02,8.13-24.4,13.26-36.2Z"/>
  <path class="cls-6" d="M510.19,332.71l.82.42c5.16,7.73,8.59,21.81,11.15,30.96h-22.69c3.2-10.48,6.18-21.39,10.71-31.37Z"/>
  <path class="cls-4" d="M367.57,300.97c24.55.34,58.53-5.11,77.89,13.19,21.68,20.49,19.44,53.16-.23,73.96-20.25,19.6-51.79,15.27-77.66,15.22v-102.37Z"/>
  <path class="cls-6" d="M396.32,325.75c31.8-2.02,48.54,23.4,27.5,47.05-8.64,6.03-17.29,6.86-27.5,6.84v-53.89Z"/>
</svg>