<?xml version="1.0" encoding="UTF-8"?>
<svg id="_4" data-name="4" xmlns="http://www.w3.org/2000/svg" viewBox="0 0 1024 1024">
  <defs>
    <style>
      .cls-1 {
        fill: #f38a86;
      }

      .cls-1, .cls-2, .cls-3, .cls-4, .cls-5, .cls-6, .cls-7, .cls-8 {
        stroke-width: 0px;
      }

      .cls-2 {
        fill: #f39a2b;
      }

      .cls-3 {
        fill: #c2d0f9;
      }

      .cls-4 {
        fill: #e5594f;
      }

      .cls-5 {
        fill: #4a5699;
      }

      .cls-6 {
        fill: #fec5aa;
      }

      .cls-7 {
        fill: #f0d043;
      }

      .cls-8 {
        fill: #c45fa0;
      }
    </style>
  </defs>
  <path class="cls-5" d="M290.42,137.27c20.23-1.27,24.7,22.92,7.13,30.21-20.6,1.56-27.65-24.01-7.13-30.21Z"/>
  <path class="cls-5" d="M911.09,653.54c22.21-2.04,27.15,25.64,5.8,32.32-22.5.98-26.17-26.15-5.8-32.32Z"/>
  <path class="cls-5" d="M896.58,239.16c23.62-1.21,25.87,29.73,4.58,35.31-22.32,1.62-27.15-31.1-4.58-35.31Z"/>
  <path class="cls-7" d="M581.75,118.24c29.36.19,2.61,35.11-14.53,42.12-7.93-1.72-12.33-7.21-14.3-14.92,3.1-11.36,17.5-25.72,28.83-27.21Z"/>
  <path class="cls-7" d="M443.67,118.24c14.97-.71,46.5,30.55,22.19,42.12-14.33,2.38-48.18-30.71-22.19-42.12Z"/>
  <path class="cls-7" d="M514.63,85.61c20.31,1.88,13.32,46.03,10.05,50.09-2.24,2.79-6.76,3.2-10.05,3.7-19.19-3.62-15.76-37.59-11.44-46.78,1.8-3.83,7.73-5.63,11.44-7.01Z"/>
  <path class="cls-7" d="M510.85,162.69c29.35-8.7,68.32,40.86,47.08,50.55-17.46,7.96-13.69-17.52-37.76-25.96-19.17-4.54-23.71,9.75-32.26,22.16-5.78,8.39-20.17,6.26-21.23-4.65-2.2-22.5,24.4-40.52,44.18-42.09Z"/>
  <path class="cls-4" d="M956.96,505.44c18.4-1.38,16.63,15.52,16.42,28.76,8.15-.35,18.16-2.35,24.63,3.84,5.65,5.4,6.63,15.18.85,20.89-5.92,5.85-17.73,4-25.49,3.89-.77,12.68,3.04,23.09-10.84,29.29-18.61,2.15-17.25-16.06-17.15-29.29-11.23-.56-32.91,2.14-29.66-16.43,1.01-5.75,4.25-9.07,8.86-12.17h20.79c.01-12.68-2.94-23.99,11.57-28.76Z"/>
  <path class="cls-3" d="M149.63,162.69c19.09-1.42,16.21,18.35,16.01,31.5,8.32-.19,21.93-2.44,28.39,3.58,5.32,4.96,6.72,14.23,1.12,19.55-6.44,6.13-21.19,4.22-29.51,3.87-.26,11.8,3.44,29.51-12.04,32.19-18.29-1.06-14.96-18.65-14.8-32.19-8.78-.07-17.56-.09-26.34,0-6.92-6.22-9.35-11.5-6.38-20.84,8.7-9.2,21.3-6.08,32.72-6.17-.79-12.94-3.5-25.76,10.83-31.5Z"/>
  <path class="cls-4" d="M72.29,734.37c16.94-1.24,15.38,20.7,15.29,31.62,7.48-.12,19.63-1.8,25.53,3.45,5.87,5.22,7.44,16.09,1.55,21.93-5.79,5.74-19.52,3.97-27.08,3.89.28,12.72,2.62,24.24-11.02,30.17-19.42,2.02-18.63-16.16-17.04-30.17-7.22-.11-19.94,1.31-25.6-3.46-5.2-4.39-7.24-13.94-2.36-19.28,6.57-7.19,19.09-6.14,27.96-6.52-.06-7.62-.16-15.25,0-22.87,3.27-5.08,7.27-6.89,12.77-8.75Z"/>
  <path class="cls-7" d="M926.62,746.9c10.53-15.17,29.01-39.83,46.75-43.03,37.35-6.74,65.53,33.46,42.03,65.76-7.45,10.25-16.09,19.77-24.5,29.24-2.03-11.18,4.19-16.59-4.79-32.87-7.17-10.69-13.8-15.3-25.97-19.09-6.31.11-10.51,1.06-15.71,4.86-11.83,4.5-13.65,6.82-22.31,14.23,1.46-5.22,8.68-13.93,4.48-19.09ZM960.15,746.9c12.17,3.79,18.8,8.4,25.97,19.09,6.13-5.89,10.99-6.04,14.03-15.75,8.28-26.46-33.44-36.65-40-3.34Z"/>
  <path class="cls-2" d="M792.82,89.48c6.09,2.06,8.55,17.71,10.63,23.23,17,45.14,54.81,35.65,58.68,47.82-7.17,8.5-32.08,11.35-43.52,20.62-16.56,13.42-16.7,38.59-25.79,46.81-14.65-6.31-4.36-42.41-47.25-58.08-51.76-18.9-.22-11.97,23.57-33.95,13.82-12.77,12.95-36.46,23.68-46.47Z"/>
  <path class="cls-7" d="M964.63,293.02c5.22.55,8.55,5.55,11.8,9.2,64.92,72.92-5.86,144.42-67.41,108.97-11.22-7.26-38.68-35.09-21.09-47.36,19.71,20.22,54.77,15.46,71-7.29,24.28-34.04-3-54.67,5.16-62.98l.54-.54Z"/>
  <path class="cls-6" d="M7.83,348.59c19.1-1.99,12.87,21.46,13.06,33.91,5.18.38,10.14.33,15.32,0,.39-7.25.9-24.07,5.95-29.41,3.45-3.64,10.35-3.72,13.54.32,4.78,6.04,1.17,21.74.11,29.08,11.98.04,32.9-5.5,38.78,8.05-2.67,10.71-6.72,21.12-9.6,31.81,17.04.04,36.82-6.93,42.33,9.18-1.56,5.05-3.56,10.02-5.38,14.99-2.96,7.69-9.86,38.16-23.49,26.79-3.07-2.56-3.49-4.48-3.86-8.35l.51-2.65c1.28-6.95,4.94-13.82,7.74-20.33l-43,.04c-38.67.02-34.45.82-27.71-39.64-5.27.05-25.88,1.75-29.2-2.79-2.29-3.13-7.16-45.09,4.9-51ZM52.85,402.39c-1.52,6.64-2.52,13.22-3.4,19.98,5.02-.25,9.95-.45,14.96,0,1.5-6.63,2.66-13.38,4.26-19.98-5.28.11-10.55.27-15.82,0Z"/>
  <path class="cls-5" d="M350.64,245.42c-.45-11.87-1.34-41.77,1.31-52.2,7.63-30.07,53.46-30.11,61.27.01,2.63,10.16,1.12,40.01,1.12,52.19.07,15.16,3.12,40.59-7.49,52.07-15.89,17.19-47,13.89-54.67-9.93-3.2-9.96-1.54-31.04-1.54-42.13Z"/>
  <path class="cls-4" d="M960.15,746.9c12.17,3.79,18.8,8.4,25.97,19.09,8.98,16.28,2.76,21.69,4.79,32.87-4.57,7.9-11.97,14.94-17.7,22.1-12.58,15.7-21.86,35.38-44.36,36.85-23.58,1.54-43.95-17.12-45.03-40.64-.89-19.46,8.58-30.61,20.87-44.22,6.63-9.3,14.27-17.6,21.93-26.04,4.19,5.16-3.03,13.87-4.48,19.09,8.65-7.41,10.47-9.73,22.31-14.23,5.2-3.8,9.4-4.74,15.71-4.86ZM919.09,791.71c-5.62,6.89-13.7,14.64-12.5,24.29,1.33,10.67,11.84,19.66,22.73,17.95,9.33-1.46,14.96-11.44,20.03-18.51-16.82-.18-26.16-6.87-30.26-23.73ZM945.39,772.94c-.97,5.54-1.16,10.87-.95,16.48,4.68,5.51,9.77,8.85,15.71,12.84,5.29-8.27,16.84-22.72,2.91-29.82-5.9-3.01-11.8-1.51-17.67.5Z"/>
  <path class="cls-2" d="M926.62,746.9c4.19,5.16-3.03,13.87-4.48,19.09,8.65-7.41,10.47-9.73,22.31-14.23-1.08,7.46-1.64,13.94.95,21.18-.97,5.54-1.16,10.87-.95,16.48,4.68,5.51,9.77,8.85,15.71,12.84-3.31,4.15-7.05,9.5-10.8,13.18-16.82-.18-26.16-6.87-30.26-23.73-.09-4.48-.84-8.63-2.2-12.89-3.74-4.68-6.48-5.24-12.21-5.88,6.63-9.3,14.27-17.6,21.93-26.04Z"/>
  <path class="cls-5" d="M611.39,245.42c.23-13.51-1.88-39.37,1.34-51.49,8-30.16,53.68-30.51,61.96-.37,2.6,9.49,1.1,40.33,1.07,51.86.04,12.74,1.66,38.47-1.51,49.6-6.61,23.18-36.87,29.26-53.52,12.01-10.37-10.74-9.5-23.59-9.44-37.31l.11-24.3Z"/>
  <path class="cls-5" d="M72.29,531.69c103.92-10.9,124.9,146.07,15.29,158.61-17.18,4.42-42.2-6.12-55.55-16.55-56.06-43.84-31.17-133.52,40.27-142.05Z"/>
  <path class="cls-7" d="M117.59,577.65c8.99,1.05,10.8,6.24,12.65,14.45-3.7,9.69-15.75,18.2-22.97,25.3-34.9,34.35-28.06,42.76-61.69,7.7-4.37-4.52-12.32-11.17-12.77-17.69-.54-7.71,9.28-13.5,15.92-9.92,6.14,3.31,17.89,16.67,23.56,22.13,8.64-9.84,32.99-39.79,45.31-41.97Z"/>
  <path class="cls-7" d="M197.42,433.72c.78-10.13.04-20.55.02-30.72l-.04-76.86c0-29.7-6.55-71.75,32.1-80.1,10.79-2.33,25.77-.6,37.13-.6l84-.02c0,11.09-1.66,32.17,1.54,42.13,7.66,23.83,38.77,27.12,54.67,9.93,10.61-11.48,7.55-36.91,7.49-52.07l175.41-.03c7.16-.01,14.51-.4,21.64.03l-.11,24.3c-.06,13.72-.93,26.57,9.44,37.31,16.65,17.25,46.91,11.18,53.52-12.01,3.18-11.13,1.55-36.86,1.51-49.6l84.01-.03c66.18,0,73.27,3.58,73.25,78.48l-.04,74.17c0,11.74-.78,24.02.02,35.69H197.42Z"/>
  <path class="cls-4" d="M741.47,342.21c16.4.81-5.69,23.37-7.83,27.65.12,3.81,1.85,23.45-7.2,17.9-6.6-4.04-1.17-15.13-3.15-21.48-3.48-3.54-21.09-27.48-7.61-24.06,5.98,1.52,10.34,13.18,12.85,18.32,3.44-6.2,6.88-14.45,12.94-18.33Z"/>
  <path class="cls-4" d="M766.97,342.21c8.81-1.61,26.53,2.86,17.64,9.82-4.05,3.17-18.76-6.26-18.65,3.61,5.76,6.33,19.2,3.91,22.55,13.17,3.8,10.49-6.29,18.74-14.89,21.75-4.67-.57-18.27-3.21-19.15-9.36-2.08-14.54,17.37,3.61,23.24-3.88,1.46-9.48-11.85-8.78-17.45-12.18-11.16-6.8-5.3-20.17,6.7-22.93Z"/>
  <path class="cls-4" d="M684.7,342.21c3.36-.08,8.31-.65,10.54,2.43,3,4.15,24.02,51.14,7.54,43.83-4.79-2.13-2.16-8.88-8.01-10.49h-13.73c-14.03,33.6-15.66-14.99,3.66-35.77Z"/>
  <path class="cls-7" d="M689.6,355.28c1.28,1.17,10.55,14.63,0,14.57-9.65.24-2.26-10.06,0-14.57Z"/>
  <path class="cls-7" d="M578.34,351.34c10.46,2.59,8.53,21.58,1.26,26.63-10.85-2.29-10.83-22.07-1.26-26.63Z"/>
  <path class="cls-7" d="M534.82,351.34c11.27,1.16,9.93,22.11,4.32,26.63-12.54-.74-12.15-20.39-4.32-26.63Z"/>
  <path class="cls-4" d="M633.32,342.21c34.6-.09,39.32,29.88,18.17,43.65-4.07,1.05-25.32,4.8-27.75.07-2.34-4.55-1.79-36.07-.57-41.64,2.5-2.39,6.84-1.93,10.14-2.07Z"/>
  <path class="cls-7" d="M633.32,351.34c15.24.64,24.51,8.9,16.28,23.68-4.96,3.1-10.64,2.78-16.28,2.96v-26.63Z"/>
  <path class="cls-8" d="M832.98,433.72l.04,453.34c-.09,42.32-20.77,51.26-59.42,51.22l-527.81.1c-56.64-.26-48.4-53.16-48.36-91.42v-413.25h635.56Z"/>
  <path class="cls-7" d="M766.97,712.57l.55-.08c12.28-1.57,24.39,7.53,25.45,20.15,1.39,16.63-51.39,62.41-64.01,75.35l-25.56,26.14c-37.47,38.22-39.96,13.34-70.07-14.1-8.35-9.87-23.81-20.23-23.34-34.39.51-15.61,19.97-25.43,33-17.34,8.71,5.41,25.55,25.75,32.76,33.95,10.16-15.11,81.51-86.08,91.23-89.69Z"/>
  <path class="cls-7" d="M270.17,718.95l64.98.03c13.72,0,43.43-5.51,48.92,11.75,2.14,6.72,1.72,96.97.81,109.87-.61,8.62-5.56,14.32-13.94,16.81-5.69.49-11.53.08-17.24.05l-62.91.04c-34.19.07-36.26.34-36.1-34.75l.03-52.35c-.02-18.59-7.82-47.49,15.46-51.45Z"/>
  <path class="cls-1" d="M460.51,718.95c29.27-.41,72.36-2.43,101,.11,18.46,1.63,16.81,17.21,16.83,31.02l.02,67.27c-.01,13.49,4.02,36.92-14.07,40.07h-67.05c-12.38,0-45.56,5.16-50.43-10.47-2.45-7.87-2.53-102.56-1.06-114.55.9-7.36,8.13-11.86,14.75-13.45Z"/>
  <path class="cls-4" d="M270.17,516.55c20.37-.41,40.84.02,61.22.03,12.99,0,47.35-5.65,52.48,11.12,2.77,9.03,1.09,68.98,1.1,82.03,0,16.17,6.82,45.26-14.04,50.5-13.81.98-29.16.03-43.11.04-14.26,0-67.22,6.1-72.11-10.45-2.44-8.25-1.66-101.53-.81-115.87.64-10.83,4.03-15.18,15.27-17.39Z"/>
  <path class="cls-7" d="M465.86,516.55l61.51-.05c16.84,0,48.98-6.07,50.74,18.45,1.68,23.4,2.59,85.36-.16,108.51-1.53,12.91-8.72,16-20.96,16.77l-62.88.03c-36.56.01-48.85,8.25-48.9-33.02l-.02-71.47c0-20.37-4.4-36.15,20.67-39.22Z"/>
  <path class="cls-1" d="M655.44,516.55l65.17-.04c14.46-.01,45.8-5.65,51.6,12.34,2.37,7.37,1.97,101.54,1.17,114.71-.58,9.54-5.37,14.05-14.68,16.66l-70.02-.04c-39.53-.02-49.33,8.48-49.36-37.83v-39.69c0-20.47-8.59-60.69,16.12-66.12Z"/>
  <g>
    <path class="cls-4" d="M331.71,320.47v100.08h-27.66v-65.58c-4.47,3.4-8.8,6.15-12.99,8.26-4.19,2.1-9.43,4.12-15.74,6.04v-22.42c9.31-3,16.53-6.6,21.68-10.81,5.15-4.21,9.17-9.4,12.08-15.57h22.62Z"/>
    <path class="cls-4" d="M377.89,367.66c-4.3-2.28-7.43-4.83-9.4-7.65-2.68-3.85-4.03-8.28-4.03-13.29,0-8.23,3.87-14.97,11.61-20.2,6.04-4.03,14.03-6.04,23.96-6.04,13.16,0,22.88,2.51,29.17,7.52,6.29,5.01,9.43,11.32,9.43,18.93,0,4.43-1.25,8.57-3.76,12.42-1.88,2.86-4.83,5.64-8.86,8.32,5.32,2.55,9.3,5.93,11.91,10.14,2.62,4.21,3.93,8.86,3.93,13.96s-1.13,9.52-3.39,13.79c-2.26,4.27-5.03,7.57-8.32,9.9-3.29,2.33-7.38,4.04-12.28,5.14-4.9,1.1-10.13,1.64-15.67,1.64-10.43,0-18.39-1.23-23.9-3.69-5.5-2.46-9.69-6.09-12.55-10.87-2.86-4.79-4.3-10.14-4.3-16.04s1.34-10.66,4.03-14.67c2.69-4,6.82-7.1,12.42-9.3ZM388.7,390.68c0,4.34,1.32,7.89,3.96,10.64,2.64,2.75,5.66,4.13,9.06,4.13s6.2-1.4,8.79-4.2c2.59-2.8,3.89-6.34,3.89-10.64s-1.31-7.9-3.93-10.67c-2.62-2.77-5.65-4.16-9.1-4.16s-6.37,1.34-8.89,4.03c-2.53,2.69-3.79,6.31-3.79,10.87ZM390.17,348.33c0,3.4,1.06,6.14,3.19,8.22,2.13,2.08,4.96,3.12,8.49,3.12,3.13,0,5.71-1.03,7.72-3.09,2.01-2.06,3.02-4.72,3.02-7.99s-1.05-6.16-3.15-8.29c-2.1-2.12-4.79-3.19-8.06-3.19s-6.01,1.04-8.09,3.12c-2.08,2.08-3.12,4.78-3.12,8.09Z"/>
    <path class="cls-4" d="M453.14,370.95c0-18.71,3.37-31.79,10.1-39.27,6.73-7.47,16.99-11.21,30.78-11.21,6.62,0,12.06.82,16.31,2.45,4.25,1.63,7.72,3.76,10.41,6.38,2.68,2.62,4.8,5.37,6.34,8.26,1.54,2.89,2.79,6.25,3.73,10.1,1.83,7.34,2.75,14.99,2.75,22.96,0,17.86-3.02,30.92-9.06,39.2-6.04,8.28-16.45,12.42-31.21,12.42-8.28,0-14.97-1.32-20.07-3.96-5.1-2.64-9.29-6.51-12.55-11.61-2.37-3.62-4.22-8.58-5.54-14.87-1.32-6.29-1.98-13.23-1.98-20.84ZM480.26,371.02c0,12.53,1.11,21.09,3.32,25.68,2.21,4.59,5.42,6.88,9.63,6.88,2.77,0,5.18-.97,7.22-2.92s3.53-5.02,4.5-9.23c.96-4.21,1.44-10.76,1.44-19.67,0-13.07-1.11-21.85-3.32-26.35-2.22-4.5-5.54-6.75-9.97-6.75s-7.79,2.29-9.8,6.88c-2.01,4.59-3.02,13.08-3.02,25.47Z"/>
  </g>
</svg>