<?xml version="1.0" encoding="UTF-8"?>
<svg id="_6" data-name="6" xmlns="http://www.w3.org/2000/svg" viewBox="0 0 1024 1024">
  <defs>
    <style>
      .cls-1 {
        fill: #7b337b;
      }

      .cls-1, .cls-2, .cls-3, .cls-4, .cls-5, .cls-6, .cls-7 {
        stroke-width: 0px;
      }

      .cls-2 {
        fill: #8089d7;
      }

      .cls-3 {
        fill: #f39a2b;
      }

      .cls-4 {
        fill: #fcc584;
      }

      .cls-5 {
        fill: #e5594f;
      }

      .cls-6 {
        fill: #4a5699;
      }

      .cls-7 {
        fill: #f0d043;
      }
    </style>
  </defs>
  <path class="cls-3" d="M147.45,86.72h729.21c33.11,0,60,26.89,60,60v499.09H87.45V146.72c0-33.11,26.89-60,60-60Z"/>
  <path class="cls-1" d="M87.44,652.25h850v225.02c0,33.11-26.89,60-60,60H147.44c-33.11,0-60-26.89-60-60v-225.02h0Z"/>
  <path class="cls-2" d="M123.86,568.47l-36.41,8.85v210.04l42.14-5.79"/>
  <path class="cls-2" d="M901,568.47l36.41,8.85v210.04l-42.14-5.79"/>
  <path class="cls-6" d="M144.24,377.96c3.23-4.14,6.95-7.27,11.08-10.49,2.36,5.94,4.64,10.93,8.57,15.99-13.42,43.97-18.74,131.21-18.92,179.88-.05,4.58-.13,9.16,0,13.73v12.68c-.05,4.7-.44,9.68,0,14.35-3.79,49.48,4.72,122.36,10.34,172.04,1.66,21.03,7.84,41.57,9.83,62.59-12.02-.64-28.16-1.05-40.25,0-2.25-17.01-3.07-34.72-6.72-51.46-9.59-76.24-6.08-143.72-6.48-218.62-6.1-.53-11.42.38-17.42,1.51-.56-22.66,0-45.48,0-68.16v-106.12c4.97-1.39,9.97-5.86,13.84-9.18,3.07,2.05,6.65,3.28,10.06,4.68,4.05-2.47,22.19-14.05,26.07-13.42h0Z"/>
  <path class="cls-3" d="M118.17,391.38c4.05-2.47,22.19-14.05,26.07-13.42-14.88,40.6-23.18,100.43-27.83,142.8-1.71,15.52-2.02,32.81-4.71,47.89-6.1-.53-11.42.38-17.42,1.51-.56-22.66,0-45.48,0-68.16v-106.12c4.97-1.39,9.97-5.86,13.84-9.18,3.07,2.05,6.65,3.28,10.06,4.68h0Z"/>
  <path class="cls-6" d="M870.09,388.98c3.76-3.92,11.09-12.42,16.78-8.17,12.16,2.66,32.85,15.54,47.47,20.16v164.41c-4.04-.14-8.04-.14-12.08,0-1.88.95-4.42,2.88-6.41,3.27,2.86,61.41,2.12,123.38-2.63,184.7-.77,9.88-1.93,19.83-2.2,29.74-3.86,14.93-7.05,39.88-7.83,55.64h-41.22c2.37-20.81,5.24-41.84,8.13-62.59,4.49-40.97,12.42-121.83,8.52-162.92,2.11-7,1.11-16.18,1.09-23.47,0-9.96,1.12-21.39-1.09-31.11-.24-46.24-1.17-86.43-6.03-132.98-1.28-12.29-3.16-24.28-2.49-36.68h-.01Z"/>
  <path class="cls-3" d="M886.87,380.81c12.16,2.66,32.85,15.54,47.47,20.16v164.41c-4.04-.14-8.04-.14-12.08,0-1.88.95-4.42,2.88-6.41,3.27-7.81-63.56-7.78-125.02-28.98-187.84h0Z"/>
  <path class="cls-4" d="M370.46,540.26c37.67-6.7,96.53-4.59,135.15-4.59,57.72,0,117.47-2.19,174.92,4.59,54.66,1.88,109.01,7.65,163.33,13.71,11.62,1.29,23.3,2.26,34.75,4.67,2.21,9.72,1.08,21.15,1.09,31.11.03,7.29,1.02,16.47-1.09,23.47,3.9,41.08-4.03,121.95-8.52,162.92-24.21-8.22-90.07-13.74-115.92-15.42-7.34-.48-37.41-.59-42.13-2.45-8.57,2.79-16.48,7.22-24.61,11.04-102.27,47.98-226.47,48.95-331.03,7.72-9.44-3.72-18.95-9.68-28.84-11.86-6.31,1.12-13.66.13-20.13.05-38.08-.44-75.97.45-113.84,5.12-12.73,1.57-25.56,4.73-38.28,5.81-5.62-49.67-14.13-122.56-10.34-172.04-.44-4.67-.05-9.65,0-14.35v-12.68c-.13-4.58-.05-9.16,0-13.73,3.81-.26,8.21-1.97,12.03-2.74,44.59-8.96,95.25-12.51,141-16.3,24.1-2,48.22-4.41,72.45-4.04h0Z"/>
  <path class="cls-2" d="M878.61,613.22c3.9,41.08-4.03,121.95-8.52,162.92-24.21-8.22-90.07-13.74-115.92-15.42-7.34-.48-37.41-.59-42.13-2.45,12.16-8.02,25.33-14.6,37.45-22.77,44.58-30.07,97.55-77.52,129.12-122.27h0Z"/>
  <path class="cls-2" d="M144.97,604.1c7.87,7.29,12.56,17.11,19,25.55,35.21,46.16,80.44,86.19,129.64,116.63,10.99,6.8,23.3,11.65,33.95,18.88-6.31,1.12-13.66.13-20.13.05-38.08-.44-75.97.45-113.84,5.12-12.73,1.57-25.56,4.73-38.28,5.81-5.62-49.67-14.13-122.56-10.34-172.04h0Z"/>
  <path class="cls-5" d="M144.97,577.07c6.89,2.66,13.46,6.12,20.26,9.03,104.96,44.94,213.66,86.1,326.49,106.04,16.01,2.83,93.61,13.52,102.77,18.88-44.18,13.49-92.76,16.55-138.77,16.4-110.76-.36-215.41-37.18-292.33-118.2-6.12-6.44-11.3-14.03-18.4-19.47v-12.68h-.02Z"/>
  <path class="cls-2" d="M370.46,540.26c37.67-6.7,96.53-4.59,135.15-4.59,57.72,0,117.47-2.19,174.92,4.59,54.66,1.88,109.01,7.65,163.33,13.71,11.62,1.29,23.3,2.26,34.75,4.67,2.21,9.72,1.08,21.15,1.09,31.11-9.86,2.74-19.02,9.17-27.98,14.11-71.5,39.49-175.77,91.88-257.23,107.15-9.15-5.35-86.75-16.04-102.77-18.88-112.83-19.94-221.53-61.1-326.49-106.04-6.79-2.91-13.36-6.38-20.26-9.03-.13-4.58-.05-9.16,0-13.73,3.81-.26,8.21-1.97,12.03-2.74,44.59-8.96,95.25-12.51,141-16.3,24.1-2,48.22-4.41,72.45-4.04h0Z"/>
  <path class="cls-5" d="M94.27,237.61c35.89,6.13,69.62,53.4,69.62,90.51,43.55-22.73,107.88-5.92,142.73,25.87-25.84-3.38-40.07-1.41-62.64-3.06-2.93-1.88-5.33-3.77-7.79-6.26-4.97,16.39-36.52,13.59-52.76,15.82,51.48,22.4,78.73,61.02,84.88,118.36-6.52-8.23-13.08-16.35-20.5-23.8-12.7-12.74-29.73-20.61-32.18-40.9-3.01,2.53-5.65,5.15-8.27,8.09-10.01-8.18-20.83-15.89-30.38-24.56-4.71-4.28-8.33-10.28-13.1-14.21-3.94-5.06-6.21-10.05-8.57-15.99-4.13,3.22-7.85,6.34-11.08,10.49-3.88-.62-22.01,10.95-26.07,13.42-3.41-1.4-6.99-2.63-10.06-4.68-3.87,3.32-8.87,7.79-13.84,9.18-.52-3.25-1.3-6.1-2.46-9.18-.62,17.41-15.67,16.47-31.89,24.72-2.16-2.43-3.94-5.51-5.74-8.23v8.23c-9.1,6.91-30.01,15.6-42.05,22.94,14.4-41.85,44.45-64.3,83.06-80.37-.54-2.35-.73-4.72-.91-7.12-1.16-1.45-1.78-3.89-2.46-5.63-9.7,8.02-22.57,2.29-33.28-3.21-1.03-3.29.41-6.74,1.39-9.91-2.49,3.13-6.04,5.64-9.15,8.17-14.24-3.67-36.6-10.86-50.55-10.33,23.31-18.62,65.83-23.28,94.05-16.76-.12-21.74-.74-43.72,0-65.44v-6.15h0Z"/>
  <path class="cls-3" d="M94.27,346.86c3.57,1.49,7.09,3.01,10.81,4.07-3.28,1.08-6.56,2.19-9.91,3.06-.54-2.35-.73-4.72-.91-7.12h.01Z"/>
  <path class="cls-3" d="M94.27,243.76c2.1,1.52,18.14,36.85,19.66,40.57,3.67-.32,7.29-.14,10.97,0-4.5,9.54-2.36,15.1,0,24.87,1.93,1.18,3.88,2.34,5.78,3.57,1.93,3.17,3.02,6.44,4.07,9.98-12.58-5.58-26.53-13.01-40.47-13.55-.12-21.74-.74-43.72,0-65.44h-.01Z"/>
  <path class="cls-7" d="M298.99,164.39c109.11-10.64,124.46,157.89,14.06,166.58-102.05,11.38-131.34-150.59-14.06-166.58Z"/>
  <path class="cls-5" d="M858.59,325.96c8.71-38.82,34.72-81.78,75.75-91.61.02,3.13.15,6.29,0,9.41,1.03,21.73-.77,43.68,0,65.44,26.24-4.28,66.64-1.98,89.88,13.55-14.05,1.64-27.37,5.56-40.25,11.4-1.2-2.79-2.3-5.63-3.94-8.2.02,2.73.1,5.47,0,8.2-8.4,4.52-16.01,7.71-25.68,7.21l-3.01-.14c.47,8.93-6.73,9.37-12.29,3.45l-3.27-3.45-1.44,9.7c.02,1.75.09,3.53,0,5.28,40.8,14.47,69.07,39.11,83.65,80.23-12.56-8.14-24.91-15.05-37.96-22.28v-7.95c-9.19,12.59-29.95,1.46-41.14-5.24-.72-2.33-1.23-4.75-2.83-6.64l-.67.14c-.95,2.12-.94,4.23-1.05,6.5-14.62-4.61-35.31-17.5-47.47-20.16-5.69-4.25-13.02,4.25-16.78,8.17-7.93,3.49-14.8,8.94-21.61,14.2l-4.63-7.31c-3.43,15.39-10.25,17.17-22.44,26.37-1.53-2.05-3.18-4.03-4.77-6.04-1.69,7.02-5.54,20.71-14.92,21.53l-.78-.75c-.26-10.26-9.49,9.29-10.98,11.2-7.2,9.23-18.6,18.38-27.11,26.61.12-57.66,28.63-88.14,77.41-115.66-22.48.2-36.72-4.03-58.42-6.43-25.59-2.83-49.48-1.38-74.82,1.29,35.3-36.85,105.18-45.07,151.57-28.02h0Z"/>
  <path class="cls-3" d="M911.01,352.57l23.33-1.64c.02,1.75.09,3.53,0,5.28-7.66-1.91-15.5-2.71-23.33-3.64h0Z"/>
  <path class="cls-3" d="M903.18,312.78c9.95-17.66,19.96-56.64,31.15-69.02,1.03,21.73-.77,43.68,0,65.44-11.35,4.72-24.82,7.97-38.31,13.55l2.63-5.65-2.63-7.9,7.16,3.57h0Z"/>
  <path class="cls-7" d="M370.46,540.26c3.46-38.1,26.44-75.09,55.47-99.3,66.5-55.45,168.86-42.94,222.76,23.52,15.2,18.74,31.88,51.23,31.84,75.77-57.45-6.78-117.2-4.59-174.92-4.59-38.62,0-97.48-2.11-135.15,4.59h0Z"/>
</svg>