<?xml version="1.0" encoding="UTF-8"?>
<svg id="_9" data-name="9" xmlns="http://www.w3.org/2000/svg" viewBox="0 0 1024 1024">
  <defs>
    <style>
      .cls-1 {
        fill: #78b95a;
      }

      .cls-1, .cls-2, .cls-3, .cls-4, .cls-5, .cls-6 {
        stroke-width: 0px;
      }

      .cls-2 {
        fill: #f39a2b;
      }

      .cls-3 {
        fill: #e5594f;
      }

      .cls-4 {
        fill: #4a5699;
      }

      .cls-5 {
        fill: #f0d043;
      }

      .cls-6 {
        fill: #f3b4c4;
      }
    </style>
  </defs>
  <path class="cls-5" d="M796.24,6.34c23.39-2.81,23.85,38.72,9.41,42.57-25.29,7.46-22.15-37.53-9.41-42.57Z"/>
  <path class="cls-5" d="M796.24,74.37c22.14-6.08,17.21,19.73,16.98,33.66-2.04,3.39-4.15,6.01-7.57,8.08-23.4,4.52-26.31-37.09-9.41-41.74Z"/>
  <path class="cls-5" d="M755.05,48.91c8.4-.1,20.49-1.73,28.16,1.65,11.87,5.23,6.93,20.26-3.37,23.8-8.72.11-20.17,1.47-28.33-1.61-14.57-5.51-9.58-18.7,3.54-23.84Z"/>
  <path class="cls-5" d="M819.04,48.91c13.48-.31,60.63-.1,31.57,25.46-7.03,1.29-24.83,1.6-31.37-1.28-9.93-4.37-11.18-20.92-.2-24.18Z"/>
  <path class="cls-6" d="M916.21,121.8c27,.33,26.74,41.82,0,44.2-28.99-2.49-29.73-40.32,0-44.2Z"/>
  <path class="cls-6" d="M587.66,14.64c29.82-2.82,35.19,38.28,6.66,43.62-29.57,1.87-36.23-33.96-6.66-43.62Z"/>
  <path class="cls-3" d="M958.6,312.04c27.91.8,32.84,41.47,0,46.66-30.71.25-34.36-42.38,0-46.66Z"/>
  <path class="cls-1" d="M200.25,0c50.79,48.49,52.54,98.81,0,145.72-3.2-.9-6.87-5.69-9.07-8.1-44.03-48.35-40.14-94.16,9.07-137.62Z"/>
  <path class="cls-1" d="M61.1,86.41c72.14-.82,101.39,11.7,119.02,84.72l.3,1.22c-.12,6.52-.37,13.06,0,19.57-75.16,1.33-111.38-30.15-119.32-105.52Z"/>
  <path class="cls-1" d="M223.24,172.36c22.01-77.16,46.85-86.41,123.4-85.95-8.59,72.2-51.34,108.72-123.4,105.52.32-6.53.13-13.04,0-19.57Z"/>
  <path class="cls-5" d="M850.62,796.63c.67,9.96.03,20.2.01,30.19l.04,111.77c.58,82.46-27.52,84.95-102.24,84.93l-73.42-.06c-10.43-.02-20.99-.51-31.4.03v-14.56c43.02-41.63,83.85-85.64,125.63-128.51l47.95-49.13c9.64-10.01,19.9-19.84,28.12-31.06l5.32-3.6Z"/>
  <path class="cls-2" d="M180.42,172.36c9.87-21.2,33.25-23.37,42.82,0,.13,6.53.32,13.04,0,19.57.3,7.7.3,15.27,0,22.98h180.57c.04-23.28-7.49-50.05,20.75-57,28.42,6.6,21.6,33.9,21.01,57h181.08c.01-13.02-3.2-38.76,5.05-48.81,7.62-9.29,21.62-9.79,30.21-1.57,10.19,9.76,6.81,36.93,6.78,50.38l79.03-.03c91.56,0,102.92,12.74,102.93,103.86,0,22.61.74,45.35-.06,67.94H13.69l-.2-107.66c-.27-64.05,41.65-64.16,91.89-64.15l75.04.04v-22.98c-.37-6.51-.12-13.05,0-19.57Z"/>
  <path class="cls-5" d="M223.24,257.33c28.53,14.76,28.93,53.84-1.43,68.14-51.92,24.46-88.37-48.52-41.39-68.14.28,10.62-1.36,26.19,6.76,34.17,8.52,8.37,23.37,7.84,31.31-1.06,7.26-8.14,5.05-23,4.76-33.11Z"/>
  <path class="cls-5" d="M445.58,257.33c10.29-1.07,18.84,13.23,21.58,21.33,11.77,34.83-31.24,64.28-62.11,47.32-27.69-15.21-28.57-61.7-1.23-68.65-.21,11.07-2.05,26.06,6.14,34.72,7.65,8.08,21.26,9.83,29.47,1.56,8.31-8.37,6.24-25.31,6.15-36.28Z"/>
  <path class="cls-5" d="M626.66,253.84c-.12,11.66-2.91,30.58,5.67,39.64,8.43,8.9,22.91,7.77,30.91-1.09,8.59-9.51,5.89-26.7,5.46-38.55,29.97,15.06,29.53,57.58-1.5,72.23-49.86,23.53-93.05-47.82-40.54-72.23Z"/>
  <path class="cls-4" d="M424.57,157.91c28.42,6.6,21.6,33.9,21.01,57v42.43c.08,10.97,2.16,27.91-6.15,36.28-8.21,8.27-21.82,6.52-29.47-1.56-8.19-8.65-6.35-23.65-6.14-34.72v-42.43c.04-23.28-7.49-50.05,20.75-57Z"/>
  <path class="cls-4" d="M626.66,214.91c.01-13.02-3.2-38.76,5.05-48.81,7.62-9.29,21.62-9.79,30.21-1.57,10.19,9.76,6.81,36.93,6.78,50.38v38.93c.42,11.85,3.13,29.04-5.46,38.55-8,8.86-22.48,9.99-30.91,1.09-8.58-9.06-5.8-27.99-5.67-39.64.53-12.89.01-26.01,0-38.93Z"/>
  <path class="cls-4" d="M180.42,172.36c9.87-21.2,33.25-23.37,42.82,0,.13,6.53.32,13.04,0,19.57.3,7.7.3,15.27,0,22.98-.37,13.66-1.22,28.86,0,42.43.29,10.11,2.5,24.97-4.76,33.11-7.94,8.9-22.79,9.44-31.31,1.06-8.12-7.99-6.47-23.55-6.76-34.17v-65.41c-.37-6.51-.12-13.05,0-19.57Z"/>
  <path class="cls-4" d="M13.69,386.67h836.92l.06,223.96c.03,8.48.76,17.39-.06,25.8,11.18-11.58,24.62-21.29,38.11-30.04,1.26-18.17,1.48-37.27-3.94-54.85-2.45-7.94-12.4-20.29-3.71-27.61,24.15-20.36,30.19,58.49,30.18,69.29,6.82-3.86,112-62.12,98.17-24.26-3.24,8.87-21.88,11.25-29.63,14.22-19.83,7.58-39.93,17.92-58.16,28.73,17.03,5.85,53.27,20.56,60.37,35.55,2.52,5.33-1.44,11.4-6.81,12.95-9,2.61-20.03-9.24-26.96-13.66-15.54-9.92-34.79-16.41-52.84-19.75-8.09,3.36-37.62,27.12-43.31,34.32v10.65c18.89-.39,55.65,11.66,69.31,25.09,7.4,7.27-.73,17.1-9.71,15.91-9.27-1.23-19.15-8.59-27.86-12.07-10.75-4.29-22.4-5.96-33.2-10.21v62.03c-.21,7.03-.2,13.99,0,21.02-.23,7.19,1.27,16.03,0,22.88l-5.32,3.6c-8.22,11.23-18.47,21.05-28.12,31.06l-47.95,49.13c-41.78,42.87-82.61,86.88-125.63,128.51v14.56c-94.65,0-189.45,1.14-284.09,0l-251.09.02c-14.47,0-30.14.75-44.39-1.99-57.94-11.15-50.4-67.81-50.38-110.35l.02-524.5Z"/>
  <path class="cls-1" d="M176.63,899.43c-1.26-1.19-84.96-57.57-46.2-63.98,11.62-1.92,42.92,28.31,54.55,36.36.75,7.39-3.52,21.93-8.35,27.63Z"/>
  <path class="cls-1" d="M216.77,810.36c9.7-8.67,55.29-47.01,66.02-33.72,11.2,13.87-10.64,26.3-19.87,32.41-9.91,6.57-36.09,25.4-44.99,29.18h0c.57-9.2-.72-18.66-1.16-27.87Z"/>
  <path class="cls-1" d="M176.63,710.87c-.03-6.13-4.06-91.35,22.4-73.42,10.35,7.01,4.15,32.75,3.44,42.79-1.51,21.29-1.72,45.36,2.04,66.41l.16.82c6.19-5.84,57.91-76.7,66.2-40.46,2.7,11.82-13.12,20.2-20.11,27.54-13.23,13.87-28.14,31.69-38.06,48l-.46.76c1.01,9.12,2.72,18.06,4.53,27.05.45,9.21,1.73,18.67,1.16,27.87-6.62-1.28-15.23-8.31-21.1-12-11.74-6.86-77.55-46.72-79.55-53.07-2.11-6.68,2-14.35,9-15.36,14.57-2.11,51.85,25.39,64.66,34.63-4.4-17.37-7.71-34.64-10.53-52.33-14.02-5.55-88.12-42.26-90.35-49.45-1.83-5.91,2.97-13.85,8.9-15.25,15.06-3.55,64.08,27.02,77.66,35.47Z"/>
  <path class="cls-5" d="M668.71,422.78c13.87,2.26,22.69,34.83,29.05,46.09l.61,1.07c13.19,2.98,42.78,1.86,51.8,11.09,15.32,15.69-23.69,41.16-32.71,49.21l1.4,3.39c4.24,10.11,10.22,40.09,5.75,50.05-10.1,22.48-43.71-17.55-55.89-13.14-18.46,3.4-29.54,15.96-46.17,19.84-7.08-1.62-11.31-4.14-14.99-10.77.61-16.5,7.22-32.75,8.83-49.37-8.88-11.13-31.35-25.62-35.35-38.04-7.54-23.44,41.78-18.46,54.92-21.98l.99-.28c9.91-15.16,10.37-44.06,31.78-47.16Z"/>
  <path class="cls-5" d="M208.08,422.78c18.44-1.83,26.56,32.36,34.84,47.16,59.36,8.55,81.31,12.19,19.56,60.3,2.09,12.64,9.84,41.71,5.83,52.75-7.77,21.35-44.33-7.49-56.06-12.44-9.86-2.33-32.52,21.91-47.94,19.87-21.47-2.83-6.78-44.82-4.21-57.47-9.49-12.55-30.8-24.58-35.62-39.2-7.2-21.83,38.84-19.87,51.08-23.48l1.09-.33c10.91-12.26,17.39-41.99,31.44-47.16Z"/>
  <path class="cls-5" d="M359.52,579.61c14.29-10.4,73.11-52.95,83.34-56.54,5.22-1.83,54.46-2.56,62.08-1.51,24.18,3.33,15.94,50.06,15.94,69.52l-.04,95.92c.01,11.43,1.98,78.82-2.17,83.45-6.16,6.87-61.24,4.11-67.67.23-6.41-10.39-2.7-36.56-2.73-48.61v-75.61c.03-13.31.53-26.76-.01-40.06l-.69-1.91c-6.78-.05-39.17,26.91-48.77,31.95-13.51-18.77-25.03-38.47-39.29-56.82Z"/>
  <path class="cls-3" d="M888.72,606.4c1.26-18.17,1.48-37.27-3.94-54.85-2.45-7.94-12.4-20.29-3.71-27.61,24.15-20.36,30.19,58.49,30.18,69.29,6.82-3.86,112-62.12,98.17-24.26-3.24,8.87-21.88,11.25-29.63,14.22-19.83,7.58-39.93,17.92-58.16,28.73,17.03,5.85,53.27,20.56,60.37,35.55,2.52,5.33-1.44,11.4-6.81,12.95-9,2.61-20.03-9.24-26.96-13.66-15.54-9.92-34.79-16.41-52.84-19.75-8.09,3.36-37.62,27.12-43.31,34.32v10.65c18.89-.39,55.65,11.66,69.31,25.09,7.4,7.27-.73,17.1-9.71,15.91-9.27-1.23-19.15-8.59-27.86-12.07-10.75-4.29-22.4-5.96-33.2-10.21v62.03c-.21,7.03-.2,13.99,0,21.02-.23,7.19,1.27,16.03,0,22.88l-5.32,3.6c-8.22,11.23-18.47,21.05-28.12,31.06l-47.95,49.13c-41.78,42.87-82.61,86.88-125.63,128.51v14.56c-94.65,0-189.45,1.14-284.09,0l-.05-281.54c-.03-43.82-8.55-55.15,41.17-55.05l47.63.09v-80.6c.55,13.3.04,26.75.02,40.06v75.61c.03,12.05-3.69,38.22,2.72,48.61,6.43,3.87,61.51,6.64,67.67-.23,4.15-4.62,2.18-72.02,2.17-83.45l65.14-.04c24.44,0,58.16-7.92,57.91,26.84l-.3,89.47h36.19c12.32-.9,25.27-.06,37.65,0,20.27-34.68,29.26-52.63,1.57-93.41-3.42-5.03-13.89-14.59-15.12-19.63-2.38-9.79,9.35-14.32,16.51-9.37,16.99,11.75,31.44,43.92,34.64,64.02,9.22-14.34,36.6-45.34,41.19-57.88-3.06-18.8-6.2-39.64-16.96-55.88-3.71-5.6-25.9-26.71-7.58-30.91,22.33-5.11,38.99,53.76,41.51,68.44.19-.14.39-.28.58-.42l.95-.71c12.68-9.32,21.9-23.62,35.87-31.09,11.18-11.58,24.62-21.29,38.11-30.04Z"/>
  <path class="cls-4" d="M852.08,671.98c-14.6,1.46-6.7-5.33,0-10.65v10.65Z"/>
  <path class="cls-4" d="M755.05,780.76c31.36-.55,58.34-13.24,95.57-7.01-.23,7.19,1.27,16.03,0,22.88l-5.32,3.6c-29.28,3.65-60.7,3.04-90.25,3.04h-13.29c4.19-7.68,8.62-15.11,13.29-22.51Z"/>
  <path class="cls-4" d="M821.96,690.7c9.55-.02,19.11-.18,28.66,0v62.03c-31.49-.08-49.52,1.1-80.36,5.2,10.26-18.86,37.34-52.73,51.71-67.22Z"/>
  <path class="cls-5" d="M520.85,810.36c21.52-1.52,28.75,31.51,35.43,47.16,12.37-.06,43.82-2.81,52.54,5.15,16.9,15.43-23.97,40.7-32.72,49.56l-.94.96c2.67,11.58,14.02,42.15,8.91,51.95-10.37,19.85-40.96-8.09-53.57-15-12.02-5.48-35.17,25.26-51.06,22.17-21.77-4.22-3.9-46.12-.97-59.12-8.96-9.04-38.51-29.2-38.01-42.86.69-19.23,44.51-9.15,55.07-14.51,4.2-2.13,16.02-36.44,25.34-45.47Z"/>
</svg>