<?xml version="1.0" encoding="utf-8" ?><svg xmlns="http://www.w3.org/2000/svg" xmlns:xlink="http://www.w3.org/1999/xlink" width="1024" height="1024" viewBox="0 0 1024 1024"><path fill="#46536D" transform="scale(2 2)" d="M299.369 49.2182C301.22 49.3166 307.718 53.0322 308.944 54.4135C309.958 55.5549 309.569 65.4836 309.569 67.3773L309.561 152.075C313.871 153.194 321.168 158.245 325.292 160.78L444.03 233.702C448.955 236.735 455.303 240.515 459.994 243.807C460.34 245.769 460.041 249.921 460.022 252.118L459.994 336.08C438.862 348.34 418.108 361.702 397.194 374.305L274.819 446.871C269.36 450.036 262.707 454.463 257.231 456.958C254.155 455.49 247.928 451.449 244.757 449.53L218.717 433.729L64.7053 340.197C45.777 328.608 50.8497 332.825 50.8685 308.233L50.8567 244.854C50.8553 232.993 50.6415 232.825 54.8255 221.963L60.5904 206.806C68.1781 186.256 75.9147 165.348 83.9618 145.02C90.3051 140.335 101.172 134.467 108.301 130.013L229.328 56.1722C232.498 54.2508 236.371 51.7138 239.6 50.0621C242.683 51.4928 247.417 54.4767 250.495 56.2494L269.31 66.8795C278.482 61.851 290.184 53.0205 299.369 49.2182ZM116.637 165.563L116.637 267.974C121.883 271.283 126.814 274.474 132.15 277.672C136.417 280.338 141.429 283.355 145.584 286.16C149.963 283.888 155.924 279.846 160.303 277.194L305.749 188.926L305.749 56.6461C304.641 55.8856 300.509 53.1775 299.369 53.2145L133.115 155.124C128.567 157.968 120.395 162.416 116.637 165.563ZM309.561 155.925C309.501 157.594 309.526 159.098 309.561 160.768C316.069 164.484 328.835 171.209 333.806 176.04C337.891 177.387 343.818 181.533 347.785 183.872C376.807 200.988 405.074 219.353 433.96 236.709C437.979 239.123 444.323 242.732 447.753 245.675C448.821 245.052 450.287 244.372 451.417 243.807C447.65 240.265 434.647 232.616 429.501 229.457L317.674 160.584C315.147 159.055 312.272 157.039 309.561 155.925ZM57.5797 240.593C73.2042 248.23 91.9555 261.183 106.85 270.45L160.687 304.018C169.055 309.257 177.117 313.855 185.508 319.333L209.123 334.606C224.046 344.156 240.402 354.993 255.977 363.284C256.319 361.344 256.438 360.25 254.517 359.046L153.344 295.575C120.994 275.408 87.7121 252.992 54.5532 234.506L54.5532 329.712C55.5344 330.361 56.5771 330.986 57.5797 331.607C57.9682 328.619 57.6596 325.131 57.6274 322.097C57.3486 295.852 55.7308 266.466 57.5797 240.593Z"/><path fill="#55595F" transform="scale(2 2)" d="M214.993 127.182C217.868 127.579 224.554 146.702 225.999 150.231C226.92 149.586 262.797 124.911 255.64 137.581C250.628 146.455 237.469 162.876 234.726 170.332C237.198 177.639 238.005 186.992 239.783 194.652C241.34 201.36 223.215 196.046 217.818 196.288C215.346 198.09 211.629 203.073 209.544 205.671L198.228 219.839C192.22 227.494 187.493 236.141 190.831 219.63L194.312 202.722C195.032 199.273 196.102 194.99 196.329 191.524C193.303 190.822 175.586 187.801 174.556 187.066C174.034 186.021 174.093 185.086 174.023 183.902C177.32 180.368 198.056 167.485 202.559 164.901L208.779 141.757C210.158 136.562 210.491 129.832 214.993 127.182ZM251.637 140.707C252.822 138.738 253.63 137.427 254.542 135.326C253.057 135.944 250.042 138.154 248.308 139.19C249.817 139.934 250.662 139.207 251.637 140.707Z"/><path fill="#FEDA65" transform="scale(2 2)" d="M203.831 165.563C206.131 158.933 212.124 130.724 214.259 129.318L214.737 129.423C216.693 131.44 223.453 148.369 225.193 152.075C228.007 150.905 231.56 148.777 234.279 147.232L248.308 139.19C249.817 139.934 250.662 139.207 251.637 140.707C247.84 146.174 234.796 166.201 233.122 170.332C234.371 179.181 237.134 187.282 237.965 196.288C231.627 195.968 224.22 194.64 217.818 193.898C211.14 198.254 198.207 218.613 191.482 225.475C201.556 177.4 204.536 195.45 175.449 185.554L175.113 185.437C176.838 183.711 180.012 181.726 182.134 180.306L194.675 172.008C197.452 170.193 201.485 167.717 203.831 165.563Z"/><path fill="#C3D3E0" transform="scale(2 2)" d="M57.5797 240.593C73.2042 248.23 91.9555 261.183 106.85 270.45L160.687 304.018C169.055 309.257 177.117 313.855 185.508 319.333L209.123 334.606C224.046 344.156 240.402 354.993 255.977 363.284C256.139 365.656 255.987 370.223 255.984 372.822L255.977 451.853C251.957 449.659 246.956 446.396 242.928 443.954L92.5518 352.739C81.1645 345.978 69.0489 337.964 57.5797 331.607C57.9682 328.619 57.6596 325.131 57.6274 322.097C57.3486 295.852 55.7308 266.466 57.5797 240.593Z"/><path fill="#C3D3E0" transform="scale(2 2)" d="M259.366 361.84C262.354 359.936 265.73 358.082 268.804 356.219L450.796 248.532C452.039 247.796 455.105 245.489 456.251 245.675C456.475 247.48 456.252 251.401 456.247 253.493L456.251 334.05C442.973 339.812 422.382 354.63 409.322 362.403L286.492 435.505C278.641 440.225 270.633 445.382 262.605 449.773C261.253 450.858 260.917 451.06 259.366 451.853L259.366 361.84Z"/><path fill="#FDFDFD" transform="scale(2 2)" d="M259.366 361.84C262.354 359.936 265.73 358.082 268.804 356.219L450.796 248.532C452.039 247.796 455.105 245.489 456.251 245.675L456.251 250.408C450.303 252.606 444.264 256.791 438.687 260.066L268.303 360.638C266.692 361.591 264.015 363.011 262.605 364.061C262.077 392.151 262.01 421.779 262.605 449.773C261.253 450.858 260.917 451.06 259.366 451.853L259.366 361.84Z"/><path fill="#46536D" transform="scale(2 2)" d="M344.638 351.161L340.027 353.854C329.437 359.957 322.932 357.366 326.294 344.078C328.811 334.131 337.293 329.929 345.063 324.702C356.197 317.624 367.548 310.746 378.986 304.183C393.758 295.854 393.437 324.328 374.37 332.795C365.208 337.891 353.515 345.445 344.638 351.161Z"/><path fill="#01A0FF" transform="scale(2 2)" d="M382.191 306.75C390.963 306.481 383.862 322.573 379.283 325.647C367.729 333.405 354.687 340.179 343.04 347.931C340.482 349.633 335.187 353.205 332.566 354.104C323.583 352.626 330.974 338.383 335.424 335.16C345.248 328.045 370.572 311.287 382.191 306.75Z"/><path fill="#FDFDFD" transform="scale(2 2)" d="M374.37 332.795C374.431 333.727 374.666 336.196 374.37 336.961C376.874 339.055 376.329 367.754 374.391 369.995C371.808 372.983 350.36 386.243 347 386.614C344.892 385.485 344.38 358.879 345.245 354.104L344.638 351.161C353.515 345.445 365.208 337.891 374.37 332.795Z"/><path fill="#46536D" transform="scale(2 2)" d="M374.37 336.961C376.874 339.055 376.329 367.754 374.391 369.995C371.808 372.983 350.36 386.243 347 386.614C344.892 385.485 344.38 358.879 345.245 354.104C350.005 355.389 347.873 377.714 347.866 383.264C354.511 380.614 364.908 373.792 371.085 369.758C375.632 366.789 371.648 344.168 374.37 336.961Z"/><path fill="#8DA4BA" transform="scale(2 2)" d="M149.141 288.46C159.549 281.633 170.294 275.499 180.921 269.022L303.861 194.615C312.277 189.553 321.271 183.701 329.769 178.978L329.769 259.936C326.604 262.222 322.71 264.422 319.32 266.441L303.779 275.687C296.096 280.27 235.36 315.222 232.307 318.69C233.007 322.035 233.951 322.741 235.893 325.533C229.95 328.299 226.059 331.762 221.389 334.05C212.75 329.548 205.397 322.267 196.329 318.69C193.323 316.301 190.148 314.412 186.92 312.335L169.444 301.248C163.441 298.051 154.956 292.287 149.141 288.46Z"/><path fill="#758AA1" transform="scale(2 2)" d="M169.444 301.248C178.735 296.388 188.429 289.449 197.473 284.069C233.032 262.92 267.887 240.476 303.817 219.964L303.817 251.79C297.407 256.273 287.219 261.869 280.295 266.126L251.907 283.364C244.996 287.59 197.94 315.238 196.329 318.69C193.323 316.301 190.148 314.412 186.92 312.335L169.444 301.248Z"/><path fill="#FDFDFD" transform="scale(2 2)" d="M348.971 253.459C350.198 254.336 357.874 267.463 359.442 269.724C364.219 267.54 368.631 264.529 373.225 262.484C375.73 268.047 382.401 277.043 385.703 282.452C367.474 293.72 348.406 304.613 329.916 315.515L258.61 357.809C253.001 353.745 245.476 349.138 239.6 345.367C249.173 338.429 259.992 332.623 270.125 326.552C280.465 320.89 298.24 310.887 307.763 303.862C307.323 302.853 306.873 301.894 305.832 301.451C303.309 301.791 253.978 332.355 247.168 336.08C243.557 331.194 240.316 325.216 236.67 320.001C238.911 318.241 245.864 314.365 248.737 312.674L318.736 271.217C328.436 265.443 339.024 258.716 348.971 253.459Z"/><path fill="#C3D3E0" transform="scale(2 2)" d="M333.806 176.04C337.891 177.387 343.818 181.533 347.785 183.872C376.807 200.988 405.074 219.353 433.96 236.709C437.979 239.123 444.323 242.732 447.753 245.675C446.063 247.026 443.43 248.229 441.532 249.362C424.082 259.785 406.241 269.967 388.94 280.604C384.135 273.269 379.828 264.989 374.37 258.169C370.24 259.504 364.727 263.233 361.127 265.824C358.357 260.825 353.782 252.945 350.016 248.802C347.122 249.784 336.632 256.225 333.806 258.169L333.806 176.04Z"/><path fill="#C3D3E0" transform="scale(2 2)" d="M239.6 54.2004C246.056 58.437 254.96 63.4827 261.74 66.8795C262.953 67.6731 264.243 68.5999 265.559 69.1664C264.682 69.6979 262.561 71.0451 261.74 71.4058C260.717 72.4635 254.47 76.0396 252.792 77.0845L152.001 139.031C139.633 146.678 126.691 154.299 114.492 162.08C107.72 157.182 95.9486 150.796 88.3873 146.483L239.6 54.2004Z"/><path fill="#FDFDFD" transform="scale(2 2)" d="M261.74 66.8795C262.953 67.6731 264.243 68.5999 265.559 69.1664C264.682 69.6979 262.561 71.0451 261.74 71.4058L261.466 71.1908L261.011 71.3984C258.921 70.613 260.492 67.6885 261.74 66.8795Z"/><path fill="#8DA4BA" transform="scale(2 2)" d="M86.3094 149.402C93.5213 154.008 105.37 161.093 112.961 164.901L112.961 196.288C101.024 203.107 84.0116 211.905 73.1095 219.964C69.1202 221.317 59.9579 227.127 55.9041 229.571C57.2638 225.699 59.0845 221.529 60.5744 217.65L80.9923 163.51C82.7075 158.982 84.4578 153.79 86.3094 149.402Z"/><path fill="#758AA1" transform="scale(2 2)" d="M112.961 201.034L113.125 201.198C112.818 209.51 112.949 218.219 112.95 226.56L112.961 265.824C101.939 259.521 90.9984 251.353 79.8157 245.675C73.5993 241.564 64.1761 235.962 57.5797 232.619C76.1721 224.525 94.3404 210.125 112.961 201.034Z"/><path fill="#758AA1" transform="scale(2 2)" d="M309.561 164.901C315.106 167.952 321.735 172.624 327.635 176.04C325.632 177.351 323.223 178.679 321.131 179.896C317.698 182.062 313.138 184.926 309.561 186.689L309.561 164.901Z"/><path fill="#FDFDFD" transform="scale(2 2)" d="M232.307 331.607C234.189 330.394 235.972 329.202 237.965 328.173C239.929 332.221 242.439 335.086 244.054 338.287C243.548 338.565 242.016 339.453 241.564 339.618C239.606 340.758 237.803 341.855 235.893 343.074C232.24 341.432 228.286 338.633 225.193 336.08C227.431 334.461 229.925 333.007 232.307 331.607Z"/><path fill="#C3D3E0" transform="scale(2 2)" d="M232.307 331.607C234.189 330.394 235.972 329.202 237.965 328.173C239.929 332.221 242.439 335.086 244.054 338.287C243.548 338.565 242.016 339.453 241.564 339.618C238.577 337.656 234.336 334.552 232.307 331.607Z"/></svg>