<?xml version="1.0" encoding="UTF-8"?>
<svg id="_24" data-name="24" xmlns="http://www.w3.org/2000/svg" viewBox="0 0 1024 1024">
  <defs>
    <style>
      .cls-1 {
        fill: #7e6cb9;
      }

      .cls-1, .cls-2, .cls-3, .cls-4, .cls-5, .cls-6 {
        stroke-width: 0px;
      }

      .cls-2 {
        fill: #f39a2b;
      }

      .cls-3 {
        fill: #e5594f;
      }

      .cls-4 {
        fill: #4a5699;
      }

      .cls-5 {
        fill: #f0d043;
      }

      .cls-6 {
        fill: #c45fa0;
      }
    </style>
  </defs>
  <path class="cls-3" d="M772.57,772.81c21.61-1.64,25.09,26.21,4.36,33.05-11.52-.44-15.99-6.58-18.77-17.29,2.13-8.49,5.83-12.75,14.41-15.76Z"/>
  <path class="cls-5" d="M676.85,345.36c30.02-2.2,36.59,30.06,10.86,39.47-26.17,4.89-35.02-30.55-10.86-39.47Z"/>
  <path class="cls-5" d="M597.2,165.04c36.06-3.44,11.68,41.41-11.74,50.99-10.21,1.32-21.09-5.93-18.29-17.39,2.28-9.34,21.81-28.8,30.04-33.6Z"/>
  <path class="cls-5" d="M14.27,351.27c10.76-.88,22.95-.71,33.78-.06,20.99,1.27,18.57,21.47,5.03,30.96-10.09.22-26.61,1.57-35.97-.71-16.46-4-16.42-22.96-2.84-30.19Z"/>
  <path class="cls-5" d="M39.12,518.82c38.36,6.69-4.3,51.67-21.89,55.58C6.71,574.16,2.31,566.47,0,557.01c4.26-12.83,27.02-33.62,39.12-38.19Z"/>
  <path class="cls-5" d="M120.04,168.51c14.05-1.02,66.83,39.5,29.3,55.3-10.52-.35-66.51-43.86-29.3-55.3Z"/>
  <path class="cls-3" d="M952.34,522.28c9.62.44,13.56,5.27,15.86,14.39-4.01,17.04-76.18,116.92-88.76,135.34l-33.13,49.56c-7.96,11.84-12.79,24.77-27.6,28.53-33.54-7.43-1.99-40.05,7.91-54.63l52.23-76.17c12.55-18.5,57.57-93.2,73.49-97.02Z"/>
  <path class="cls-4" d="M303.64,124.86c-42.89-103.39,94.14-144.14,125.33-62.69,7.57,19.76,6.66,44.28-4.29,62.69-9-5.46-19.82-8.45-29.78-11.68-21.34-4.73-41.26-3.52-62.61,0-9.74,3.23-19.86,6.26-28.65,11.68ZM332.3,113.18c21.35-3.52,41.27-4.73,62.61,0,7.5-15.55,14-24.59,5.15-42.76-21.44-44.01-98.46-15.85-67.77,42.76Z"/>
  <path class="cls-1" d="M832.38,270.97c21.55-31.64,34.3-55.8,75.35-63.55,52.87-9.98,105.07,22.5,114.77,76.46,6.32,35.16-7.83,69.28-30.91,95.59-9.05-10.55-43.63-30.68-56.76-39.18-16.15-10.2-31.74-21.63-47.44-32.51-10.61-9.19-42.44-29.04-55-36.8Z"/>
  <path class="cls-2" d="M332.3,113.18c21.35-3.52,41.27-4.73,62.61,0,9.95,3.23,20.78,6.23,29.78,11.68,71.96,42.86,69.84,94.05,69.17,170.81-.07,8.07-1.18,17.54,0,25.45-4.84.8-10.71.14-15.69.11l-215.65-.18c-5.21,0-21.12,2.5-24.71.07l-.03-61.81c0-7.08-.92-14.03-1.14-21.08-1.49-47.4,25.58-91,67.02-113.37,8.79-5.42,18.91-8.45,28.65-11.68Z"/>
  <path class="cls-6" d="M237.8,321.12c3.59,2.43,19.5-.07,24.71-.07l215.65.18c4.98.03,10.85.69,15.69-.11,19.1,13.56,101.32,124,123.38,148.99-12.65,1.63-26.45-.1-39.29,0-26.45,1.3-59.49.68-86.03,0h-254.11l-57.17-.02c-9.5,0-19.23-.47-28.68.02-11.69-.96-23.94-.04-35.68,0,6.27-9,13.67-17.29,20.65-25.74l77.27-95.36c7.53-9.35,14.45-20.08,23.61-27.88Z"/>
  <path class="cls-3" d="M358.23,741.95c5.4-.18,10.76-.13,16.16,0,11.92,1.06,24.52-.04,36.51,0v70.26c26.99.3,54.01-.03,81.01,0,.49-2.55-.05-5.63,1.16-7.92l.78,1.58c-1.16,23.85-5.09,47.45-7.49,71.19-.99,9.74-3.89,25.92-3.86,34.7,15.25,9.53,30.54,20.66,44.91,31.5,6.53-3.02,12.92-7.76,19.07-11.6l39.69-24.9c5.44-3.43,13.49-9.95,19.65-11.15-7.02,35.15-21.04,65.3-50.71,86.9-33.51,24.39-70.3,22.44-109.72,22.43l-165.58-.02c-21.87,0-44.19,1.03-65.86-2.47-55.93-9.01-106.95-67.17-97.69-125.4h35.68c9.73,1.06,19.61.09,29.38.04l56.47-.04v-64.85c5.92.46,12.17.05,18.12.04l36.15-.02c8.4,0,22.73,1.35,30.2-.01v-70.26c11.96-.26,24.03.7,35.96,0Z"/>
  <path class="cls-4" d="M482.51,911.76c15.25,9.53,30.54,20.66,44.91,31.5-16.25,11.3-34.44,18.18-52.68,25.49,1.5-16.56,4.17-40.98,7.76-56.98Z"/>
  <path class="cls-4" d="M358.23,741.95c5.4-.18,10.76-.13,16.16,0,11.92,1.06,24.52-.04,36.51,0v70.26c26.99.3,54.01-.03,81.01,0,.49-2.55-.05-5.63,1.16-7.92l.78,1.58c-1.16,23.85-5.09,47.45-7.49,71.19h-248.57v-64.85c5.92.46,12.17.05,18.12.04l36.15-.02c8.4,0,22.73,1.35,30.2-.01v-70.26c11.96-.26,24.03.7,35.96,0Z"/>
  <path class="cls-2" d="M832.38,270.97c12.56,7.76,44.39,27.61,55,36.8,15.7,10.89,31.29,22.31,47.44,32.51,13.13,8.5,47.71,28.63,56.76,39.18-25.71,39.62-53.3,78.09-79.83,117.16l-177.78,259.06c-13.44,19.27-58.93,91.62-74.92,104.13-7.92,6.04-51.41,30.75-53.22,35.8-6.16,1.2-14.21,7.72-19.65,11.15l-39.69,24.9c-6.15,3.84-12.54,8.58-19.07,11.6-14.37-10.84-29.66-21.96-44.91-31.5-.03-8.78,2.87-24.97,3.86-34.7,2.4-23.74,6.33-47.34,7.49-71.19,6.15-12.28-1.41-41.02,9.77-60.34,20.55-25.28,58.51-77.47,74.31-106.01,8.87-11.61,16.75-24.03,25.16-35.99l175.27-254.19c17.94-25.99,34.81-53.34,54.02-78.37Z"/>
  <path class="cls-5" d="M503.62,745.52c16.91,15.64,40.62,27.14,56.78,43.05,16.3,9.29,29.36,23.36,45.43,32.74,16.94,13.88,36.63,24.44,53.22,38.5-7.92,6.04-51.41,30.75-53.22,35.8-6.16,1.2-14.21,7.72-19.65,11.15l-39.69,24.9c-6.15,3.84-12.54,8.58-19.07,11.6-14.37-10.84-29.66-21.96-44.91-31.5-.03-8.78,2.87-24.97,3.86-34.7,2.4-23.74,6.33-47.34,7.49-71.19,6.15-12.28-1.41-41.02,9.77-60.34Z"/>
  <path class="cls-1" d="M491.91,470.11c26.53.68,59.58,1.3,86.03,0l.02,113.28c0,18.61.73,37.55-.02,56.13-15.81,28.54-53.77,80.73-74.31,106.01-11.18,19.32-3.62,48.06-9.77,60.34l-.78-1.58c-1.21,2.29-.68,5.37-1.16,7.92-3.06-31.36,0-75.28.01-107.58v-234.52Z"/>
  <path class="cls-3" d="M365.25,475.27c9.86,17.32,19.8,34.64,29.28,52.17l49.38,91.05c6.12,11.52,13.32,23.66,16.96,36.22,10.47,36.19-14.47,77.25-49.97,87.23-11.99-.04-24.6,1.06-36.51,0-5.4-.13-10.76-.18-16.16,0-11.93.7-24-.26-35.96,0-35.87-6-59.86-53.16-49.88-87.86,7.67-26.64,38.38-75.23,52.16-100.83,13.88-25.77,26.18-52.58,40.7-77.99Z"/>
  <path class="cls-5" d="M365.25,579.24c9.91,14.21,44.1,77.13,48.95,92.95,10.01,32.68-13.27,56.31-39.81,69.75-5.4-.13-10.76-.18-16.16,0-56.6-33.15-48.57-57.13-22.56-107.54,9.47-18.36,18.06-38,29.58-55.17Z"/>
  <path class="cls-1" d="M151.94,470.11c9.46-.49,19.19-.02,28.68-.02l57.17.02v342.1l57.04-.04c8.92,0,18.62-.85,27.43.04-7.46,1.36-21.8.02-30.2.01l-36.15.02c-5.95,0-12.2.42-18.12-.04v64.85l-56.47.04c-9.78.04-19.65,1.02-29.38-.04v-406.95Z"/>
</svg>