<?xml version="1.0" encoding="UTF-8"?>
<svg id="_1" data-name="1" xmlns="http://www.w3.org/2000/svg" viewBox="0 0 1024 1024">
  <defs>
    <style>
      .cls-1 {
        fill: #f39a2b;
      }

      .cls-1, .cls-2, .cls-3, .cls-4, .cls-5, .cls-6 {
        stroke-width: 0px;
      }

      .cls-2 {
        fill: #4a5699;
      }

      .cls-3 {
        fill: #f0d043;
      }

      .cls-4 {
        fill: #c11d6a;
      }

      .cls-5 {
        fill: #c45fa0;
      }

      .cls-6 {
        fill: #fefefe;
      }
    </style>
  </defs>
  <path class="cls-2" d="M265.78,98.91c-.06-15.15-6.43-52.17,18.55-51.63,24.06.52,17.34,36.79,17.46,51.63h94.21c.02-9.77-1.16-29.08.7-37.9,2.78-13.16,21.34-16.89,30.25-7.42,8.18,8.69,2.73,33.48,4.46,45.32h94.09c-.05-10.82-2.63-37.5,4.95-45.54,6.95-7.36,18.67-7.7,25.84-.54,8.06,8.05,5.46,34.48,5.4,46.08h97.18c.14-10.34-1.47-29.11.69-38.36,3.9-16.74,29.27-16,32.9.72,1.89,8.72.57,27.98.51,37.64l63.64-.05c57.36-.02,61.44,3.36,61.44,66.7l-.03,79.24H.41c0-36.09.44-72.22-.31-108.29-.9-43.24,38.51-37.63,67.72-37.63l63.55.03c-.03-11.05-2.66-37.97,5.07-45.87,6.27-6.41,19.94-5.85,26.09.43,9.31,9.49,5.32,33.38,5.26,45.44,32.62.06,65.38-.66,97.98,0ZM431.42,126.05c.03,10.21,2.22,33.13-4.6,40.86-6.74,7.64-19.2,6.94-26.03-.13-7.23-7.49-4.84-30.41-4.79-40.73-30.96,20.41-18.64,59.76,11.66,64.53,38.52,6.06,58.95-46.32,23.76-64.53ZM561.71,124.84c-.05,11.45,3.3,33.19-4.72,41.46-6.7,6.91-19,7.56-25.59.2-8.44-9.45-5.96-28.53-5.89-40.46-34.5,21.64-12.33,70.99,24.64,63.98,31.76-6.02,40.24-45.39,11.56-65.19ZM265.78,126.05c-26.6,15.79-22.17,56.17,9.21,63.71,39.84,9.57,60.43-40.92,26.8-63.71.04,10.62,2.37,33.96-5.11,41.64-9.12,9.36-26.57,3.81-30.06-8.36-2.26-7.88-.89-24.35-.84-33.28ZM167.79,126.05c0,8.14,1.33,25.17-.34,32.14-3.16,13.22-19.91,19.86-30.04,9.22-9.71-10.2-5.12-28.55-6.04-41.36-18.65,16.54-24.89,42.48-1.89,58.66,38.44,27.05,80.16-30.74,38.31-58.66ZM658.89,126.05c-26.89,14.47-20.56,54.37,8.57,62.72,43.27,12.4,58.29-50.79,25.53-62.72-.29,9.8,2.56,33.33-3.56,40.36-6.58,7.56-18.01,8.15-25.11,1.03-8.21-8.23-5.5-30.21-5.43-41.39Z"/>
  <path class="cls-3" d="M.41,244.8h817.65v585.69c0,33.11-26.89,60-60,60H60.41c-33.11,0-60-26.89-60-60V244.8H.41Z"/>
  <path class="cls-1" d="M658.89,98.91c.14-10.34-1.47-29.11.69-38.36,3.9-16.74,29.27-16,32.9.72,1.89,8.72.57,27.98.51,37.64.21,9.06.14,18.09,0,27.14-.29,9.8,2.56,33.33-3.56,40.36-6.58,7.56-18.01,8.15-25.11,1.03-8.21-8.23-5.5-30.21-5.43-41.39v-27.14Z"/>
  <path class="cls-1" d="M396,98.91c.02-9.77-1.16-29.08.7-37.9,2.78-13.16,21.34-16.89,30.25-7.42,8.18,8.69,2.73,33.48,4.46,45.32.38,9.03-.03,18.11,0,27.14.03,10.21,2.22,33.13-4.6,40.86-6.74,7.64-19.2,6.94-26.03-.13-7.23-7.49-4.84-30.41-4.79-40.73v-27.14Z"/>
  <path class="cls-1" d="M265.78,98.91c-.06-15.15-6.43-52.17,18.55-51.63,24.06.52,17.34,36.79,17.46,51.63v27.14c.04,10.62,2.37,33.96-5.11,41.64-9.12,9.36-26.57,3.81-30.06-8.36-2.26-7.88-.89-24.35-.84-33.28.31-9.01.02-18.12,0-27.14Z"/>
  <path class="cls-1" d="M525.51,98.91c-.05-10.82-2.63-37.5,4.95-45.54,6.95-7.36,18.67-7.7,25.84-.54,8.06,8.05,5.46,34.48,5.4,46.08-.05,7.17-1.07,19.29,0,25.93-.05,11.45,3.3,33.19-4.72,41.46-6.7,6.91-19,7.56-25.59.2-8.44-9.45-5.96-28.53-5.89-40.46v-27.14Z"/>
  <path class="cls-1" d="M131.37,98.91c-.03-11.05-2.66-37.97,5.07-45.87,6.27-6.41,19.94-5.85,26.09.43,9.31,9.49,5.32,33.38,5.26,45.44-.05,8.79-.88,18.45,0,27.14,0,8.14,1.33,25.17-.34,32.14-3.16,13.22-19.91,19.86-30.04,9.22-9.71-10.2-5.12-28.55-6.04-41.36,1-4.59.04-21.35,0-27.14Z"/>
  <path class="cls-3" d="M387.25,684.71c4.59,7.68,10.46,23.25,13.16,32.11h-26.63c4.15-10.73,7.92-22.03,13.47-32.11Z"/>
  <path class="cls-1" d="M726.96,295.07c16.56-8.79,31.13,10.37,16.94,29.42.78,6.63-.07,17-.04,24.1.04,10.65,5.6,62.37-8.3,63.74-16.74,1.66-106.98,1.66-110.95-2.76-5.1-5.7-2.94-33.6-2.94-41.01,0-9.18-2.77-67.82,3.94-72.27,1.53-1.01,87.42-3.16,101.36-1.23Z"/>
  <path class="cls-4" d="M726.96,295.07c16.56-8.79,31.13,10.37,16.94,29.42-13.87,10.37-32.56,31.57-44.64,44.39-9.16,9.72-18.62,25.47-33.22,14.84-7.13-5.19-26.62-24.64-31.16-31.81-6.05-9.54.85-25.01,12.47-25.71,11.58-.7,21.31,13.88,29.18,20.94,11.66-14.14,36.26-40.26,50.43-52.07Z"/>
  <path class="cls-1" d="M358.97,295.07c2.91-1.06,5.74-1.37,8.8-1.71,17.1,3.64,17.27,17.65,10.15,31.13,1.96,15.07.81,59.52-.25,74.41-1.4,19.59-15.67,13.87-31.34,13.77l-68.12.07c-12.78.13-23.77,2.67-24.01-14.7-.29-21.51-2.83-76.13.59-95.78,2.09-12.04,39.54-7.22,49.31-7.21,18.24.02,36.66-.56,54.88.03Z"/>
  <path class="cls-4" d="M358.97,295.07c2.91-1.06,5.74-1.37,8.8-1.71,17.1,3.64,17.27,17.65,10.15,31.13-.19.13-.38.26-.56.39l-.93.67c-12.99,9.28-30.75,30.38-42.05,42.42-23.9,25.46-26.47,24.91-49.89,1.45-5.67-5.68-19.26-16.22-19.31-24.87-.05-8.77,9.59-17.98,18.36-17.5,9.15.5,18.92,13.77,24.61,20.07,15.75-18.08,33.63-35.33,50.83-52.07Z"/>
  <path class="cls-1" d="M549.47,293.36c16.05,4.72,19.26,16.59,12.24,31.13,1.38,13.93.91,72.35-1.09,80.16-1.05,4.09-3.46,5.86-6.92,7.98-5.25.35-10.7.03-15.98.03h-32.26c-17.59-.01-35.8.93-53.34-.19-23.64-1.51-15.34-32.24-15.35-51.36l-.02-37.41c0-10.2-2.85-21.41,5.74-28.64,31.43-1.02,68.33-.97,99.77,0,2.4-.57,4.81-1.17,7.22-1.71Z"/>
  <path class="cls-4" d="M549.47,293.36c16.05,4.72,19.26,16.59,12.24,31.13-7.42,5.11-13.46,11.89-19.75,18.29l-25.82,26.66c-9.23,9.57-20.87,25.47-35.04,13.81-7.65-6.29-23.81-21.45-28.92-29.51-6.67-10.52-1.73-24.81,12.2-24.96,10.6-.11,19.42,11.44,26.27,18.35,16.83-17.65,34.34-34.83,51.61-52.07,2.4-.57,4.81-1.17,7.22-1.71Z"/>
  <path class="cls-1" d="M178.98,295.07c18.61-2.52,28.6,13.5,17.24,29.42.74,4.14-.03,17.19-.02,22.28.13,77.54,15.27,65.92-64.37,65.9-12.53,0-48.58,2.74-59.13-2.58-3.62-12.77-2.21-87.4-1.62-105.23.27-8.38,4.77-9.59,11.96-9.83,20.47-.66,76.46-2.8,95.93.02Z"/>
  <path class="cls-4" d="M178.98,295.07c18.61-2.52,28.6,13.5,17.24,29.42-7.35,5.26-13.5,11.91-19.93,18.21l-26.8,26.4c-9.86,9.75-21.38,24.94-36.11,13.23-5.77-4.59-25.18-23.66-28.95-29.36-6.65-10.06.13-25.31,12.75-25.64,10.47-.27,20.39,13.27,27.7,19.8,17.41-16.24,35.42-38.25,54.11-52.07Z"/>
  <path class="cls-1" d="M178.98,633.27c11.62-8.51,37.47,4.15,17.24,29.33,1.37,6.44.05,15.08.03,21.8l-.03,57.61c-8.44,15.02-53.87,8.35-71.35,8.34-14.98,0-53.17,7.27-53.78-12.13-.64-19.95-2.62-78.47.59-96.81,1.3-7.4,7.06-7.69,13.38-8,16.32-.79,78.34-2.83,93.91-.14Z"/>
  <path class="cls-4" d="M178.98,633.27c11.62-8.51,37.47,4.15,17.24,29.33-14.2,10.9-63.44,66.47-73.33,68.78-5.55,1.29-41.54-37.14-42.48-42.89-1.39-8.54,7.41-17.89,15.55-18.88,10.02-1.21,19.4,13.11,26.69,18.77,20.99-15.9,35.73-38.99,56.33-55.1Z"/>
  <path class="cls-1" d="M358.97,463.9c21.34-7.4,29.88,11.26,20.64,28.08l-1.69,3.03c.75,2.08,3.17,79.66-3.51,85.76-3.35,3.06-93.51,2.45-107.03,2.09-21.03-.56-13.22-28.05-13.23-45.95,0-10.92-3.64-66.64,4.21-71.7,2.96-1.91,89.29-1.97,100.6-1.31Z"/>
  <path class="cls-4" d="M358.97,463.9c21.34-7.4,29.88,11.26,20.64,28.08l-1.69,3.03c-18.76,8.33-61.16,71.33-73.35,63.25-4.94-3.27-32.62-29.6-36.42-34.52-8.02-10.39-3.72-25.18,10.42-27.18,10.76-1.52,21.52,13.2,29.58,19.51,7.92-10.58,40.08-44.23,50.83-52.18Z"/>
  <path class="cls-1" d="M175.34,465.16c16.24-10.92,38.91,2.65,20.87,26.39,2.07,16.67.85,61.78-.11,78.31-.33,5.66-.74,10.27-7.22,11.56-14.52,2.9-108.57,2.98-116.55-2.55-2.56-7.75-1.91-89.52-1.09-103.99.56-9.88,1.27-10.13,11.27-10.79,10.95-.72,86.79-1.09,92.82,1.07Z"/>
  <path class="cls-4" d="M175.34,465.16c16.24-10.92,38.91,2.65,20.87,26.39-14,10.35-34.88,33.54-47.42,46.43-13.18,13.53-21.18,28.61-38.36,12.16-8.28-7.93-28.91-24.74-28.84-36.56.06-9.39,8.27-18.83,18.1-18.09,10.16.77,19.07,13.45,25.18,20.59,16.26-17.47,33.33-34.31,50.48-50.92Z"/>
  <path class="cls-1" d="M726.96,463.9c13.19-6.96,30.75,3.17,24.85,19.13-1.63,4.4-5.09,8.3-7.91,11.98,1.14,10.54,0,22.79.01,33.55v29.14c.01,14.9,2.64,27.19-15.25,31.72-15.46-3.01-29.05-7.92-45.3-7.73-10.82.13-21.39,2.81-32.23,2.3-9.23-.86-19.76,2.63-27.26-4.66-4.02-9.3-3.09-91.13-1.68-106.27.81-8.7,6.05-9,13.5-9.26,15.82-.56,76.84-2.46,91.28.1Z"/>
  <path class="cls-4" d="M726.96,463.9c13.19-6.96,30.75,3.17,24.85,19.13-1.63,4.4-5.09,8.3-7.91,11.98-14.45,10.87-52.04,57.86-64.82,60.76-10.26,2.33-44.89-34.25-46.35-42.65-1.57-9.03,6.61-18.08,15.3-19.3,11.4-1.6,20.4,13.12,28.5,19.35,13.31-8.59,39.5-37.29,50.43-49.27Z"/>
  <path class="cls-1" d="M539.77,463.9c19.24-10.38,32.73,4,21.94,27.64,1.93,8.59.02,36.17.01,46.8,0,12.38,5.51,44.04-11.36,44.34-25.96.46-79.46,2.81-103.99-.43-14.47-1.91-9.59-36.43-9.6-46.25l.02-65.21c6.87-10.67,19.59-7.05,30.51-6.93l32.44.05c6.58,0,35.5-1.22,40.04,0Z"/>
  <path class="cls-4" d="M539.77,463.9c19.24-10.38,32.73,4,21.94,27.64-17.12,8.83-59.09,69.09-72.25,64.78-9.96-3.26-63.78-48.45-25.96-58.33,11.4-2.98,18.38,8.3,27.15,13.19,8.05-3.16,40.26-38.56,49.13-47.28Z"/>
  <path class="cls-5" d="M785.13,585.46c14.46.68,28.55-2.9,42.98-3.07,21.67-.26,39.8,6.29,60.41,10.31,43,19.19,71.61,33.75,100.52,75,6.17,8.8,11.33,24.1,18.66,30.83,3.4,13.56,8.34,26.59,11.35,40.26,40.02,181.88-171.81,306.21-308.38,197.03-5.79-4.63-11.27-10.26-17.54-14.19-13.28-18.26-29.33-32.86-39.9-53.56-49.99-97.91-5.35-215.13,90.29-264.49,13.11-6.77,27.39-10.66,40.37-17.46l1.24-.66Z"/>
  <path class="cls-6" d="M750.17,685.28c24.14-.77,33.19-1.23,34.67,24.53,1.2,20.94,2.75,153.61-1.13,167.49-5.31,18.96-30.79,14.11-37.8-.97-1.18-15.44-.04-31.73-.03-47.28l.03-99c-27.39,18.85-49.89,2.25-37.96-17.96,5.18-8.78,32.5-24.33,42.22-26.81Z"/>
  <path class="cls-6" d="M834.3,685.28c20.42-.56,69.02-2.27,87.81.98,12.09,2.1,13.04,26.92,5.68,34.24-6.91,6.87-24.59,4.27-33.32,4.25l-41.98-.1v39.79c17.88-.26,42.99-2.44,59.14,6.15,39.51,21.02,34.65,100.05-25.37,116.04-76.93,13.08-101.59-57.42-51.95-54.52,12.92,7.11,19.11,20.83,35.76,20.82,18.45-.01,26.61-16.55,26.21-33.03-.92-38.04-57.42-4.37-82.26-27.94-1.73-19.85-1.46-72.27.97-90.47,1.57-11.69,8.24-14.63,19.32-16.22Z"/>
  <g>
    <path class="cls-2" d="M258.15,680.81h35.87c8.09,0,14.25.62,18.5,1.86,5.7,1.68,10.59,4.66,14.65,8.95,4.07,4.29,7.16,9.54,9.28,15.75,2.12,6.21,3.18,13.87,3.18,22.97,0,8-.99,14.9-2.98,20.69-2.43,7.07-5.9,12.8-10.41,17.17-3.4,3.32-8,5.9-13.79,7.76-4.33,1.37-10.12,2.06-17.37,2.06h-36.93v-97.19ZM277.77,697.26v64.38h14.65c5.48,0,9.44-.31,11.87-.93,3.18-.8,5.82-2.14,7.92-4.04,2.1-1.9,3.81-5.03,5.14-9.38,1.33-4.35,1.99-10.29,1.99-17.8s-.66-13.28-1.99-17.3c-1.33-4.02-3.18-7.16-5.57-9.41s-5.42-3.78-9.08-4.57c-2.74-.62-8.11-.93-16.11-.93h-8.82Z"/>
    <path class="cls-2" d="M443.92,778.01h-21.35l-8.49-22.08h-38.85l-8.02,22.08h-20.82l37.86-97.19h20.75l38.92,97.19ZM407.79,739.55l-13.39-36.07-13.13,36.07h26.52Z"/>
    <path class="cls-2" d="M467.39,778.01v-40.91l-35.6-56.29h23.01l22.87,38.45,22.41-38.45h22.61l-35.73,56.42v40.77h-19.56Z"/>
    <path class="cls-2" d="M527.46,746.38l19.09-1.86c1.15,6.41,3.48,11.12,7,14.12,3.51,3.01,8.25,4.51,14.22,4.51,6.32,0,11.08-1.34,14.29-4.01,3.2-2.67,4.81-5.8,4.81-9.38,0-2.3-.67-4.25-2.02-5.87-1.35-1.61-3.7-3.02-7.06-4.21-2.3-.8-7.54-2.21-15.71-4.24-10.52-2.61-17.9-5.81-22.14-9.61-5.97-5.35-8.95-11.87-8.95-19.56,0-4.95,1.4-9.58,4.21-13.89,2.81-4.31,6.85-7.59,12.13-9.85,5.28-2.25,11.66-3.38,19.13-3.38,12.2,0,21.38,2.67,27.55,8.02,6.17,5.35,9.4,12.49,9.71,21.41l-19.62.86c-.84-4.99-2.64-8.59-5.4-10.77-2.76-2.19-6.91-3.28-12.43-3.28s-10.17,1.17-13.39,3.51c-2.08,1.5-3.12,3.51-3.12,6.03,0,2.3.97,4.27,2.92,5.9,2.47,2.08,8.49,4.24,18.03,6.5,9.55,2.25,16.61,4.59,21.18,6.99,4.57,2.41,8.15,5.7,10.74,9.88s3.88,9.34,3.88,15.48c0,5.57-1.55,10.79-4.64,15.65-3.09,4.86-7.47,8.48-13.13,10.84-5.66,2.36-12.71,3.55-21.15,3.55-12.29,0-21.72-2.84-28.31-8.52-6.59-5.68-10.52-13.96-11.8-24.83Z"/>
  </g>
</svg>