<?xml version="1.0" encoding="UTF-8"?>
<svg id="_2" data-name="2" xmlns="http://www.w3.org/2000/svg" viewBox="0 0 1024 1024">
  <defs>
    <style>
      .cls-1 {
        fill: #fdd6a0;
      }

      .cls-1, .cls-2, .cls-3, .cls-4, .cls-5, .cls-6 {
        stroke-width: 0px;
      }

      .cls-2 {
        fill: #f39a2b;
      }

      .cls-3 {
        fill: #e5594f;
      }

      .cls-4 {
        fill: #4a5699;
      }

      .cls-5 {
        fill: #f0d043;
      }

      .cls-6 {
        fill: #c45fa0;
      }
    </style>
  </defs>
  <g>
    <path class="cls-5" d="M814.88,395.22c33.93-19.98,66.75-27.68,106.37-17.57,72.36,18.45,115.17,102,96.29,172.43-19.44,72.51-93.98,118.36-167.16,98.65-11.73-3.16-22.13-8.96-33.59-12.58-10.49,2.14-63.4,20.42-66.22,15.99-3.12-4.9,9.02-81.63,8.79-95.01-.14-8.29-2.17-16.97-3.22-25.22-6.64-52.29,9.55-109.69,58.74-136.69Z"/>
    <path class="cls-4" d="M836.51,453.57c31-10.76,60.49,35.34,32.63,55.14,51.67,62.82-66.14,92.84-67.1,26.77h14.76c3.44.1,6.92,0,10.37,0,5.06,23.93,28.58,19.07,30.97,3.79,2.87-18.3-10.74-18.72-24.62-20.38-.24-6.74-.04-13.53,0-20.28,5.22.07,11.8.81,16.74-.84,19.41-6.46-9.45-46.16-23.09-9.66h-22.52c-.31-19.92,11.63-33.92,31.87-34.55Z"/>
    <path class="cls-4" d="M926.69,453.57c19.12-2.43,39.77,9,43.46,28.82,1.43,7.65,1.45,53.45-.02,61.53-2.97,16.4-15.52,26.37-31.67,29.01-20.79,1.05-40.78-7.54-44-30.21-1.29-9.04-1.33-53.87.38-62.69,3.12-16.1,16.19-24.48,31.85-26.46Z"/>
    <path class="cls-5" d="M931.62,475.32c27.12.58,13.59,68.28,12.53,69.82-2.39,3.46-6.68,4.59-10.58,5.24-8.49-.41-13.5-3.28-14.77-11.81-1.77-11.89-1.15-43.44-.5-56.29,4.03-3.87,7.84-5.89,13.32-6.96Z"/>
    <path class="cls-2" d="M620.04,134.51c-.04-12.27-1.53-36.69.92-47.76,4.74-21.47,35.55-21.38,40.76-.42,2.39,9.62.86,36.95.88,48.18l48.27-.02c54.88,0,104,12.2,104.1,78.04l-.08,81.7H.43l-.06-66.49c-.13-70.17,36.29-93.29,102.19-93.28l47.12.04c.22-15.32-5.28-45.01,6.77-56.86,11.73-11.53,32.22-4.37,35.57,11.11,2.06,9.5.4,34.55.49,45.75"/>
    <path class="cls-4" d="M149.69,134.51c.22-15.32-5.28-45.01,6.77-56.86,11.73-11.53,32.22-4.37,35.57,11.11,2.06,9.5.4,34.55.49,45.75,0,8.45-.29,17.01,0,25.45,42.89,37.14-11.09,88.58-45.36,57.31-18.23-16.63-14.27-41.56,2.53-57.31,1.29-4.14.03-19.89,0-25.45Z"/>
    <path class="cls-4" d="M620.04,134.51c-.04-12.27-1.53-36.69.92-47.76,4.74-21.47,35.55-21.38,40.76-.42,2.39,9.62.86,36.95.88,48.18.28,7.43.73,15.13,0,22.54,21.08,15.86,23.02,46.88.5,63.31-40,29.18-87.64-31.29-43.05-63.31,1.13-4.93.01-16.8,0-22.54Z"/>
    <path class="cls-6" d="M.43,294.23h814.45v62.94c-.74,12.54-1.48,25.55,0,38.04-49.19,27-65.38,84.4-58.74,136.69,1.05,8.25,3.08,16.93,3.22,25.22.23,13.38-11.91,90.1-8.79,95.01,2.82,4.43,55.73-13.85,66.22-15.99v94.7l-.02,106.35c.06,71.6,1.63,115.05-84.58,115.94-51.47.53-103.01.03-154.49.03l-479.76.03c-45.52,0-87.59-11.35-96.2-65.64-2.89-18.21-1.33-44.18-1.31-63.15V294.23Z"/>
    <path class="cls-1" d="M545.03,546.35l90.56-.02c19.3,0,52.12-8.34,53.89,15.9,1.17,15.96,2.06,105.95-.7,116.17-1.2,4.45-4.35,6.73-8.23,8.84-6.42.48-13.16.06-19.62.05l-38.17-.06c-16.34-.01-82.77,7.41-87.43-9.74-2.41-8.87-2.02-100.08-.9-116.92.55-8.27,2.08-12.25,10.59-14.22Z"/>
    <path class="cls-3" d="M661.02,566.98c6.16-.26,10.88.84,15.47,5.28,15.91,15.35-4.78,30.1-14.95,40.54l-43.44,44.03c-21.98,22.36-31.83.9-51.37-18.47-6.08-6.05-19.69-16.91-20.95-25.81-1.38-9.77,9.37-18.58,18.34-19.1,11.73-.69,28.46,21.68,37.14,29.53,15.25-11.81,45.43-51.25,59.76-55.99Z"/>
    <path class="cls-1" d="M549.81,367.66l86.75.03c46.2.04,53.35-9.88,53.37,42.85v43.28c0,14.69,7.35,54.31-13.86,54.9l-92.65-.05c-39.2-.26-49.02,11.18-49.09-32.73v-70.09c-.01-15.36-4.45-34.88,15.49-38.19Z"/>
    <path class="cls-3" d="M658.05,387.83c10.03-.12,19.37,7.03,19.59,17.53.28,13.58-55.6,63.46-66.67,74.53-18.03,18.04-33.05-8.17-46.97-22.38-7.01-7.26-19.44-15.63-19.19-26.64.22-9.73,9.39-18.04,19.06-17.57,11.73.58,27.33,20.9,34.94,29.45,9.43-10.62,47.56-51.96,59.26-54.9Z"/>
    <path class="cls-1" d="M329.58,367.66c35.48-.58,95.11-3.35,129.4.41,16.67,1.83,12.85,26.56,12.84,38.48l-.11,38.68c0,14,7.2,61.8-12.46,63.48l-89.03-.02c-13.37,0-49.23,5.92-54.11-9.1-1.86-5.73-1.56-103.46-.79-115.73.61-9.65,4.49-13.92,14.26-16.21Z"/>
    <path class="cls-1" d="M549.81,732.61c4.93-.48,10.26-.03,15.24-.03h32.41c25.54,0,52.34-1.06,77.75.21,19.04.95,14.79,21.04,14.78,34.69l.06,74.34c.08,12.72,2.49,29.96-13.98,32.5-36.38,1.2-72.79-.53-109.18.08-34.17.57-32.7-3.41-32.62-33.02l-.06-74.36c-.17-16.27-5.08-32.57,15.61-34.4Z"/>
    <path class="cls-2" d="M329.58,546.35c37.63-.54,91.89-2.96,128.75.21,17.72,1.52,13.55,19.07,13.52,32.02v75.64c.05,11.44,3.12,30.72-12.59,33.02h-89.9c-37.63-.02-54.33,11.62-54.24-32.26v-73.34c-.04-15.7-4.89-32.35,14.47-35.29Z"/>
    <path class="cls-3" d="M439.25,569.5c11.16-1.43,23.19,7.88,21.73,19.82-1.12,9.2-13.12,18.45-19.21,24.58l-27.51,27.35c-10.15,10.1-24.17,33.77-40.45,21.69-5.52-4.1-21.83-20.96-25.78-26.81-44.47-32.01-10.98-52.25,4.15-43.41,9.37,5.48,23.33,21.99,31.36,30.23,14.19-12.9,40.96-46.71,55.72-53.46Z"/>
    <path class="cls-2" d="M431.59,732.61c11.93.23,37.53-5.97,39.91,11.1,1.56,11.23.26,27,.25,38.65l.04,82.74c-8.6,14.5-31.84,9.24-46.26,9.24l-70.59-.02c-44.45.25-39.79.67-39.81-38.7v-66.56c-.01-42.26-1.3-36.51,44.12-36.47l72.34.02Z"/>
    <path class="cls-3" d="M443.82,750.49c13.24.14,22.58,14.75,14.78,26.42-11.22,16.77-44.99,47.46-59.99,62.45-21.55,21.54-41.58-13.98-57.93-30.41-6.9-6.87-19.69-16.52-18.08-27.55,1.76-12.04,16.03-21.08,26.64-13.52,6.93,4.94,29.34,29.21,34.3,36.06,14.42-12.03,44.07-50.66,60.28-53.43Z"/>
    <path class="cls-1" d="M119.84,546.35l76.64-.03c16.94,0,54.18-7.23,55.8,14.81,1.14,15.55,2.87,114.43-3.34,121.11-5.12,5.5-14.22,4.9-21.09,5.01l-77.22.02c-15.93,0-53.07,6.42-57.69-12.69-2.1-8.7-.78-39.02-.78-49.41l.02-38.7c0-33.06-5.98-39.38,27.65-40.11Z"/>
    <path class="cls-3" d="M216.91,569.5c11-.86,21.02,4.9,21.94,16.87,1.08,14-38.78,47.42-48.97,57.56-35.35,35.21-32.39,21.19-64.69-10.16l-9.19-8.66c-17.7-16.9-11.4-37.54,8.08-35.69,11.07,1.05,31.68,24.62,39.18,33.54,7.25-9.74,43.97-48.28,53.66-53.46Z"/>
    <path class="cls-1" d="M151.85,732.61l53.97-.04c23.03,0,45.92-6.78,46.68,21.47.4,14.74,2.97,109.15-4.01,115.78-6.7,6.37-19.04,4.66-27.42,4.6l-26.77-.11-55.78.02c-28.71,0-45.49,7.23-46.26-27.48-.6-26.95-2.35-70.61.49-96.8,2.82-26,38.17-17.52,59.09-17.45Z"/>
    <path class="cls-3" d="M108.28,367.66c6.92-1.29,14.44-.07,21.45-.05l87.68.02c34.11-.35,35.21-1.42,35.21,36.8l-.07,72.85c.01,12.86,2.58,30.42-14.98,31.44l-97.87-.06c-14.06-.09-44.14,6.98-47.31-13.25-1.43-9.17-.2-28.53-.21-38.7l-.02-45.32c0-15.42-5.08-41.2,16.12-43.72Z"/>
  </g>
  <g>
    <path class="cls-4" d="M235.81,183.41h24.59l9.48,36.82,9.42-36.82h24.57v60.51h-15.31v-46.14l-11.8,46.14h-13.86l-11.78-46.14v46.14h-15.31v-60.51Z"/>
    <path class="cls-4" d="M313.45,213.7c0-9.88,2.75-17.57,8.25-23.07s13.17-8.25,22.99-8.25,17.83,2.7,23.28,8.11c5.45,5.41,8.17,12.98,8.17,22.72,0,7.07-1.19,12.87-3.57,17.4-2.38,4.53-5.82,8.05-10.32,10.57-4.5,2.52-10.11,3.78-16.82,3.78s-12.47-1.09-16.94-3.26c-4.47-2.17-8.1-5.61-10.88-10.32-2.78-4.71-4.17-10.59-4.17-17.67ZM332.14,213.79c0,6.11,1.14,10.5,3.41,13.17,2.27,2.67,5.36,4,9.27,4s7.13-1.31,9.33-3.92c2.2-2.61,3.3-7.31,3.3-14.07,0-5.7-1.15-9.86-3.45-12.49-2.3-2.63-5.41-3.94-9.35-3.94s-6.8,1.33-9.08,4c-2.28,2.67-3.43,7.09-3.43,13.25Z"/>
    <path class="cls-4" d="M386.34,183.41h17.46l22.78,33.48v-33.48h17.62v60.51h-17.62l-22.66-33.22v33.22h-17.58v-60.51Z"/>
    <path class="cls-4" d="M452.37,183.41h56.83v14.94h-19.07v45.57h-18.7v-45.57h-19.07v-14.94Z"/>
    <path class="cls-4" d="M517.75,183.41h18.7v21.17h20.43v-21.17h18.78v60.51h-18.78v-24.48h-20.43v24.48h-18.7v-60.51Z"/>
  </g>
</svg>