<?xml version="1.0" encoding="utf-8" ?><svg xmlns="http://www.w3.org/2000/svg" xmlns:xlink="http://www.w3.org/1999/xlink" width="1024" height="1024" viewBox="0 0 1024 1024"><path fill="#F0D043" transform="scale(2 2)" d="M361.475 115.121C361.479 108.638 360.914 98.7211 361.842 92.5659C363.161 83.8086 379.23 82.898 380.528 93.5106C381.389 100.545 380.612 107.965 380.829 115.121C384.748 115.117 392.556 114.882 396.208 115.121L409.299 115.097C441.263 114.875 438.136 130.468 438.356 157.039C437.991 167.568 438.839 178.743 438.346 189.207L438.333 380.119C438.331 394.746 441.01 418.255 419.838 420.274C415.197 420.716 409.869 420.541 405.146 420.54L98.5132 420.479C78.7471 420.888 73.7741 407.625 73.7968 390.707L73.8164 204.324C73.8147 199.312 73.6777 194.193 73.8166 189.207C73.6126 187.579 73.7806 184.146 73.7893 182.382L73.82 144.525C73.7706 135.46 72.4207 128.047 79.803 121.025C88.9415 112.289 114.927 114.857 127.364 115.121C131.469 115.107 130.292 113.594 130.276 109.727C130.256 104.815 129.433 95.6062 131.5 91.2372C134.89 84.0744 146.159 84.0862 149.845 90.9321C152.285 95.465 151.02 109.471 151.187 115.121L214.286 115.117C224.679 115.116 235.648 114.919 245.967 115.121C246.577 114.027 245.321 96.3516 246.241 93.3147C249.487 82.5914 263.779 83.809 265.507 92.918C266.388 99.8976 265.74 108.027 265.895 115.121L361.475 115.121Z"/><path fill="#4A5699" transform="scale(2 2)" d="M361.475 115.121C361.479 108.638 360.914 98.7211 361.842 92.5659C363.161 83.8086 379.23 82.898 380.528 93.5106C381.389 100.545 380.612 107.965 380.829 115.121C384.748 115.117 392.556 114.882 396.208 115.121L409.299 115.097C441.263 114.875 438.136 130.468 438.356 157.039C437.991 167.568 438.839 178.743 438.346 189.207L73.8166 189.207C73.6126 187.579 73.7806 184.146 73.7893 182.382L73.82 144.525C73.7706 135.46 72.4207 128.047 79.803 121.025C88.9415 112.289 114.927 114.857 127.364 115.121C131.469 115.107 130.292 113.594 130.276 109.727C130.256 104.815 129.433 95.6062 131.5 91.2372C134.89 84.0744 146.159 84.0862 149.845 90.9321C152.285 95.465 151.02 109.471 151.187 115.121L214.286 115.117C224.679 115.116 235.648 114.919 245.967 115.121C246.577 114.027 245.321 96.3516 246.241 93.3147C249.487 82.5914 263.779 83.809 265.507 92.918C266.388 99.8976 265.74 108.027 265.895 115.121L361.475 115.121Z"/><path fill="#C45FA0" transform="scale(2 2)" d="M127.364 115.121C131.469 115.107 130.292 113.594 130.276 109.727C130.256 104.815 129.433 95.6062 131.5 91.2372C134.89 84.0744 146.159 84.0862 149.845 90.9321C152.285 95.465 151.02 109.471 151.187 115.121C151.161 122.066 151.695 129.53 150.949 136.421C149.712 147.832 132.899 147.649 130.816 137.559C129.595 131.646 130.239 121.537 130.251 115.121L127.364 115.121Z"/><path fill="#C45FA0" transform="scale(2 2)" d="M245.967 115.121C246.577 114.027 245.321 96.3516 246.241 93.3147C249.487 82.5914 263.779 83.809 265.507 92.918C266.388 99.8976 265.74 108.027 265.895 115.121C265.911 121.086 266.451 131.354 265.509 136.937C263.931 146.289 249.876 148.051 246.518 137.16C245.359 133.401 246.479 116.096 245.967 115.121Z"/><path fill="#C45FA0" transform="scale(2 2)" d="M361.475 115.121C361.479 108.638 360.914 98.7211 361.842 92.5659C363.161 83.8086 379.23 82.898 380.528 93.5106C381.389 100.545 380.612 107.965 380.829 115.121C384.748 115.117 392.556 114.882 396.208 115.121C392.458 115.356 384.828 115.124 380.829 115.121C380.829 121.577 381.584 132.1 380.023 138.311C378.548 144.178 368.643 145.836 364.656 141.61C359.879 137.269 361.459 121.994 361.475 115.121Z"/><path fill="#F39A2B" transform="scale(2 2)" d="M275.718 224.782C287.613 224.657 299.583 224.795 311.482 224.824C321.334 223.984 317.727 253.025 317.297 259.078C317.032 262.808 314.449 264.275 311.083 264.722L287.652 264.75C278.52 264.758 269.362 267.531 269.599 255.638C269.776 246.783 265.869 226.371 275.718 224.782Z"/><path fill="#F39A2B" transform="scale(2 2)" d="M200.114 224.782C206.581 225.305 236.153 223.617 239.493 225.716C244.042 228.575 241.947 244.976 241.94 250.167C241.931 255.71 243.891 263.108 236.592 264.722L213.114 264.747C194.389 264.751 192.487 265.427 194.264 244.921C194.826 238.447 191.942 226.297 200.114 224.782Z"/><path fill="#F39A2B" transform="scale(2 2)" d="M275.718 353.564C285.438 352.857 304.822 352.936 313.965 354.209C320.159 355.072 317.67 382.741 317.507 387.724C317.415 390.495 314.787 392.486 312.259 392.995C301.199 393.627 287.918 393.15 276.763 392.937C270.662 392.224 269.632 389.357 269.646 383.269C269.665 375.194 266.353 355.086 275.718 353.564Z"/><path fill="#F39A2B" transform="scale(2 2)" d="M384.728 289.779C390.243 289.335 391.85 291.629 391.994 296.977C392.231 305.763 392.393 314.8 391.992 323.576C391.706 329.851 378.851 328.237 374.981 328.237L351.438 328.218C345.792 328.36 343.872 325.989 343.923 320.439C344.001 312.018 343.707 303.443 344.134 295.039C344.492 287.993 356.311 289.755 360.905 289.759L384.728 289.779Z"/><path fill="#F39A2B" transform="scale(2 2)" d="M201.894 354.085L223.982 354.065C227.322 354.064 236.132 353.488 239.32 355.192C243.703 357.536 241.984 383.405 241.621 387.899C241.27 392.114 238.389 392.922 234.698 392.995L211.355 393.016C205.751 393.018 194.428 395.075 194.349 386.6C194.265 377.666 194.135 368.645 194.399 359.718C194.548 354.678 197.799 354.291 201.894 354.085Z"/><path fill="#F39A2B" transform="scale(2 2)" d="M275.718 289.779C287.4 289.571 299.181 289.885 310.876 289.778C321.359 287.603 317.588 316.203 317.656 322.365C317.691 325.605 314.825 327.518 312.259 328.218C301.091 328.941 287.39 328.292 276.094 328.198C266.838 328.122 269.781 314.828 269.628 308.709C269.441 301.239 267.189 291.51 275.718 289.779Z"/><path fill="#F39A2B" transform="scale(2 2)" d="M201.131 289.779L224.49 289.772C228.122 289.764 241.34 288.026 241.71 294.007C242.272 303.069 242.028 312.398 241.795 321.486C241.666 325.995 239.639 327.529 235.506 328.218L213.46 328.231C208.337 328.227 194.915 330.058 194.542 322.888C194.068 313.773 194.236 304.461 194.371 295.332C194.436 290.903 197.328 290.115 201.131 289.779Z"/><path fill="#F39A2B" transform="scale(2 2)" d="M125.623 353.564C131.398 353.762 164.929 351.385 166.754 356.288C167.712 358.862 170.461 390.805 163.325 392.995C151.241 393.455 138.934 393.133 126.848 392.959C123.264 392.908 121.196 390.62 121.091 387.17C120.826 378.414 120.178 364.602 120.998 355.97C122.669 354.776 123.699 354.174 125.623 353.564Z"/><path fill="#F39A2B" transform="scale(2 2)" d="M125.623 289.779L147.473 289.763C152.825 289.765 159.571 289.535 164.732 290.443C169.421 294.314 167.268 313.37 167.31 320.204C167.334 324.037 167.261 326.347 163.325 328.218C161.563 328.448 154.871 328.227 152.571 328.227L135.392 328.237C130.416 328.238 120.936 330.008 121.037 322.772C121.176 312.819 120.485 302.59 121.374 292.711C121.498 291.332 124.542 290.189 125.623 289.779Z"/><path fill="#A02F8B" transform="scale(2 2)" d="M369.139 215.304C377.493 214.51 390.979 231.607 396.052 237.738C399.49 241.895 397.571 246.811 394.194 250.137C387.559 256.672 381.064 264.992 373.808 270.65C370.013 273.41 355.546 268.62 369.139 255.208C370.812 253.517 372.065 252.112 373.608 250.297C365.459 250.135 357.392 250.452 349.07 250.314C342.442 250.204 333.249 252.577 332.233 242.871C331.283 233.804 343.757 235.641 349.027 235.647L373.608 235.661C369.153 230.196 355.965 221.016 369.139 215.304Z"/><path fill="#A02F8B" transform="scale(2 2)" d="M140.371 216.07C144.503 216.03 147.762 219.272 147.83 223.272C147.909 227.909 141.153 232.516 138.069 235.661L162.033 235.649C165.603 235.644 170.697 235.377 173.918 235.82C182.857 237.051 179.878 249.942 173.986 250.237C170.421 250.416 166.808 250.313 163.239 250.311L137.131 250.297C138.199 251.186 139.328 252.243 140.371 253.182C156.813 267.858 141.491 273.122 138.031 270.322C129.934 263.77 122.366 255.648 114.89 248.35C107.865 241.494 121.805 231.173 125.953 227.147C130.339 223.269 134.475 217.054 140.371 216.07Z"/></svg>