<?xml version="1.0" encoding="utf-8" ?><svg xmlns="http://www.w3.org/2000/svg" xmlns:xlink="http://www.w3.org/1999/xlink" width="1024" height="1024" viewBox="0 0 1024 1024"><path fill="#F0E2CA" transform="scale(2 2)" d="M222.469 87.3228L222.443 71.3544C222.435 68.6313 222.246 66.0353 222.484 63.2682C223.03 56.939 232.537 56.0409 234.053 62.1014C234.526 63.9961 234.277 68.4855 234.275 70.6628L234.247 87.3228L281.381 87.3228L281.371 72.4303C281.372 69.3053 281.24 65.6968 281.695 62.7425C282.67 56.4226 292.466 56.364 292.873 63.1844C293.045 66.0688 293.014 68.6985 293.009 71.4866L292.986 87.3228C308.264 87.322 324.917 86.9852 340.066 87.3228C340.351 79.0417 339.573 69.9845 340.345 61.6987C340.768 57.1587 350.532 56.5465 351.705 62.7833C352.146 65.517 351.975 69.0229 351.972 71.9526L351.947 87.3228L353.807 87.3228C359.341 87.314 377.813 86.6773 381.971 87.928C392.588 91.1215 389.879 106.18 389.881 114.359L389.871 152.552C391.453 150.122 392.906 147.546 394.366 145.037C396.229 141.726 398.294 138.385 400.258 135.121C403.466 129.939 409.938 117.229 413.836 113.915C421.398 108.388 426.939 115.392 432.877 119.339C452.892 132.642 444.011 138.192 434.074 154.96C432.333 157.971 429.714 162.763 427.804 165.482C419.06 179.743 410.658 194.63 402.158 209.084L394.553 221.953C393.095 224.43 390.751 228.123 389.871 230.675C390.213 233.271 389.915 237.765 389.889 240.622L389.891 405.899C389.893 407.167 389.995 412.974 389.871 413.924C389.772 421.565 392.028 441.162 386.835 446.128C383.338 450.168 372.591 448.833 367.722 448.831L77.1309 448.859C65.1458 448.9 67.7957 429.375 67.8303 421.282L67.8237 109.153C67.824 87.8698 67.9079 87.315 87.6324 87.3102L107.833 87.3228L107.808 72.1336C107.805 69.13 107.34 62.5995 109.04 60.1386C111.119 57.6006 115.843 57.348 118.087 59.6543C120.681 62.3189 119.929 67.3814 119.924 71.0745L119.896 87.3228L150.435 87.3109C154.76 87.3091 161.197 87.0881 165.284 87.3228L165.265 71.602C165.24 68.7191 164.969 65.3707 165.271 62.5719C165.891 56.8194 174.953 56.4381 176.262 61.9355C176.915 64.6747 176.612 68.965 176.611 71.8674L176.582 87.3228C181.56 87.473 187.013 87.3306 192.032 87.3272L222.469 87.3228Z"/><defs><linearGradient id="gradient_0" gradientUnits="userSpaceOnUse" x1="283.96524" y1="64.828224" x2="171.69844" y2="450.702"><stop offset="0" stop-color="#F9B23C"/><stop offset="1" stop-color="#FCCD3B"/></linearGradient></defs><path fill="url(#gradient_0)" transform="scale(2 2)" d="M222.469 87.3228L222.443 71.3544C222.435 68.6313 222.246 66.0353 222.484 63.2682C223.03 56.939 232.537 56.0409 234.053 62.1014C234.526 63.9961 234.277 68.4855 234.275 70.6628L234.247 87.3228L281.381 87.3228L281.371 72.4303C281.372 69.3053 281.24 65.6968 281.695 62.7425C282.67 56.4226 292.466 56.364 292.873 63.1844C293.045 66.0688 293.014 68.6985 293.009 71.4866L292.986 87.3228C308.264 87.322 324.917 86.9852 340.066 87.3228C340.351 79.0417 339.573 69.9845 340.345 61.6987C340.768 57.1587 350.532 56.5465 351.705 62.7833C352.146 65.517 351.975 69.0229 351.972 71.9526L351.947 87.3228L353.807 87.3228C359.341 87.314 377.813 86.6773 381.971 87.928C392.588 91.1215 389.879 106.18 389.881 114.359L389.871 152.552C387.166 160.253 368.562 191.278 363.531 198.428C363.103 197.191 363.52 186.99 363.523 184.861L363.531 149.962C361.142 149.881 358.388 149.957 355.974 149.962L103.943 149.98C100.815 149.987 97.0591 150.111 93.9991 149.962L93.9991 376.602L350.519 376.606C356.588 376.642 363.9 378.836 363.856 370.436L363.521 294.442C363.522 292.419 363.763 274.955 363.531 274.462C368.416 264.399 376.507 251.889 382.521 242.493C384.742 239.024 387.297 233.586 389.871 230.675C390.213 233.271 389.915 237.765 389.889 240.622L389.891 405.899C389.893 407.167 389.995 412.974 389.871 413.924C389.772 421.565 392.028 441.162 386.835 446.128C383.338 450.168 372.591 448.833 367.722 448.831L77.1309 448.859C65.1458 448.9 67.7957 429.375 67.8303 421.282L67.8237 109.153C67.824 87.8698 67.9079 87.315 87.6324 87.3102L107.833 87.3228L107.808 72.1336C107.805 69.13 107.34 62.5995 109.04 60.1386C111.119 57.6006 115.843 57.348 118.087 59.6543C120.681 62.3189 119.929 67.3814 119.924 71.0745L119.896 87.3228L150.435 87.3109C154.76 87.3091 161.197 87.0881 165.284 87.3228L165.265 71.602C165.24 68.7191 164.969 65.3707 165.271 62.5719C165.891 56.8194 174.953 56.4381 176.262 61.9355C176.915 64.6747 176.612 68.965 176.611 71.8674L176.582 87.3228C181.56 87.473 187.013 87.3306 192.032 87.3272L222.469 87.3228Z"/><path fill="#EA9054" transform="scale(2 2)" d="M389.871 413.924C389.772 421.565 392.028 441.162 386.835 446.128C383.338 450.168 372.591 448.833 367.722 448.831L77.1309 448.859C65.1458 448.9 67.7957 429.375 67.8303 421.282C74.6324 421.493 82.5096 421.284 89.424 421.284L366.512 421.289C379.69 421.331 381.5 424.061 389.871 413.924Z"/><path fill="#F0D043" transform="scale(2 2)" d="M353.807 87.3228C359.341 87.314 377.813 86.6773 381.971 87.928C392.588 91.1215 389.879 106.18 389.881 114.359L389.871 152.552C387.166 160.253 368.562 191.278 363.531 198.428C363.103 197.191 363.52 186.99 363.523 184.861L363.531 149.962C361.142 149.881 358.388 149.957 355.974 149.962C358.519 149.551 360.978 149.762 363.531 149.962C363.33 142.929 363.531 135.728 363.536 128.657L363.531 87.3228L363.599 87.3748C362.124 87.3122 354.307 87.5672 353.807 87.3228Z"/><path fill="#36A2A6" transform="scale(2 2)" d="M107.833 87.3228L107.808 72.1336C107.805 69.13 107.34 62.5995 109.04 60.1386C111.119 57.6006 115.843 57.348 118.087 59.6543C120.681 62.3189 119.929 67.3814 119.924 71.0745L119.896 87.3228C119.89 90.8749 119.76 95.2161 119.896 98.7006C119.577 101.732 120.072 104.897 119.585 107.89C118.429 115.002 108.84 114.972 108.04 107.655C107.712 104.657 107.829 101.695 107.833 98.7006C108.024 95.7366 107.898 90.3902 107.833 87.3228Z"/><path fill="#36A2A6" transform="scale(2 2)" d="M340.066 87.3228C340.351 79.0417 339.573 69.9845 340.345 61.6987C340.768 57.1587 350.532 56.5465 351.705 62.7833C352.146 65.517 351.975 69.0229 351.972 71.9526L351.947 87.3228L351.947 99.2173C351.47 105.571 353.807 112.144 345.884 113.796C338.534 112.045 340.003 104.726 340.066 98.7006L340.066 87.3228Z"/><path fill="#36A2A6" transform="scale(2 2)" d="M222.469 87.3228L222.443 71.3544C222.435 68.6313 222.246 66.0353 222.484 63.2682C223.03 56.939 232.537 56.0409 234.053 62.1014C234.526 63.9961 234.277 68.4855 234.275 70.6628L234.247 87.3228L234.247 98.7006C234.194 101.537 234.658 109.236 232.594 111.702C229.895 114.925 223.978 113.826 222.979 109.482C222.347 106.732 222.825 102.404 222.509 99.0994L222.469 98.7006C222.313 95.1806 222.445 90.9124 222.469 87.3228Z"/><path fill="#36A2A6" transform="scale(2 2)" d="M281.381 87.3228L281.371 72.4303C281.372 69.3053 281.24 65.6968 281.695 62.7425C282.67 56.4226 292.466 56.364 292.873 63.1844C293.045 66.0688 293.014 68.6985 293.009 71.4866L292.986 87.3228C292.975 88.9408 292.712 97.7589 292.986 98.7006C292.738 102.636 293.93 108.145 291.609 111.53C290.049 113.807 285.548 114.093 283.623 112.223C280.657 109.343 281.46 102.685 281.381 98.7006C281.182 95.696 281.37 90.4949 281.381 87.3228Z"/><path fill="#36A2A6" transform="scale(2 2)" d="M165.284 87.3228L165.265 71.602C165.24 68.7191 164.969 65.3707 165.271 62.5719C165.891 56.8194 174.953 56.4381 176.262 61.9355C176.915 64.6747 176.612 68.965 176.611 71.8674L176.582 87.3228C176.572 89.1048 176.276 98.1198 176.582 99.2173C176.413 103.256 177.418 108.721 174.698 112.017C172.994 114.153 168.791 114.155 167.006 112.151C164.333 109.15 165.195 102.598 165.284 98.7006C165.218 94.9282 165.101 91.0855 165.284 87.3228Z"/><path fill="#604689" transform="scale(2 2)" d="M222.469 98.7006L222.509 99.0994C222.825 102.404 222.347 106.732 222.979 109.482C223.978 113.826 229.895 114.925 232.594 111.702C234.658 109.236 234.194 101.537 234.247 98.7006C236.12 99.3962 239.047 102.337 239.946 104.135C248.112 120.41 224.876 130.945 216.378 115.86C212.485 108.95 215.805 102.089 222.469 98.7006Z"/><path fill="#604689" transform="scale(2 2)" d="M292.986 98.7006C297.796 101.352 301.568 107.314 300.022 112.824C292.808 138.536 257.754 111.331 281.381 98.7006C281.46 102.685 280.657 109.343 283.623 112.223C285.548 114.093 290.049 113.807 291.609 111.53C293.93 108.145 292.738 102.636 292.986 98.7006Z"/><path fill="#604689" transform="scale(2 2)" d="M340.066 98.7006C340.003 104.726 338.534 112.045 345.884 113.796C353.807 112.144 351.47 105.571 351.947 99.2173C369.959 107.944 349.538 134.154 336.016 119.097C329.429 111.762 332.631 103.401 340.066 98.7006Z"/><path fill="#604689" transform="scale(2 2)" d="M176.582 99.2173C189.943 104.913 181.471 127.764 166.706 122.594C155.067 118.519 153.457 103.934 165.284 98.7006C165.195 102.598 164.333 109.15 167.006 112.151C168.791 114.155 172.994 114.153 174.698 112.017C177.418 108.721 176.413 103.256 176.582 99.2173Z"/><path fill="#604689" transform="scale(2 2)" d="M119.896 98.7006C128.861 104.062 128.274 116.44 119.934 121.189C105.846 129.214 92.2114 107.499 107.833 98.7006C107.829 101.695 107.712 104.657 108.04 107.655C108.84 114.972 118.429 115.002 119.585 107.89C120.072 104.897 119.577 101.732 119.896 98.7006Z"/><path fill="#9D488E" transform="scale(2 2)" d="M400.258 135.121C403.466 129.939 409.938 117.229 413.836 113.915C421.398 108.388 426.939 115.392 432.877 119.339C452.892 132.642 444.011 138.192 434.074 154.96C432.333 157.971 429.714 162.763 427.804 165.482C419.06 179.743 410.658 194.63 402.158 209.084L394.553 221.953C393.095 224.43 390.751 228.123 389.871 230.675C387.297 233.586 384.742 239.024 382.521 242.493C376.507 251.889 368.416 264.399 363.531 274.462C355.703 286.237 347.688 300.305 340.418 312.678L326.095 336.993C324.412 339.81 321.028 346.531 318.789 348.227C309.555 341.901 297.048 334.309 287.063 329.231C288.1 326.567 289.43 324.198 290.891 321.751C291.759 320.557 294.265 315.869 295.119 314.353L312.72 284.271C313.936 282.988 316.251 278.301 317.154 276.547C318.541 274.371 319.956 272.052 321.262 269.821L358.988 206.746C360.487 204.235 362.508 201.097 363.531 198.428C368.562 191.278 387.166 160.253 389.871 152.552C391.453 150.122 392.906 147.546 394.366 145.037C396.229 141.726 398.294 138.385 400.258 135.121Z"/><path fill="#E5594F" transform="scale(2 2)" d="M400.258 135.121C403.466 129.939 409.938 117.229 413.836 113.915C421.398 108.388 426.939 115.392 432.877 119.339C452.892 132.642 444.011 138.192 434.074 154.96C432.333 157.971 429.714 162.763 427.804 165.482C424.959 163.431 421.304 161.409 418.275 159.617L404.375 151.233C402.266 149.947 395.889 145.595 394.366 145.037C396.229 141.726 398.294 138.385 400.258 135.121Z"/><path fill="#EA9054" transform="scale(2 2)" d="M394.366 145.037C396.229 141.726 398.294 138.385 400.258 135.121C403.572 137.632 430.944 154.185 434.074 154.96C432.333 157.971 429.714 162.763 427.804 165.482C424.959 163.431 421.304 161.409 418.275 159.617L404.375 151.233C402.266 149.947 395.889 145.595 394.366 145.037Z"/><path fill="#5875BF" transform="scale(2 2)" d="M312.72 284.271L129.626 284.296C124.122 284.082 124.347 276.531 129.726 276.504L317.154 276.547C316.251 278.301 313.936 282.988 312.72 284.271Z"/><path fill="#5875BF" transform="scale(2 2)" d="M290.891 321.751C278.372 321.435 264.578 321.749 251.926 321.749L145.124 321.756C140.065 321.766 134.905 321.852 129.855 321.715C123.581 321.429 123.946 314.754 129.313 314.297C131.123 314.143 133.004 314.348 134.824 314.35L260.964 314.353C271.634 314.353 284.605 313.991 295.119 314.353C294.265 315.869 291.759 320.557 290.891 321.751Z"/><path fill="#5875BF" transform="scale(2 2)" d="M283.927 359.756C283.061 359.576 277.797 359.728 276.551 359.732L143.49 359.771C138.766 359.782 133.96 359.852 129.25 359.725C123.91 359.581 124.276 352.256 129.971 352.148C136.201 352.03 142.424 352.065 148.654 352.065L251.727 352.062C262.612 352.062 274.026 351.877 284.87 352.063L284.87 355.48L283.927 359.756Z"/><path fill="#E5594F" transform="scale(2 2)" d="M284.87 352.063C286.493 344.861 285.582 336.641 287.063 329.231C297.048 334.309 309.555 341.901 318.789 348.227C311.14 352.393 302.987 358.055 295.119 361.459C292.363 359.56 287.877 357.18 284.87 355.48L284.87 352.063Z"/><path fill="#604689" transform="scale(2 2)" d="M284.87 355.48C287.877 357.18 292.363 359.56 295.119 361.459C291.147 364.07 286.59 367.085 282.349 369.156L283.927 359.756L284.87 355.48Z"/><path fill="#C45FA0" transform="scale(2 2)" d="M168.879 165.482C171.906 165.166 172.975 166.514 172.989 169.384L173.008 253.966C173.008 257.213 173.103 260.677 172.956 263.84C172.803 266.822 168.204 268.206 166.672 265.924C164.598 262.835 165.292 254.489 165.289 250.823L165.284 228.571L165.284 176.541C158.264 181.812 151.313 188.663 143.784 193.18C141.446 194.583 134.312 188.783 144.886 182.821C149.813 180.043 163.861 166.336 168.879 165.482Z"/><path fill="#5875BF" transform="scale(2 2)" d="M212.226 239.759C221.042 239.615 230.33 239.758 239.18 239.759L293.127 239.76C298.385 239.761 325.529 239.209 328.173 240.086C332.49 241.518 330.651 246.166 327.431 247.673C324.752 247.917 317.87 247.688 314.889 247.685L213.256 247.693C207.661 247.687 207.145 241.172 212.226 239.759Z"/><path fill="#5875BF" transform="scale(2 2)" d="M211.413 166.258C213.748 166.123 216.723 166.247 219.122 166.251L312.029 166.249C316.499 166.24 325.153 165.957 329.067 166.657C332.063 169.197 331.214 173.109 327.431 174.116C299.979 173.797 271.84 174.109 244.334 174.118L222.163 174.13C219.198 174.131 214.577 174.395 211.798 174.012C207.721 173.45 207.848 168.378 211.413 166.258Z"/><path fill="#5875BF" transform="scale(2 2)" d="M212.226 202.919C214.112 202.797 217.169 202.908 219.141 202.909L309.998 202.918C315.076 202.919 323.889 202.674 328.71 203.246C331.963 205.412 330.854 209.315 327.431 210.573C325.382 210.751 322.418 210.603 320.29 210.586L231.27 210.575C226.11 210.575 215.638 210.843 210.937 210.256C207.402 208.019 208.479 204.232 212.226 202.919Z"/></svg>