<?xml version="1.0" encoding="utf-8" ?><svg xmlns="http://www.w3.org/2000/svg" xmlns:xlink="http://www.w3.org/1999/xlink" width="1024" height="1024" viewBox="0 0 1024 1024"><path fill="#FDC901" transform="scale(2 2)" d="M183.785 151.542L183.784 112.76C183.769 96.7431 181.55 80.2255 194.015 67.7549C202.81 58.9561 210.932 56.2876 223.268 56.2432L281.476 56.2414C301.918 56.255 320.987 60.8543 326.666 84.3532C329.887 97.6779 327.566 136.562 327.836 152.029L346.918 152.018C367.002 152.021 367.264 154.276 367.27 173.415L367.275 355.266C367.316 372.008 368.767 375.976 350.868 375.916L337.608 375.891C324.065 375.88 309.59 376.185 296.137 375.895C292.677 375.659 285.977 375.892 282.26 375.895L230.491 375.895L216.425 375.895L171.896 375.883C165.711 375.882 159.03 376.117 152.871 375.735C143.214 375.137 144.508 363.934 144.508 357.408L144.508 177.081C144.509 171.058 143.382 161.297 147.34 156.524C154.648 147.711 181.761 154.378 183.785 151.542ZM296.137 151.542L296.137 88.2928L216.425 88.2928L216.425 152.029L287.575 152.023C289.659 152.037 294.143 152.225 295.923 151.996L296.137 151.542ZM342.296 341.744C321.619 341.195 330.095 351.554 336.002 351.489L352.004 351.489C352.016 345.4 352.283 337.39 352.004 331.451C349.986 329.251 349.14 328.478 346.019 328.498C340.661 331.417 342.356 336.461 342.296 341.744Z"/><path fill="#FD9C09" transform="scale(2 2)" d="M183.785 151.542L183.784 112.76C183.769 96.7431 181.55 80.2255 194.015 67.7549C202.81 58.9561 210.932 56.2876 223.268 56.2432L281.476 56.2414C301.918 56.255 320.987 60.8543 326.666 84.3532C329.887 97.6779 327.566 136.562 327.836 152.029L304.582 152.035C303.437 152.038 296.995 152.223 296.32 152.115L296.137 151.542L296.137 88.2928L216.425 88.2928L216.425 152.029C205.635 152.022 194.849 151.963 184.062 152.123L183.785 151.542Z"/><path fill="#FEFEFE" transform="scale(2 2)" d="M227.533 184.401C239.213 158.102 272.413 158.347 284.592 184.401L299.889 184.372C326.089 184.313 336.002 194 336.004 220.302L335.997 314.079C335.886 330.778 323.847 342.688 307.022 343.253C303.494 343.371 300.053 343.312 296.572 343.305L210.287 343.288C180.103 343.254 176.756 324.15 176.75 300.514L176.747 237.65C176.749 230.139 176.727 222.628 176.81 215.116C177.158 183.45 204.245 183.868 227.533 184.401Z"/><path fill="#FD9C09" transform="scale(2 2)" d="M227.533 184.401C239.213 158.102 272.413 158.347 284.592 184.401C286.939 192.826 286.279 199.1 286.254 207.787C289.069 207.943 293.23 207.801 296.137 207.787L296.153 229.216C296.166 255.696 291.915 271.749 261.549 271.935L249.25 271.96C220.708 272.049 217.353 256.077 217.379 231.554L217.364 207.787C220.112 207.83 222.974 207.789 225.73 207.787C225.705 198.673 224.899 193.145 227.533 184.401Z"/><path fill="#0695CE" transform="scale(2 2)" d="M227.533 184.401C239.213 158.102 272.413 158.347 284.592 184.401C286.939 192.826 286.279 199.1 286.254 207.787L272.471 207.787C262.204 207.785 250.035 208.133 239.979 207.787C235.24 207.801 230.466 207.848 225.73 207.787C225.705 198.673 224.899 193.145 227.533 184.401Z"/><path fill="#FEFEFE" transform="scale(2 2)" d="M239.979 207.787L239.963 199.092C239.964 192.928 239.706 188.32 244.403 183.578C251.199 176.716 261.527 177.192 268.163 184.009C272.582 188.548 272.46 193.147 272.476 199.039L272.471 207.787C262.204 207.785 250.035 208.133 239.979 207.787Z"/><path fill="#A71911" transform="scale(2 2)" d="M253.864 220.793C267.51 219.946 271.864 234.812 260.673 242.079C261.681 247.638 262.248 253.143 263.419 258.787L256.812 258.787L247.573 258.787C249.154 253.839 250.924 247.152 251.923 242.079C240.738 237.525 242.451 223.272 253.864 220.793Z"/><path fill="#A71911" transform="scale(2 2)" d="M199.614 279.701L312.666 279.701L312.666 296.245L199.614 296.245L199.614 279.701Z"/><path fill="#A71911" transform="scale(2 2)" d="M199.614 312.006L312.666 312.006L312.666 328.498C311.879 328.631 304.957 328.522 303.738 328.52L199.614 328.498L199.614 312.006Z"/><path fill="#FEFEFE" transform="scale(2 2)" d="M166.05 170.253C170.953 170.265 176.043 170.175 180.913 170.253C183.047 172.252 185.131 175.741 183.179 178.604C178.864 184.933 170.91 176.446 171.008 183.813C171.029 184.985 171.008 186.217 171.008 187.396C169.568 189.906 168.612 190.404 166.05 191.428C163.647 190.509 162.418 189.967 160.495 188.207C159.991 182.124 158.38 171.288 166.05 170.253Z"/><path fill="#A71911" transform="scale(2 2)" d="M230.491 375.895L282.26 375.895C285.977 375.892 292.677 375.659 296.137 375.895L296.137 454.348C292.968 452.314 284.426 445.682 281.45 442.987L267.031 431.646C263.647 428.988 259.361 425.435 255.646 423.412C249.167 427.435 236.424 437.866 230.491 442.987C226.957 445.242 219.163 451.425 216.425 454.348C216.806 428.567 216.428 401.759 216.425 375.895L230.491 375.895Z"/><path fill="#E33913" transform="scale(2 2)" d="M216.425 375.895L230.491 375.895L230.503 425.042C230.498 428.138 229.994 440.644 230.491 442.987C226.957 445.242 219.163 451.425 216.425 454.348C216.806 428.567 216.428 401.759 216.425 375.895Z"/><path fill="#E33913" transform="scale(2 2)" d="M282.26 375.895C285.977 375.892 292.677 375.659 296.137 375.895L296.137 454.348C292.968 452.314 284.426 445.682 281.45 442.987C282.859 439.646 282.261 400.189 282.262 394.253L282.275 382.369C282.293 380.806 282.496 377.278 282.26 375.895Z"/></svg>