<?xml version="1.0" encoding="UTF-8"?>
<svg id="_10" data-name="10" xmlns="http://www.w3.org/2000/svg" viewBox="0 0 1024 1024">
  <defs>
    <style>
      .cls-1 {
        fill: #b82953;
      }

      .cls-1, .cls-2, .cls-3, .cls-4, .cls-5, .cls-6, .cls-7, .cls-8 {
        stroke-width: 0px;
      }

      .cls-2 {
        fill: #3b1a2d;
      }

      .cls-3 {
        fill: #f39a2b;
      }

      .cls-4 {
        fill: #e5594f;
      }

      .cls-5 {
        fill: #4a5699;
      }

      .cls-6 {
        fill: #f0d043;
      }

      .cls-7 {
        fill: #a32d7c;
      }

      .cls-8 {
        fill: #fefefe;
      }
    </style>
  </defs>
  <rect class="cls-8" x="52.71" y="617.33" width="125.62" height="282.89"/>
  <path class="cls-4" d="M622.9,271.7c-26.12-41.49-45.08-90.53-53.27-139.06-3.09-18.33-10.21-83.62-1.43-98.41,8.29-13.96,29.68,6.5,36.96,12.66,41.46,35.05,89.17,102.36,102.16,155.55l.55-1.08c6.68-13.32,11.38-28.96,27.27-34.42,28.13-9.69,35.06,29.22,41.13,45.57l-.25.52c-11.46,24.43-14.18,33.12-35.6,54.98-26.48-12.05-58.37-2.44-80.67-6.47-4.58,2.15-31.98,9.94-36.85,10.18Z"/>
  <path class="cls-6" d="M707.31,202.42l.55-1.08c6.68-13.32,11.38-28.96,27.27-34.42,28.13-9.69,35.06,29.22,41.13,45.57l-.25.52c-11.46,24.43-14.18,33.12-35.6,54.98-26.48-12.05-58.37-2.44-80.67-6.47-64.89-50.25,11.81-123.97,45.99-51.37.44-2.61.85-5.17,1.58-7.71Z"/>
  <path class="cls-4" d="M776.27,212.49c29.24-42.92,115.2-131.87,170.55-130.19,12.95,6.52,9.07,22.01,6.98,33.88-14.43,82.09-77.1,195.3-152.39,233.19-4.93-5.69-12.71-22.71-18.91-31.35-2.7-3.06-4.52-6.56-6.23-10.22-10.98-12-25.59-27.55-35.85-39.82,21.42-21.85,24.15-30.55,35.6-54.98l.25-.52Z"/>
  <path class="cls-7" d="M776.27,307.79c.39-36.78,40.12-109.34,79.85-108.54,12.84.26,18.69,10.66,17.57,22.64-3.22,34.28-58.16,83.75-91.19,96.12-2.7-3.06-4.52-6.56-6.23-10.22Z"/>
  <path class="cls-3" d="M415.45,652.34c4.18-.08,8.33-.14,12.51,0,8.5,6.84,24.66,29.55,32.38,39.27l68.42,87.48c10.63,13.65,20.8,27.75,31.9,41.03,17.55-6.81,49.82-19.84,67.81-23.92,11.98,9.03,22.29,21.73,32.91,32.41l33.31,33.99c9.77,9.87,19.8,19.46,29.02,29.85-7.53,4.75-18.78,6.14-27.33,8.55l-70.12,19.13c-18.31,5.01-72.28,23.95-88.92,21.75-17.54-2.33-26.45-15.83-36.76-28.49l-61.34-77c-7.92-9.76-16.15-19.26-23.79-29.23-8.56-8.08-17.55-21.69-25.09-31.31-21.49-27.42-42.78-49.33-23.96-87.15,10.39-20.88,27.92-29.33,49.05-36.35Z"/>
  <path class="cls-5" d="M848.14,630.68c44.22,47.22,93.31,92.88,139.15,138.82,11.96,11.98,25.42,23.08,36.7,35.64-13.81,14.65-28.58,28.35-42.87,42.52l-122.79,122.31c-8.64,8.57-23.49,31.55-35.07,22.53-10.06-7.83-19.99-19.65-28.91-28.93l-48.24-49.5c-6.91-7.01-14.43-15.95-22.42-21.64-9.22-10.39-19.25-19.98-29.02-29.85l-33.31-33.99c-10.62-10.67-20.93-23.38-32.91-32.41-9.35-14.88-43.39-41.21-47.42-51.6l.46-.98c8.6-5.83,20.04-9.11,29.9-12.29,18.57-9.38,38.42-16.65,57.58-24.76l156.44-66.26c7.53-3.16,15.03-6.95,22.72-9.62Z"/>
  <path class="cls-3" d="M659.74,261.51c22.3,4.02,54.19-5.59,80.67,6.47,10.26,12.27,24.87,27.82,35.85,39.82,1.71,3.66,3.53,7.16,6.23,10.22,6.2,8.65,13.97,25.66,18.91,31.35,30.64,66.26,29.85,120.87,37.31,191.18l6.51,60.43c1.03,9.75,2.79,19.93,2.92,29.71-7.69,2.68-15.19,6.46-22.72,9.62l-156.44,66.26c-19.16,8.11-39.01,15.38-57.58,24.76-9.86,3.18-21.3,6.45-29.9,12.29l-.46.98c4.03,10.39,38.07,36.72,47.42,51.6-17.98,4.08-50.25,17.11-67.81,23.92-11.1-13.28-21.27-27.37-31.9-41.03l-68.42-87.48c-7.72-9.71-23.88-32.42-32.38-39.27-4.18-.14-8.33-.08-12.51,0v-83.85c-45.88-24-79.19-87.85-61.69-138.64,22.14-59.65,72.41-82.91,128.55-105.39,39.57-20.87,98.14-40.45,140.59-52.76,4.87-.24,32.26-8.04,36.85-10.18ZM415.45,568.48v83.85c4.18-.08,8.33-.14,12.51,0,8.5,6.84,24.66,29.55,32.38,39.27l68.42,87.48c10.63,13.65,20.8,27.75,31.9,41.03,17.55-6.81,49.82-19.84,67.81-23.92-9.35-14.88-43.39-41.21-47.42-51.6l.46-.98c8.6-5.83,20.04-9.11,29.9-12.29.79-8.05,3.3-16.39,5.03-24.31l10.61-47.81c4.15-17.87,8.41-42.77,14.54-59.47.07-3.46.01-6.94,0-10.41-15.77,5.61-37.62,9.79-54.37,12.09-47.27,9.95-133.22-2.48-171.76-32.94ZM694.85,300.53c-57.54,11.76-40.64,94.13,16.13,84.74,54.69-15.99,38.86-90.31-16.13-84.74Z"/>
  <path class="cls-1" d="M411.72,418c30.21,2.35,4.23,36.14-11.27,40.59-30.25-6.64-3.62-33.52,11.27-40.59Z"/>
  <path class="cls-4" d="M644.37,584.11c10.96-4.89,23.44-6.87,34.74-11.18,46.47-17.73,85.16-60.45,88.93-111.38.55-7.42-1.88-25,11.68-20.33,13.25,4.57-2,55.32-5.56,63.81-17.97,42.84-84.58,94.9-132.58,94.71.07-3.46.01-6.94,0-10.41.9-1.75,1.74-3.56,2.79-5.22Z"/>
  <path class="cls-5" d="M530.25,466.83c36.25-2.7-1.9,48.17-12.48,57.99-29.61,27.47-71.59,31.43-110.11,30.11-4.43-.59-8.17-1.84-12.15-3.8-6.13-8.84-4.31-14.64,4.95-19.53,7-.78,13.86.22,20.86.51,96.91,4.07,92.25-56.45,108.93-65.27Z"/>
  <path class="cls-8" d="M694.85,300.53c54.98-5.57,70.81,68.74,16.13,84.74-56.76,9.39-73.66-72.98-16.13-84.74ZM698.63,312.38c-40.16,9.96-31.94,63.95,7.1,60.54,39.24-8.09,32.51-63.18-7.1-60.54Z"/>
  <path class="cls-3" d="M698.63,312.38c39.61-2.64,46.35,52.46,7.1,60.54-39.04,3.41-47.27-50.58-7.1-60.54ZM698.63,324.46c-23.27,5.88-16.1,37.83,7.1,34.12,20.69-7.56,16.22-35.55-7.1-34.12Z"/>
  <path class="cls-2" d="M698.63,324.46c23.33-1.43,27.8,26.56,7.1,34.12-23.21,3.7-30.37-28.25-7.1-34.12ZM694.85,329.49c-5.69,5.17-2.68,9.21,3.78,9.91,3.29-4.65,2.74-9.27-3.78-9.91Z"/>
  <path class="cls-5" d="M415.45,807.14c-.8,27.7.54,55.51,0,83.22-1,52.26-39.91,50.17-76.62,50.09h-208.41c-33.26,0-91.14,8.64-114.78-16.3-19.59-20.68-14.04-52.1-14-78.07v-269.68c0-35.42-9.61-106.22,17.42-131.31,20.57-19.09,46.15-15.27,72.15-15.28l200.4.02c20.6,0,41.58-.89,62.14,0-17.51,50.79,15.81,114.64,61.69,138.64v83.85c-21.13,7.01-38.66,15.46-49.05,36.35-18.82,37.83,2.47,59.74,23.96,87.15,7.54,9.62,16.53,23.23,25.09,31.31ZM69.14,777.88c-17.52,3.53-10.68,47.15-10.66,62.16.02,12.92-5.33,35.97,7.6,43.66,22.65.25,67.22,2.74,88.57,0,3.17-1.53,7.29-3.52,8.41-7.18,1.7-5.57.88-79.19-.21-87.27-2.26-16.78-25.91-11.43-37.83-11.43l-55.87.05ZM124.57,634.62c-12.73,0-46.31-1.51-56.62.93-12.98,3.07-9.48,24.58-9.47,34.34l.08,39.67c.02,7.23.4,14.57-.04,21.77,8.79,13.69,29.79,8.23,43.61,8.34l32.83.08c35.47.08,28.88-5.8,28.72-36.47-.06-10.57,3.1-58.7-4.66-65.88-4.97-4.6-27.01-2.87-34.46-2.78Z"/>
  <path class="cls-4" d="M219.91,568.48c33.2-.78,77.38-1.96,110.19.06,17.1,1.05,22.09,18.15,4.79,23.84-14.61.08-114.7,1.17-120.1-.86-10.5-3.93-8.31-19.06,5.12-23.05Z"/>
  <path class="cls-4" d="M219.91,784.84l77.02.06c11.35,0,23.3-1,34.58-.03,18.3,1.57,17.87,18.85,3.39,24.25-30.9,1.2-82.01,2.34-112.52-.17-18.97-1.56-19.71-21.2-2.47-24.1Z"/>
  <path class="cls-4" d="M228.34,643.6l72.65.05c10.09.02,21.03-1.05,30.99.06,19.04,2.11,19.4,23.19-4.95,24.73h-69.93c-9.04,0-36.64,2.66-43.69-2.6-15.22-11.33-.42-21.3,14.92-22.24Z"/>
  <path class="cls-4" d="M219.91,706.6l75.84-.02c10.02,0,36.34-3.1,44.35,2.31,9.39,6.35,5.63,20.8-5.21,22.43-14.34.19-112.65,1.82-119.65-1.5-12.39-5.87-6.6-20.66,4.67-23.22Z"/>
  <path class="cls-4" d="M222.85,852.41l69.77-.03c8.7,0,40.99-2.48,47.42,2.32,10.61,7.92,3.75,22.09-8.19,22.57h-75.29c-11.84,0-24.97,1.15-36.61-.48-19.24-2.69-14.31-22.7,2.9-24.38Z"/>
  <path class="cls-4" d="M228.34,493.76c14.76-.48,106.86-2.36,113.67,3.02,10.5,8.3,1.47,21.75-14.97,22.14l-67.81.03c-8.72,0-39.67,2.35-46.49-2.75-14.44-10.8.71-21.65,15.61-22.44Z"/>
  <path class="cls-4" d="M139.37,652.34c7.6-.82,14.92,3.42,15.35,11.68.46,8.74-14.65,20.2-20.18,25.88-19.6,20.16-26.87,37.86-51.21,14.38-4.42-4.33-14.46-12.33-14.41-18.8.05-6.63,8.23-13.34,14.7-12.45,7.64,1.05,14.09,9.69,18.52,15.34,12.74-11.32,22.75-26.9,37.23-36.03Z"/>
  <path class="cls-4" d="M141.63,796.19c12.96,1.28,18.52,12.18,9.88,21.96-7.28,8.24-34.39,36.84-42.02,41.66-10.8,6.82-20.15-3.52-27.43-10.5-4.52-4.43-13.66-11.3-13.7-18.1-.04-6.89,7.3-12,13.71-11.95,7.76.07,14.9,8.87,20.07,13.99,10.5-9.2,28.37-32.67,39.5-37.06Z"/>
  <path class="cls-8" d="M160.28,596.57c-9.02,5.21-49.72,3.19-62.86,3.16-14.75-.15-27.36,3.6-38.9-7.35l-.04-61.17c-.04-33.74-7.03-40.54,31.13-40.47l34.96.08c9.56.12,26.32-2.77,34.29,2.79"/>
  <path class="cls-4" d="M139.37,507.38c34.4,3-10.05,39.52-17.1,46.41-17.01,16.6-21.27,28.08-40.2,5.6-10.32-9.02-24.43-29.83-.95-30.97,7.79-.38,15.67,8.43,21.02,13.38l1.8-2.35c6.63-8.62,25.57-28.75,35.43-32.07Z"/>
</svg>