<?xml version="1.0" encoding="UTF-8"?>
<svg id="_7" data-name="7" xmlns="http://www.w3.org/2000/svg" viewBox="0 0 1024 1024">
  <defs>
    <style>
      .cls-1 {
        fill: #98b745;
      }

      .cls-1, .cls-2, .cls-3, .cls-4, .cls-5, .cls-6, .cls-7, .cls-8, .cls-9 {
        stroke-width: 0px;
      }

      .cls-2 {
        fill: #f39a2b;
      }

      .cls-3 {
        fill: #e5594f;
      }

      .cls-4 {
        fill: #4a5699;
      }

      .cls-5 {
        fill: #f0d043;
      }

      .cls-6 {
        fill: #ffd1a6;
      }

      .cls-7 {
        fill: #c45fa0;
      }

      .cls-8 {
        fill: #ffc0b2;
      }

      .cls-9 {
        fill: #fefefe;
      }
    </style>
  </defs>
  <path class="cls-5" d="M282.32,888.22c23.1,17.6,50.14,30.07,73.68,47.34-26.17,3.34-90.44.91-117.66,0,5.48-10.34,34.44-38.84,43.98-47.34Z"/>
  <path class="cls-3" d="M256.29,30.37c25.87,6.59,17.67,30.96,17.77,52.97-.53,46.66,0,93.39,0,140.06-22.85,6.53-17.1,1.67-38.98-6.54-23.27-16.3-79.15-40.21-106.58-53.46-16.44-7.94-37.4-16.44-52.21-26.84-21.01-21.31,20.01-33.86,32.77-39.96,40.86-19.54,106-52.48,147.22-66.23Z"/>
  <path class="cls-2" d="M59.5,311.34c-.44-6.98-.02-14.22-.02-21.24l-.04-79.07c-.17-25.93.05-52.86,16.86-74.46,14.8,10.4,35.76,18.9,52.21,26.84,27.43,13.25,83.31,37.15,106.58,53.46.02,31.43.83,63.07,0,94.47H59.5Z"/>
  <path class="cls-4" d="M235.08,216.87c21.88,8.2,16.13,13.07,38.98,6.54l-.05,59.17c-.02,9.49-.76,19.34.05,28.77v62.26c0,9.22-1.06,68.35,0,71.44,13.48-9.74,29.63-11.95,45.87-11.9,10.1,1.2,19.28,2.83,28.85,6.47,20.03,7.68,33.39,19.62,47.84,35.08,6.03,12.36,12.12,23.97,11.6,38.16-1.83,35.3-18.92,55.88-48.48,71.83-16.86,8.6-38.85,19.25-53.41,31.01-12.18,4.16-44.48,22.06-53.66,30.84-9.26,2.28-16.31,7.17-24.22,12.3-13.06,7.24-41.51,22.27-51.78,31.2-19.72,16.74-38.67,34.99-49.08,59.23,26.75,17.95,49.23,40.53,74.6,59.98,2.35,9.29,6.13,22.53,7.86,31.61,6.95,8.94,31.97,22.95,42.62,28.4,9.11,7.09,19.74,13.02,29.65,18.97-9.54,8.51-38.51,37-43.98,47.34-11.97.69-24.14,0-36.15,0-43.55-4.83-72.31,9.62-110.69-28.68-36.24-36.17-32.02-75.51-32-122.4v-473.15s175.57,0,175.57,0c.83-31.4.02-63.04,0-94.47Z"/>
  <path class="cls-7" d="M235.08,216.87c21.88,8.2,16.13,13.07,38.98,6.54l-.05,59.17c-.02,9.49-.76,19.34.05,28.77v62.26c0,9.22-1.06,68.35,0,71.44-2.01,9.35-9.32,17.82-19.3,18.52-27.35,1.94-19.65-40.17-19.66-56.22l-.02-96c.83-31.4.02-63.04,0-94.47Z"/>
  <path class="cls-5" d="M127.6,749.26c26.75,17.95,49.23,40.53,74.6,59.98,2.35,9.29,6.13,22.53,7.86,31.61,6.95,8.94,31.97,22.95,42.62,28.4,9.11,7.09,19.74,13.02,29.65,18.97-9.54,8.51-38.51,37-43.98,47.34-11.97.69-24.14,0-36.15,0-1.54-1.64-3.35-3.12-5.02-4.64-53.1-41.09-94.54-74.7-80.31-151.15,2.35-10.35,5.9-21.06,10.73-30.51Z"/>
  <path class="cls-3" d="M252.67,869.25c9.11,7.09,19.74,13.02,29.65,18.97-9.54,8.51-38.51,37-43.98,47.34-11.97.69-24.14,0-36.15,0-1.54-1.64-3.35-3.12-5.02-4.64,19.15-19.92,35.89-42.01,55.5-61.67Z"/>
  <path class="cls-3" d="M127.6,749.26c26.75,17.95,49.23,40.53,74.6,59.98,2.35,9.29,6.13,22.53,7.86,31.61-31.8-19.18-60.38-43.22-93.18-61.08,2.35-10.35,5.9-21.06,10.73-30.51Z"/>
  <path class="cls-2" d="M274.06,83.34h533.85c21.21-.02,45.09-1.83,65.85,1.73,44.06,7.56,79.75,45.26,88.26,88.64,3.93,20.01,2.37,41.91,2.37,62.26l.26,393.16c0,1.45-.13,2.9-.27,4.34h-82.71c-7.62-18.58-1.76-44.3-24.41-54.28-25.65-11.3-30.59,12.3-41.33,28.88-22.08,34.08-58.69,34.44-91.74,14.71-6.89-4.11-13.13-9.14-20.53-12.36-7.3-7.62-16.62-13.54-24.56-20.55-42.95-37.95-71.52-84.07-101.4-132.33-84.46-136.42-144.23-146.33-303.65-146.2-.8-9.42-.06-19.28-.05-28.77l.05-59.17c0-46.67-.53-93.4,0-140.06Z"/>
  <path class="cls-7" d="M837.7,449.37c15.66-15.96,53.52-62.12,64.27-16.24-4.25,12.03-34.94,39.01-45.28,50.56-2.4.84-35.04.73-37.4,0-10.1-11.83-35.21-33.03-41.49-43.29-8.01-13.08,4.45-29.59,19.03-26.7,11.76,2.34,31.57,26.98,40.87,35.67Z"/>
  <path class="cls-1" d="M685.78,151.75c17.74-.87,54.58-2.98,66.42,8.79,14.88,14.8,10.28,39.87,10.29,58.82l-.02,70.96c13.23-.02,25.04-1.36,35.95,8.05,14.22,12.26,16.68,33.28,3.16,47.07-15.55,15.88-41.12,10.47-61.2,10.46l-84.93-.04c-14.18-.08-42.86,2.01-55.3-1.16-31.15-7.92-30.12-56.7.89-63.55,11.14-2.46,24.15-.87,35.57-.86l67.06.03c.51-7.92.04-16.16.04-24.11l-.04-49.34c-10.19.02-21.16.9-30.25-4.55-26.51-15.92-18.28-53.36,12.36-60.57Z"/>
  <path class="cls-4" d="M274.06,311.34c159.42-.13,219.19,9.78,303.65,146.2,29.88,48.26,58.45,94.39,101.4,132.33,7.94,7.01,17.25,12.93,24.56,20.55,7.4,3.23,13.64,8.25,20.53,12.36,33.05,19.73,69.66,19.37,91.74-14.71,10.74-16.58,15.67-40.18,41.33-28.88,22.66,9.98,16.8,35.71,24.41,54.28h82.71l.02,178.59c.05,58.88-18.09,110.92-85.74,122.1-19.84,3.28-41.64,1.45-61.8,1.41l-454.22.27c-2.22-.02-4.43-.13-6.64-.28-23.54-17.28-50.58-29.74-73.68-47.34-9.91-5.95-20.53-11.89-29.65-18.97-10.65-5.44-35.68-19.45-42.62-28.4-1.73-9.08-5.5-22.32-7.86-31.61-25.36-19.46-47.84-42.03-74.6-59.98,10.41-24.24,29.36-42.48,49.08-59.23,10.27-8.93,38.72-23.97,51.78-31.2,7.92-5.13,14.96-10.02,24.22-12.3,9.18-8.78,41.48-26.68,53.66-30.84,14.56-11.76,36.55-22.41,53.41-31.01,29.56-15.96,46.65-36.53,48.48-71.83.52-14.18-5.57-25.8-11.6-38.16-14.45-15.46-27.81-27.4-47.84-35.08-9.57-3.65-18.75-5.28-28.85-6.47-16.24-.05-32.39,2.16-45.87,11.9-1.06-3.08,0-62.22,0-71.44v-62.26ZM703.67,610.42l-3.69,5.27c-5.52-3.74-13.19-12.36-20.2-11.24-9.28,1.48-2.34,14.17,1.89,17.5-6.68,6.62-12.94,13.72-19.68,20.25l-.44-.76c-2.93-5.15-4.15-17.14-10.39-18.97-19.16-5.61-3.84,22.98-.95,27.73-7.97,7.94-20.62,14.07-30.32,20l-.12-.79c-.61-4.41.79-14.44-3.13-17.11-12.08-8.25-13.2,13.91-9.64,23.76-6.4,5.98-20.98,9.02-29.31,13.98-.3,2.52-.33,4.67,0,7.18,3.84,8.09,5.05,24.08-7.25,19.15-4.81-1.93-7.09-14.45-8.68-19.15-4.77,1.1-9.89,1.82-14.53,0l-35-.03c-25.5.03-49.07.62-68.23,19.88-14.33,14.4-21.14,39.54-17.24,59.65,77.27,31.26,124.32,33.12,207.46,9.69,66.55-18.75,59.6-21.67,126.36-6.02,37.45,8.78,96.28,8.17,121.09-26.51,1.07-7.41.08-16.18.07-23.75l-.1-64.75c-.07-10.67-1.47-21.26.03-31.89-7.62-18.58-1.76-44.3-24.41-54.28-25.65-11.3-30.59,12.3-41.33,28.88-22.08,34.08-58.69,34.44-91.74,14.71-6.89-4.11-13.13-9.14-20.53-12.36ZM561.76,690.03h0c-.14,1.93-.37,3.82,0,5.74v1.45c1.59,4.7,3.87,17.21,8.68,19.15,12.31,4.94,11.09-11.05,7.25-19.15-.33-2.51-.3-4.67,0-7.18-.69-5.54.53-23.05-2.84-26.02-15.8-13.87-13.08,22.56-13.09,26.02Z"/>
  <path class="cls-6" d="M561.76,690.03h0c-.14,1.93-.37,3.82,0,5.74v1.45c-4.77,1.1-9.89,1.82-14.53,0,4.67-3.04,9.39-5.08,14.53-7.18Z"/>
  <path class="cls-7" d="M252.67,646.53c9.18-8.78,41.48-26.68,53.66-30.84,1.32.91,2.62,1.97,4.11,2.56,9.99,12.09,39.24,39.99,52.2,49.93-14.05,9.54-36.69,21.39-52.2,29.04-9.1,5.62-18.49,11.21-28.13,15.83-18.38-17.6-36.02-36.08-53.87-54.22,7.92-5.13,14.96-10.02,24.22-12.3Z"/>
  <path class="cls-5" d="M252.67,646.53c10.85,5.65,49.15,39.76,57.78,50.69-9.1,5.62-18.49,11.21-28.13,15.83-18.38-17.6-36.02-36.08-53.87-54.22,7.92-5.13,14.96-10.02,24.22-12.3Z"/>
  <path class="cls-5" d="M274.06,373.6c36.5-17.28,68.95-16.93,106.87-4.87,9.35,3.16,18.62,7.24,27.29,11.98-18.34,17.36-42.05,40.49-59.44,58.91-9.57-3.65-18.75-5.28-28.85-6.47-16.24-.05-32.39,2.16-45.87,11.9-1.06-3.08,0-62.22,0-71.44Z"/>
  <path class="cls-3" d="M380.94,368.72c9.35,3.16,18.62,7.24,27.29,11.98-18.34,17.36-42.05,40.49-59.44,58.91-9.57-3.65-18.75-5.28-28.85-6.47,8.17-15.98,46.82-48.18,61-64.41Z"/>
  <path class="cls-5" d="M176.67,690.03c10.27-8.93,38.72-23.97,51.78-31.2,17.85,18.14,35.49,36.62,53.87,54.22-16.56,9.18-33.63,16.18-47.24,29.82-19.53,17.77-30.46,40.19-32.89,66.38-25.36-19.46-47.84-42.03-74.6-59.98,10.41-24.24,29.36-42.48,49.08-59.23Z"/>
  <path class="cls-1" d="M176.67,690.03c10.27-8.93,38.72-23.97,51.78-31.2,17.85,18.14,35.49,36.62,53.87,54.22-16.56,9.18-33.63,16.18-47.24,29.82-16.58-13.15-44.29-37.59-58.41-52.84Z"/>
  <path class="cls-5" d="M408.23,512.84c19.76,14.61,56.72,46.06,76.12,57.23-11.47,30.71-32.79,51.51-62.05,65.53l-51.16,27.63-8.48,4.95c-12.96-9.94-42.2-37.83-52.2-49.93-1.49-.59-2.79-1.65-4.11-2.56,14.56-11.76,36.55-22.41,53.41-31.01,29.56-15.96,46.65-36.53,48.48-71.83Z"/>
  <path class="cls-1" d="M306.34,615.69c14.56-11.76,36.55-22.41,53.41-31.01,15.67,10.82,50.95,36.78,62.55,50.92l-51.16,27.63-8.48,4.95c-12.96-9.94-42.2-37.83-52.2-49.93-1.49-.59-2.79-1.65-4.11-2.56Z"/>
  <path class="cls-5" d="M310.45,618.25c8.01,4.21,56.16,39.07,60.68,44.98l-8.48,4.95c-12.96-9.94-42.2-37.83-52.2-49.93Z"/>
  <path class="cls-5" d="M408.23,380.7c70.21,44.6,83.42,84.57,84.44,160.49-2.66,9.61-4.77,19.55-8.33,28.88-19.4-11.17-56.36-42.61-76.12-57.23.52-14.18-5.57-25.8-11.6-38.16-14.45-15.46-27.81-27.4-47.84-35.08,17.39-18.42,41.1-41.55,59.44-58.91Z"/>
  <path class="cls-3" d="M396.62,474.69c28.59,9.76,67.51,52.89,96.04,66.5-2.66,9.61-4.77,19.55-8.33,28.88-19.4-11.17-56.36-42.61-76.12-57.23.52-14.18-5.57-25.8-11.6-38.16Z"/>
  <path class="cls-9" d="M426.76,776.71c77.27,31.26,124.32,33.12,207.46,9.69,66.55-18.75,59.6-21.67,126.36-6.02,37.45,8.78,96.28,8.17,121.09-26.51-.16,74.12,11.64,95.08-77.28,95.1h-65.21c-70.27-.02-140.62.77-210.88-.05-50.4-.59-91.63-19.46-101.54-72.21Z"/>
  <path class="cls-3" d="M703.67,610.42c7.4,3.23,13.64,8.25,20.53,12.36,33.05,19.73,69.66,19.37,91.74-14.71,10.74-16.58,15.67-40.18,41.33-28.88,22.66,9.98,16.8,35.71,24.41,54.28-1.5,10.63-.1,21.22-.03,31.89l.1,64.75c0,7.57,1,16.34-.07,23.75-24.81,34.68-83.64,35.29-121.09,26.51-66.76-15.65-59.82-12.73-126.36,6.02-83.14,23.43-130.19,21.57-207.46-9.69-3.9-20.11,2.91-45.24,17.24-59.65,19.17-19.26,42.74-19.85,68.23-19.88l35,.03c4.64,1.82,9.76,1.1,14.53,0,1.59,4.7,3.87,17.21,8.68,19.15,12.31,4.94,11.09-11.05,7.25-19.15-.33-2.51-.3-4.67,0-7.18,8.33-4.96,22.9-8.01,29.31-13.98-3.57-9.85-2.45-32.01,9.64-23.76,3.92,2.67,2.52,12.7,3.13,17.11l.12.79c9.7-5.92,22.35-12.06,30.32-20-2.9-4.75-18.21-33.34.95-27.73,6.24,1.83,7.46,13.82,10.39,18.97l.44.76c6.74-6.53,13-13.63,19.68-20.25-4.22-3.33-11.17-16.02-1.89-17.5,7.01-1.12,14.68,7.5,20.2,11.24l3.69-5.27ZM681.66,621.95c1.89.61,2.71,1.15,4.11,2.47,9.87,5.79,41.53,24.61,38.02,7.05-1.54-7.69-17.95-11.33-23.82-15.78-5.52-3.74-13.19-12.36-20.2-11.24-9.28,1.48-2.34,14.17,1.89,17.5ZM607,676.05c.91,2.07,2,4.19,2.59,6.36,2.34,3.05,23.31,30.73,25.22,11.38.58-5.86-9.06-13.48-12.74-17.74-1.59-1.92-1.98-3.44-2.19-5.86l-.12-.79c-.61-4.41.79-14.44-3.13-17.11-12.08-8.25-13.2,13.91-9.64,23.76Z"/>
  <path class="cls-8" d="M681.66,621.95c1.89.61,2.71,1.15,4.11,2.47-3.13,8.48-13.54,16.48-20.42,22.11-1.53-1.39-2.35-2.53-3.37-4.33,6.74-6.53,13-13.63,19.68-20.25Z"/>
  <path class="cls-8" d="M607,676.05c.91,2.07,2,4.19,2.59,6.36-9.81,5.52-23.18,7.94-31.9,14.8-.33-2.51-.3-4.67,0-7.18,8.33-4.96,22.9-8.01,29.31-13.98Z"/>
  <path class="cls-8" d="M650.21,650.2c2.02,1.51,3.58,3.07,5.24,4.96-10.7,7.64-22,14.31-33.37,20.89-1.59-1.92-1.98-3.44-2.19-5.86,9.7-5.92,22.35-12.06,30.32-20Z"/>
  <path class="cls-9" d="M650.21,650.2c-2.9-4.75-18.21-33.34.95-27.73,6.24,1.83,7.46,13.82,10.39,18.97l.44.76c1.03,1.8,1.84,2.94,3.37,4.33,4.07,4.26,13.28,12.07,13,18.35-.64,14.7-17.52,1.27-22.92-9.72-1.66-1.89-3.23-3.45-5.24-4.96Z"/>
</svg>