<?xml version="1.0" encoding="UTF-8"?>
<svg id="_14" data-name="14" xmlns="http://www.w3.org/2000/svg" viewBox="0 0 1024 1024">
  <defs>
    <style>
      .cls-1 {
        fill: #f39a2b;
      }

      .cls-1, .cls-2, .cls-3, .cls-4, .cls-5, .cls-6, .cls-7 {
        stroke-width: 0px;
      }

      .cls-2 {
        fill: #e5594f;
      }

      .cls-3 {
        fill: #4a5699;
      }

      .cls-4 {
        fill: #f0d043;
      }

      .cls-5 {
        fill: #a0306e;
      }

      .cls-6 {
        fill: #eb95a1;
      }

      .cls-7 {
        fill: #c45fa0;
      }
    </style>
  </defs>
  <path class="cls-3" d="M160.2,663.06l-.04-258.13c-.02-11.41-5.45-41.03,10.69-43.76,15.99-2.7,33.93-1.29,50.19-1.3l79.66.02c13.33.01,26.74.53,40.06.01,47.08,1.38,100.64-3.46,146.18,0,10.87,11.32,6.73,30.51,6.73,45.13l-.03,60.69c-.02,26.55,4.64,183.25-4,197.33-46.37.02-93.53,1.16-139.79,0h-19.88l-106.4-.04c-21.05,0-42.33.8-63.35.04Z"/>
  <path class="cls-4" d="M237.99,439.64h69.04v26.85h-69.04v-26.85Z"/>
  <path class="cls-4" d="M237.99,554.03h175.69v26.82c-58.51-.8-117.16,0-175.69,0v-26.82Z"/>
  <path class="cls-4" d="M237.99,496.06h175.69v27.22h-175.69v-27.22Z"/>
  <path class="cls-3" d="M861.8,663.72l96.23-.04c22.83,0,66.11-9.98,65.56,19.82-1.22,66.64-.47,133.4-.47,200.06l.04,54.53c.04,13.48,4.61,32.82-8.06,41.7-11.98,1.5-25.36.01-37.53,0h-209.59c-86.66.03-73.76,14.34-73.77-79.58v-191.88c0-14-4.52-33.54,6.17-44.62,53.73-1.05,107.68,0,161.43,0Z"/>
  <path class="cls-4" d="M775.44,750.16h65.31c-.04,9.44.51,18.98,0,28.41-21.76-.25-43.55,0-65.31,0v-28.41Z"/>
  <path class="cls-4" d="M920.59,809.11c7.03.37,14.12.09,21.15,0-.33,9.3-.01,18.72,0,28.04h-166.31v-28.04h145.16Z"/>
  <path class="cls-4" d="M775.44,863.97h166.31v27.82h-166.31v-27.82Z"/>
  <path class="cls-1" d="M489.62,663.06h7.84c2.01.94,160.55,1.59,173.55.66,10.38,13.95,5.43,55.1,5.42,72.95l.07,196.38c0,15.21,5.47,36.41-8.3,46.75-9.3,1.19-19.73.07-29.16.04l-282.09-.04c-16.15-10.05-9.28-51.73-9.27-71.12v-194.25c0-14.53-3.21-37.86,2.14-51.36,46.26,1.16,93.43.02,139.79,0Z"/>
  <path class="cls-2" d="M426.35,750.16h58.32v28.41h-58.32v-28.41Z"/>
  <path class="cls-6" d="M160.2,663.06c21.02.76,42.3-.04,63.35-.04l106.4.04c-1.35.2-1.75.28-2.96,1.05l.48,1.52c4.51,14.75,2.5,53.93,2.5,71.09v175.36c.02,15.79.48,31.71-.1,47.48-1.05,28.39-22.33,20.33-44.35,20.29l-199.36-.04c-11.91,0-73.59,3.23-81.1-2.71-5.99-4.73-4.88-21.84-4.89-28.81l.06-243.01c.06-42.14-5.93-42.22,40.76-42.23l93.03.03c8.44-.03,16.98-.49,25.4-.03l.78.04Z"/>
  <path class="cls-5" d="M80.04,750.16h58.71v28.41c-5.92-.94-12.89-.12-18.92-.08l-39.79.08v-28.41Z"/>
  <path class="cls-7" d="M251.35,863.97c1.27,2.65.02,23.25,0,27.82H80.04c-1.63-2.85-.01-22.86,0-27.82h115.71c18.42-.01,37.25,1.01,55.6,0Z"/>
  <path class="cls-7" d="M80.04,809.11h171.31c-.17,8.9-.08,17.79,0,26.69-6.19.44-12.67.04-18.88.03l-152.43-.03v-26.69Z"/>
  <path class="cls-2" d="M340.75,359.91l-.04-268.29c-.02-17.78-7.06-46.31,15.48-47.9,17.08-1.21,34.93-.06,52.1-.08l207.72-.03c15.98-.03,32.89-1.22,48.75.1,20.66,1.72,14.38,34.08,14.38,49.9v266.31s-93.24-.02-93.24-.02c-15.44,0-31.15-.63-46.55.02-17.34.93-35.03-.17-52.43,0-45.54-3.46-99.1,1.38-146.18,0Z"/>
  <path class="cls-4" d="M691.34,359.91l140.36-.04c38.72-.05,30.23,13.01,30.2,50.96v249.59s-.04,3.31-.04,3.31c-50.18,0-100.54-1.05-150.69,0-9.19,1.04-18.21.63-27.41,0-12.14.93-160.13.28-162.01-.66h-7.32c8.07-14.08,3.72-170.78,3.74-197.33l.03-60.69c0-14.62,3.87-33.8-6.28-45.13,16.24-.17,32.76.93,48.94,0,14.38-.66,29.04-.03,43.45-.02l87.03.02Z"/>
  <path class="cls-2" d="M604.3,443.21h72.16v28.82h-72.16v-28.82Z"/>
  <path class="cls-1" d="M604.3,557.07h173.21v27.33h-173.21v-27.33Z"/>
  <path class="cls-1" d="M604.3,499.86h173.21v28.3h-173.21c-.29-9.4-.02-18.89,0-28.3Z"/>
</svg>