<?xml version="1.0" encoding="UTF-8"?>
<svg id="Layer_1" data-name="Layer 1" xmlns="http://www.w3.org/2000/svg" viewBox="0 0 786.9 619.28">
  <defs>
    <style>
      .cls-1 {
        fill: #f39a2b;
      }

      .cls-1, .cls-2, .cls-3, .cls-4 {
        stroke-width: 0px;
      }

      .cls-2 {
        fill: #e5594f;
      }

      .cls-3 {
        fill: #4a5699;
      }

      .cls-4 {
        fill: #c45fa0;
      }
    </style>
  </defs>
  <path class="cls-4" d="M569.78,257.47c73.92.73,133.67,60.48,134.41,134.4.45,35.08-14.14,68.61-37.86,93.51-25.59,26.86-60.15,40.43-96.55,40.89-53.28.68-53.35,83.37,0,82.69,119.26-1.53,215.56-97.84,217.1-217.1,1.53-119.27-100.15-215.59-217.1-217.09-53.35-.69-53.28,82,0,82.69ZM217.11,525.78c-73.93-.73-133.67-60.48-134.41-134.41-.45-35.09,14.13-68.61,37.86-93.52,25.59-26.86,60.15-40.42,96.55-40.89,53.28-.69,53.35-83.38,0-82.69C97.85,175.81,1.55,272.11.02,391.38c-1.53,119.27,100.15,215.59,217.1,217.1,53.35.68,53.28-82,0-82.69Z"/>
  <path class="cls-3" d="M259.63,217.11c.73-73.92,60.48-133.67,134.4-134.4,35.08-.45,68.61,14.13,93.51,37.86,26.87,25.59,40.42,60.14,40.89,96.54.69,53.28,83.38,53.35,82.69,0C609.59,97.85,513.29,1.55,394.03.02c-119.27-1.53-215.59,100.14-217.09,217.09-.69,53.35,82,53.28,82.69,0h0Z"/>
  <path class="cls-2" d="M373.29,609.59c-12.92-12.92-12.92-33.87,0-46.79l96.01-96.01c12.92-12.92,33.87-12.92,46.79,0,12.92,12.93,12.92,33.88,0,46.8l-96.01,96.01c-12.92,12.92-33.87,12.92-46.79,0h0Z"/>
  <path class="cls-2" d="M420.06,609.59c-12.92,12.92-33.87,12.92-46.79,0l-96.01-96.01c-12.92-12.92-12.92-33.87,0-46.79,12.92-12.92,33.88-12.92,46.8,0l96.01,96.01c12.93,12.92,12.93,33.87,0,46.8Z"/>
  <path class="cls-1" d="M397.5,483.79c-18.73,0-33.91-15.18-33.91-33.91v-139.13c0-18.73,15.18-33.9,33.91-33.9s33.9,15.18,33.9,33.9v139.13c0,18.73-15.18,33.91-33.9,33.91Z"/>
</svg>