<?xml version="1.0" encoding="UTF-8"?>
<svg id="_19" data-name="19" xmlns="http://www.w3.org/2000/svg" viewBox="0 0 1024 1024">
  <defs>
    <style>
      .cls-1 {
        fill: #f39a2b;
      }

      .cls-1, .cls-2, .cls-3, .cls-4, .cls-5, .cls-6, .cls-7, .cls-8 {
        stroke-width: 0px;
      }

      .cls-2 {
        fill: #e5594f;
      }

      .cls-3 {
        fill: #4a5699;
      }

      .cls-4 {
        fill: #f0d043;
      }

      .cls-5 {
        fill: #de98c4;
      }

      .cls-6 {
        fill: #c45fa0;
      }

      .cls-7 {
        fill: #84ae7c;
      }

      .cls-8 {
        fill: #fefefe;
      }
    </style>
  </defs>
  <path class="cls-1" d="M647.3,74.27c23.6-.98,25.82,24.41,6.67,33.68-22.61,1.7-27.78-25.94-6.67-33.68Z"/>
  <path class="cls-3" d="M18.09,349.07c23.41-.45,25.22,30.03,3,33.83-19.88,1-26.32-27.16-3-33.83Z"/>
  <path class="cls-1" d="M952.84,648.55c21.96-1.6,27.47,28.04,3.86,33.71-21.67.09-26.71-31.41-3.86-33.71Z"/>
  <path class="cls-1" d="M308.65,349.07c24.39-3.09,30.46,22.57,11.02,33.83-23.44,1.07-31.21-22.8-11.02-33.83Z"/>
  <path class="cls-6" d="M998.97,349.07c21.55-1.55,29.03,29.3,6.11,33.83-22.34,4.1-28.7-27.32-6.11-33.83Z"/>
  <path class="cls-1" d="M27.44,585.72c8.69-.8,33.32,27.06-4.09,34.17-11.38,3.07-31.27-26.4,4.09-34.17Z"/>
  <rect class="cls-8" x="709.21" y="798.55" width="158.99" height="156.15"/>
  <rect class="cls-8" x="380.63" y="585.71" width="241.61" height="264.86"/>
  <path class="cls-7" d="M359.69,74.27c23.22-4.11,28.95,27.37,7.9,33.68-24.66,2.96-30-28.76-7.9-33.68Z"/>
  <path class="cls-7" d="M691.05,349.07c23.35-2.09,28.39,29.45,5.41,35.87-24.59,2.09-29.05-28.89-5.41-35.87Z"/>
  <path class="cls-5" d="M635.67,189.36c5.12-.44,9.13-.2,13.48,2.8,18.97,13.09-4.33,39.16-12.17,52.04-6.5,10.68-14.32,31.89-28.06,33.63-8.51,1.17-17.34-1.44-20.25-10.52-3.69-11.53,10.82-28.84,16.35-38.22,7.45-12.65,15.28-35.09,30.65-39.74Z"/>
  <path class="cls-3" d="M322.32,622.83c13.32-.41,26.74-2.99,39.88-5.09v47.26l.06,50.75c.01,6.88.97,15.03-.06,21.76-24.32-25.57-41.16-76.2-39.88-110.43v-4.24Z"/>
  <path class="cls-2" d="M322.32,622.83c13.32-.41,26.74-2.99,39.88-5.09v47.26c-18.51-12.86-25.2-22.28-39.46-37.48l-.42-.44v-4.24Z"/>
  <path class="cls-4" d="M90.53,104.18c11.56-2.87,30.41,18.03,38.88,24.73,15.29,12.08,56.97,35.78,17.91,53.41-9.15-.99-60.18-42.13-68-50.61-10.88-11.8-2.63-25.11,11.21-27.52Z"/>
  <path class="cls-5" d="M931,104.18c13.76-1.63,25.39,11.96,18.45,25.23-3.88,7.42-55.29,49.27-66.48,52.9-14.14.48-26.19-12.41-18.32-25.83,4.53-7.72,53.1-48.66,66.35-52.31Z"/>
  <path class="cls-4" d="M381.89,186.88c17.23,1.85,53.28,65.68,54.8,73.67,2.15,11.31-9.86,17.37-18.93,19.1-17.47-.34-53.49-66.85-54.53-73.67-1.61-10.57,9.72-17.62,18.66-19.11Z"/>
  <path class="cls-7" d="M791.91,57.67c4.33-.37,7.91-.62,11.94,1.39,23.69,11.76-2.93,39.68-11.37,52.62-6.98,10.7-18.51,36-31.56,39.83-9.02,2.3-18.54-2.2-21.48-11.32-4.09-12.72,38.51-78.05,52.46-82.51Z"/>
  <path class="cls-2" d="M227.83,51.43c18.08,2.3,54.97,64.52,58.12,75.51,3.36,11.69-7.61,19.02-17.47,21.15-18.49-1.14-57.35-69.82-58.44-76.49-1.77-10.83,8.03-18.74,17.78-20.17Z"/>
  <path class="cls-2" d="M14.56,213.47c12.39-1.11,39.24,13.19,50.94,18.06,15.02,6.26,45.43,13.12,35.35,36.23-2.45,5.61-6.82,7.95-12.22,10.08-10.62,1.23-45.52-15.99-56.46-20.71-13.35-5.76-38.94-11.95-30.52-32.04,2.61-6.23,6.89-9.12,12.9-11.61Z"/>
  <path class="cls-1" d="M1005.08,213.47c13.08-.83,22.81,12.49,17.39,24.87-4.54,10.36-16.98,12.33-26.38,16.1l-59.96,23.4c-9.35,1.41-17.96-4.35-20.75-13.47-5.86-19.14,24.97-26.66,37.33-31.58,17.15-6.82,34.5-14.65,52.37-19.32Z"/>
  <path class="cls-3" d="M645.24,661.94c14.12-9.82,49.27-35.96,63.97-42.05-4.4,32.53-13.12,64.97-27.68,94.56-5.94,12.06-13.63,22.81-18.56,35.43-6.59,16.84-8.79,34.24-17.72,50.32-1.13-3.44-.02-24.67-.01-30.1v-108.15Z"/>
  <path class="cls-1" d="M510.97,35.77c27.08-.91,17.72,49.6,17.73,67.44v59.25c0,17.58,6.12,46.21-14.61,51.01-6.72.02-14.27-3.2-16.9-9.83-2.19-5.52-2.76-122.42-1.66-148.52.45-10.79,4.71-16.21,15.44-19.36Z"/>
  <path class="cls-2" d="M84.77,405.06c5.13-.7,10.42-1.97,15.58-2.17,53.4-2.01,81.24,74.03,25.05,103.81,38.85,50.69,83.19,21.65,117.17,64.06,11.88,14.83,16.85,32.8,25.91,49.13-66.36-7.63-146.69-33.12-199.34-76.15-14.51-36.64,3.52-103.79,15.63-138.68Z"/>
  <path class="cls-4" d="M138.16,674.1c54.06-4.7,105.93,36.32,111.56,90.72,6.27,60.62-32.15,112.72-93.82,119.05-150.41,3.43-144.94-199.6-17.74-209.77Z"/>
  <path class="cls-1" d="M858.35,726.13c13.67-.38,22.55,15.43,31.17,24.21,5.95,6.05,26.47,21.63,25.4,30.63-.96,8.08-28.64,33.75-35.7,38.93,55.22,89.35-27.38,196.38-130.28,161.63-126.32-52.82-68.27-231.34,48.5-213.22,8.13,1.26,16.06,3.91,23.94,6.21l-5.53-8.18c6.5-8.41,32.51-38.09,42.5-40.21ZM781.42,800.2c-109.58,20.39-78.44,160.85,10.49,154.28,100.4-9.41,86.64-154.68-10.49-154.28Z"/>
  <path class="cls-1" d="M818.03,844.56c12.88,3.94-16.31,25.38-19.62,29.08l-.69.78c-2.53,12.44-8.22,18.86-20.63,11.94-11.71-9.99-3.3-20.24,8.57-23.2,2.13.62,4.18,1.5,6.24,2.33,8.92-6.6,16.51-15.35,26.12-20.93Z"/>
  <path class="cls-2" d="M725.46,240.62l-.43-.74c-15.71-27.14,52.67-55.03,72.2-48.56,18.91,6.26,38.43,36.89,46.62,54.13,16.65,35.02,6.68,21.15,34.7,51.81,50.95,55.75,93.52,130.7,92.85,207.69-.24,27.39.25,34.15-21.98,49.23-75.19,50.99-149.19,65.92-240.21,65.71-14.7,6.08-49.85,32.23-63.97,42.05-.7-7.4-.07-15.37-.05-22.81l.1-46.13c.01-56.1-17.71-46.79-62.74-46.73,3.45-17.43,7.8-31.41,18.81-45.6,23.12-25.3,66.22-40.03,98.39-23.39,35.99-39.29,88.36-34.54,133.74-18.71-14.45-31.44-22.93-59.24-23.33-94.12-.33-28.46,6.27-37.14-21.05-59.08-7.86,5.09-14,8.57-23.76,6.44-11.31-2.46-42.15-27.18-48.36-37.23-8.81-14.25-1.54-23.5,8.49-33.96Z"/>
  <path class="cls-3" d="M84.77,405.06c21.15-54.36,59.13-91.65,90.51-138.18,14.53-21.55,29.52-67.28,53.96-77.36,16.92-6.98,39.22,8.05,54.38,14.91,16.57,7.49,35.04,11.08,29.93,33.9,12.09,16.67,10.46,37.51-7.61,49.43-12.97,8.56-6.54.46-18.84,14.27-13.72,15.39-31.84,8.23-48.1,3.36-18.14,13.91-14.78,32.25-14.77,52.46.02,38.52,1.39,61.42-12.68,98.42,48.54-15.43,80.44-8.33,119.32,21.03,47.09-12.39,68.27-7.2,106.06,19.26,13.95-2.86,27.55-6.93,41.43-10.04-.19-12.8,1.32-25.45,1.98-38.21-21.8-13.92-20.73-31.54-24.29-53.47-3.42-21.05-9.7-34.67,3.8-55.82,29.81-46.7,105.16-34.47,115.6,20.08,2.16,11.27-.77,21.17-2.17,32.26-4.24,33.44.7,30.79-20.96,56.95-1.13,12.71,1.11,25.5,1.41,38.21,14.61,1.3,33.85,9.06,47.63,14.18-11.01,14.19-15.36,28.16-18.81,45.6l-174.99-.07c-56.88-.25-45.35,21.57-45.34,71.53-13.14,2.1-26.56,4.68-39.88,5.09-17.92.31-35.99-1.48-53.84-2.94-9.06-16.33-14.03-34.3-25.91-49.13-33.98-42.41-78.32-13.37-117.17-64.06,56.19-29.78,28.35-105.82-25.05-103.81-5.16.19-10.45,1.46-15.58,2.17Z"/>
  <path class="cls-1" d="M582.54,546.27c45.03-.07,62.76-9.37,62.74,46.73l-.1,46.13c-.02,7.44-.65,15.41.05,22.81v108.15c-.02,5.43-1.13,26.67,0,30.1l.1,43.2c.12,56.82-9.28,53.61-62.78,53.5l-153.2.05c-61.24.11-67.19,2.42-67.2-56.98l.04-70.85c0-9.23,1.01-21.75.11-30.56l-.12-1.05c1.04-6.73.07-14.89.06-21.76l-.06-50.75v-47.26c0-49.96-11.54-71.79,45.34-71.53l174.99.07ZM408.61,604.74h-9.86c-.72,26.32-1.28,207.89.65,212.15,6.16,4.89,28.88,3.02,36.49,3.02h163.28c15.68-4.01,9.78-34.04,9.77-48.55v-123.87c.03-52.04,3.56-42.82-50.65-42.76l-125.77-.02c-7.79,0-16.18-.67-23.92.04Z"/>
  <path class="cls-3" d="M469.73,615.79c14.1,1.6-18.51,48.06-22.89,53.9-10.74,14.32-15.76,5.96-24.95-4.69-15.15-25.01-8.77-32.43,15.03-16.45,10.15-12.61,19.17-23.59,32.81-32.75Z"/>
  <path class="cls-3" d="M558.97,645.68c7.28-.19,27.34-4.35,27.11,7.96-.24,12.69-22.23,8.35-30.41,8.35l-44.7-.04c-5.63.15-19.86,1.94-24.1-1.39-3.34-2.62-4-9.53-.86-12.54,4.98-4.75,23.4-2.39,29.71-2.39l43.24.05Z"/>
  <path class="cls-3" d="M491.79,724.27c-11.19-.54-10.44-15.19.42-16.67,11.64-1.6,72.43-1.06,84.16.14,8.17.84,14.1,9.44,5.35,14.99-5.77,3.67-50.16,1.43-59.04,1.54h-30.9Z"/>
  <path class="cls-3" d="M563.79,768.69c4.88-.08,14.44-1.47,18.3,1.61,7.21,5.76,3.54,13.86-4.51,14.97-7.84,1.08-16.38.42-24.32.41l-44.92-.07c-5.5.05-16.98,1.61-21.09-1.95-3.6-3.11-3.2-9.92.2-13.03,3.79-3.47,66.79-1.96,76.35-1.95Z"/>
  <path class="cls-2" d="M426.3,756.6c8.47-.13,24.09-1.66,31.59,1.27,3.37,3.87,2.17,38.02-.01,41.04-1.97,1.35-3.98,1.19-6.3,1.29-7.3-.06-25.71,1.85-31.58-.93-3.95-7.05-3.73-36.2-.16-40.99,2.04-1.22,4.15-1.36,6.46-1.68Z"/>
  <path class="cls-2" d="M444.29,695.42c4.17-.17,10.41-1.16,14.14.99,3.18,6.95,1.42,39.19-2.31,42.48-1.92,1.7-19.4.8-23.28.77-6.94.23-13.29,2.06-14.54-6.28-5.79-38.85-3.09-38.06,25.99-37.97Z"/>
</svg>